<?xml version="1.0" standalone="no"?>
<!DOCTYPE svg PUBLIC "-//W3C//DTD SVG 1.1//EN" "http://www.w3.org/Graphics/SVG/1.1/DTD/svg11.dtd" >
<svg xmlns="http://www.w3.org/2000/svg" xmlns:xlink="http://www.w3.org/1999/xlink" version="1.1">
<metadata></metadata>
<defs>
<font id="theinhardtmedium" horiz-adv-x="1208" >
<font-face units-per-em="2048" ascent="1642" descent="-406" />
<missing-glyph horiz-adv-x="409" />
<glyph unicode="&#xfb01;" horiz-adv-x="1183" d="M680 793h-234v-793h-233v793h-172v182h172v115q0 66 7 106.5t22 75.5q31 72 99.5 103.5t184.5 31.5q51 0 89 -3t65 -7v-189q-20 2 -37.5 3t-46.5 1q-51 0 -82 -8t-47 -30q-20 -29 -21 -103v-96h234v-182zM1055 1155h-234v238h234v-238zM1055 0h-234v973h234v-973z" />
<glyph unicode="&#xfb02;" horiz-adv-x="1191" d="M680 793h-234v-793h-233v793h-172v182h172v115q0 66 7 106.5t22 75.5q31 72 99.5 103.5t184.5 31.5q51 0 89 -3t65 -7v-189q-20 2 -37.5 3t-46.5 1q-51 0 -82 -8t-47 -30q-20 -29 -21 -103v-96h234v-182zM1055 0h-234v1393h234v-1393z" />
<glyph horiz-adv-x="0" />
<glyph horiz-adv-x="682" />
<glyph horiz-adv-x="0" />
<glyph horiz-adv-x="0" />
<glyph unicode="&#xd;" horiz-adv-x="1683" d="M848 973l-402 -383h871v383h233v-588h-1104l402 -385h-291l-485 487l485 486h291z" />
<glyph unicode=" "  horiz-adv-x="409" />
<glyph unicode="&#x09;" horiz-adv-x="409" />
<glyph unicode="&#xa0;" horiz-adv-x="409" />
<glyph unicode="!" horiz-adv-x="518" d="M383 260v-260h-250v260h250zM350 356h-178l-29 402v635h232v-635z" />
<glyph unicode="&#x22;" horiz-adv-x="811" d="M664 793h-154l-39 436v164h238v-164zM297 793h-154l-39 436v164h238v-164z" />
<glyph unicode="#" horiz-adv-x="1380" d="M571 569h191l29 193h-189zM1311 762h-314l-30 -193h299v-204h-330l-59 -365h-207l59 365h-188l-60 -365h-207l60 365h-266v204h299l28 193h-282v207h317l68 424h207l-70 -424h190l68 424h207l-70 -424h281v-207z" />
<glyph unicode="$" horiz-adv-x="1263" d="M373 1006q0 -66 39 -101t125 -57v330q-78 -16 -121 -62.5t-43 -109.5zM938 391q0 70 -50 105.5t-136 58.5v-340q92 16 139 63t47 113zM977 1024q-41 49 -97.5 87t-127.5 58v-370h6q94 -23 175 -50.5t139 -70.5t91 -106.5t33 -155.5q0 -170 -116.5 -280.5t-327.5 -133.5 v-205h-215v207q-88 12 -163 39t-135.5 63.5t-106.5 79.5t-77 86l201 144q35 -59 107.5 -113.5t173.5 -79.5v379l-15 4q-84 18 -158.5 47t-130 73t-88 109.5t-32.5 157.5q0 80 31.5 147.5t89 119t134 84t169.5 45.5v198h215v-203q78 -12 141 -35.5t114.5 -54t88.5 -63.5 t63 -60z" />
<glyph unicode="%" horiz-adv-x="1871" d="M1608 412q0 125 -31 196.5t-96 71.5q-66 0 -94.5 -71.5t-28.5 -182.5q0 -53 6 -100t20.5 -82t38 -54.5t58.5 -19.5q72 0 99.5 68t27.5 174zM1808 414q0 -84 -18 -161t-58 -136.5t-102.5 -95t-150.5 -35.5q-92 0 -154.5 35.5t-101.5 96t-55.5 137.5t-16.5 159 q0 80 15.5 159.5t52 145t101 106.5t163.5 41q102 0 165.5 -43t99.5 -108.5t48 -146t12 -154.5zM668 0h-222l732 1393h215zM520 963q0 125 -30.5 196.5t-96.5 71.5t-94.5 -72t-28.5 -182q0 -53 6.5 -100.5t20.5 -82t37.5 -54t58.5 -19.5q72 0 99.5 68t27.5 174zM721 965 q0 -84 -18.5 -161t-58.5 -136.5t-102.5 -95t-150.5 -35.5q-92 0 -154.5 35.5t-101.5 96t-55.5 137.5t-16.5 159q0 80 15.5 159.5t52.5 145t101.5 106.5t162.5 41q102 0 166 -43t99.5 -108.5t48 -146t12.5 -154.5z" />
<glyph unicode="&#x26;" horiz-adv-x="1345" d="M608 913q66 37 104 88.5t38 106.5q0 53 -35 85t-88 32q-55 0 -89 -31t-34 -82q0 -53 32.5 -100.5t71.5 -98.5zM530 647q-41 -25 -78.5 -50.5t-65.5 -56t-44 -65.5t-16 -78q0 -51 19.5 -90t51 -64.5t74.5 -39t90 -13.5q72 0 138.5 31t109.5 88zM950 147q-84 -92 -182 -132 t-223 -40q-96 0 -179 28t-143.5 80t-94.5 129t-34 177q0 80 24.5 142.5t66.5 111.5t97.5 88t114.5 72q-47 59 -87 131t-40 172q0 61 23.5 118.5t70 101.5t113 70.5t152.5 26.5q88 0 154.5 -24.5t110.5 -65.5t66.5 -95t22.5 -116q0 -123 -65.5 -210t-182.5 -154l189 -223 q14 43 22 95t19 113l219 -57q-14 -98 -37 -181t-57 -163l284 -342h-305z" />
<glyph unicode="'" horiz-adv-x="444" d="M297 793h-154l-39 436v164h238v-164z" />
<glyph unicode="(" horiz-adv-x="583" d="M340 -350q-127 211 -192.5 427t-65.5 458q0 227 63.5 452t180.5 426l221 -27q-115 -209 -175.5 -415.5t-60.5 -417.5t60.5 -433t183.5 -444z" />
<glyph unicode=")" horiz-adv-x="583" d="M29 -324q123 221 183 443.5t60 433.5t-60 418t-175 415l221 27q117 -201 180.5 -426t63.5 -452q0 -242 -65.5 -458t-192.5 -427z" />
<glyph unicode="*" horiz-adv-x="995" d="M596 1106l264 100l70 -207l-262 -81l180 -226l-174 -119l-176 226l-176 -226l-177 119l187 228l-266 79l69 207l264 -100l-10 287h217z" />
<glyph unicode="+" horiz-adv-x="1339" d="M780 0h-219v504h-498v217h498v502h219v-502h496v-217h-496v-504z" />
<glyph unicode="," horiz-adv-x="493" d="M379 268v-209q0 -29 -1 -60.5t-3 -55.5q-6 -55 -20.5 -100.5t-43 -77t-77 -49t-119.5 -19.5v133q57 4 86.5 32.5t29.5 112.5v25h-116v268h264z" />
<glyph unicode="-" horiz-adv-x="833" d="M125 438v221h584v-221h-584z" />
<glyph unicode="." horiz-adv-x="489" d="M377 270v-270h-264v270h264z" />
<glyph unicode="/" horiz-adv-x="1062" d="M1018 1393l-733 -1393h-240l735 1393h238z" />
<glyph unicode="0" horiz-adv-x="1249" d="M901 686q0 90 -12 181t-43 164t-83 119t-134 46t-136.5 -46t-86 -119t-44 -164t-12.5 -181q0 -88 12.5 -176t44 -157.5t86 -112.5t136.5 -43t135 43t84 112.5t42 157.5t11 176zM1157 690q0 -133 -24.5 -261t-85 -229.5t-162 -163t-256.5 -61.5q-147 0 -250 56.5t-166 154 t-92 227.5t-29 277q0 125 26.5 255t89 234.5t166 171t255.5 66.5q145 0 245.5 -61.5t164 -162.5t91 -232.5t27.5 -270.5z" />
<glyph unicode="1" horiz-adv-x="813" d="M657 0h-235v909h-383v187h74q84 0 140 15t97 44q100 74 107 238h200v-1393z" />
<glyph unicode="2" horiz-adv-x="1175" d="M127 848q-10 29 -17.5 63.5t-7.5 83.5q0 92 35 169t99.5 133.5t155.5 88t202 31.5q106 0 192 -30.5t147.5 -88t94.5 -136.5t33 -177q0 -119 -49 -220t-127 -190.5t-172.5 -167t-186.5 -145.5l-63 -49v-2h55q29 0 69 1t93 1h414v-213h-1010v190q43 29 86 60t93 69.5 t110.5 90t136.5 118.5q66 57 120 108.5t92 103t59.5 107.5t21.5 124q0 106 -61.5 169.5t-168.5 63.5q-59 0 -102 -20.5t-70.5 -56t-42 -82t-14.5 -95.5q0 -68 23 -135z" />
<glyph unicode="3" horiz-adv-x="1165" d="M313 444q14 -125 76 -195.5t182 -70.5q68 0 115 20.5t77 54.5t44 76t14 85q0 156 -155 202q-37 10 -81 12.5t-93 2.5h-93v198h113q41 0 75 2.5t62 10.5q72 18 108 68.5t36 115.5q0 37 -13.5 73t-40 62.5t-69.5 43t-101 16.5q-68 0 -113.5 -23.5t-73.5 -58.5t-40 -77 t-14 -79l-224 37q2 80 33 152.5t91.5 127t148.5 86t205 31.5q111 0 194.5 -26.5t142 -73.5t88 -112.5t29.5 -141.5q0 -63 -18.5 -113.5t-49 -89.5t-69.5 -67.5t-78 -47.5q43 -16 89 -41.5t83 -66.5t60.5 -100.5t23.5 -139.5q0 -90 -33.5 -166.5t-98 -134t-158 -89.5 t-214.5 -32q-125 0 -216 32t-152.5 88.5t-95 136t-41.5 178.5z" />
<glyph unicode="4" horiz-adv-x="1177" d="M1128 508v-203h-219v-305h-231v305h-639v182l635 906h235v-885h219zM678 508v211q0 43 1 98t3 108.5t4 100.5t4 76h-2q-23 -47 -72 -127t-114 -176l-205 -291h381z" />
<glyph unicode="5" horiz-adv-x="1155" d="M100 614l107 779h805l-21 -217h-596l-49 -314q10 12 33.5 27.5t58.5 31t82 25.5t105 10q102 0 186 -32.5t144.5 -93t93 -147.5t32.5 -198q0 -104 -31.5 -197t-95 -163t-160 -110t-225.5 -40q-197 0 -331 94.5t-168 266.5l241 63q18 -92 83 -153.5t173 -61.5 q133 0 194.5 81t61.5 208q0 123 -62.5 204t-195.5 81q-100 0 -161.5 -53.5t-84.5 -139.5z" />
<glyph unicode="6" horiz-adv-x="1218" d="M866 467q0 115 -64.5 181.5t-180.5 66.5q-51 0 -94.5 -14.5t-77 -35t-57 -44t-34.5 -41.5q0 -61 12.5 -131t43 -128.5t81 -96.5t126.5 -38q111 0 178 76t67 205zM872 987q-8 33 -24.5 72t-45 72.5t-71.5 56t-102 22.5q-68 0 -119 -33.5t-85 -89t-51.5 -128t-19.5 -150.5 q18 18 47 39.5t69 39t89 30t111 12.5q92 0 174 -28t145.5 -84t100 -140t36.5 -197q0 -115 -34.5 -208t-100 -159.5t-160 -102.5t-210.5 -36q-123 0 -220.5 42t-165 129t-104.5 219.5t-37 314.5q0 174 35 311t104.5 231.5t171 144.5t234.5 50q111 0 192.5 -30.5t138 -83 t89.5 -122t49 -145.5z" />
<glyph unicode="7" horiz-adv-x="1136" d="M330 0q16 98 42.5 197.5t61.5 201.5q72 211 173.5 403.5t223.5 373.5h-536v-263h-232v480h1049v-201q-211 -260 -339 -561t-171 -631h-272z" />
<glyph unicode="8" horiz-adv-x="1220" d="M610 618q-131 0 -201.5 -58t-70.5 -152q0 -98 73.5 -158t198.5 -60q123 0 198 54.5t75 165.5q0 94 -72 151t-201 57zM610 1210q-66 0 -111.5 -16t-74.5 -44t-43 -62.5t-14 -73.5q0 -37 14 -73t45 -65.5t77 -47t107 -17.5t107.5 17.5t77 47t45 65.5t14.5 73 q0 39 -14.5 73.5t-43 62.5t-76 44t-110.5 16zM610 -25q-244 0 -382 110t-138 302q0 123 61.5 204t176.5 124q-39 18 -75 43.5t-63.5 64.5t-44 90.5t-16.5 118.5q0 82 33 152.5t95 123t151.5 81t201.5 28.5q113 0 202 -28.5t151.5 -81t95.5 -123t33 -152.5q0 -68 -16.5 -119 t-44 -90t-63.5 -64.5t-75 -43.5q115 -43 176 -124t61 -204q0 -193 -138 -302.5t-382 -109.5z" />
<glyph unicode="9" horiz-adv-x="1216" d="M352 928q0 -115 64.5 -181.5t181.5 -66.5q51 0 94 14.5t77 35t57.5 44t33.5 41.5q0 61 -12 130t-43 127t-81 97t-126 39q-111 0 -178.5 -75.5t-67.5 -204.5zM346 406q8 -33 24.5 -72t45 -72t71.5 -55.5t103 -22.5q68 0 119 34t84.5 89t51 127t19.5 150q-18 -18 -47 -40 t-68.5 -39.5t-89 -29.5t-110.5 -12q-92 0 -174 27.5t-145.5 84t-100.5 140.5t-37 196q0 115 35 208t100.5 160t159.5 102.5t211 35.5q123 0 220 -42t165 -129t104.5 -220t36.5 -313q0 -174 -34.5 -311.5t-104.5 -231.5t-171 -144.5t-234 -50.5q-111 0 -193 31t-138 83 t-90 121t-48 146z" />
<glyph unicode=":" horiz-adv-x="520" d="M393 975v-270h-264v270h264zM393 270v-270h-264v270h264z" />
<glyph unicode=";" horiz-adv-x="524" d="M393 268v-209q0 -29 -1 -60.5t-3 -55.5q-6 -55 -20.5 -100.5t-43 -77t-76.5 -49t-120 -19.5v133q57 4 87 32.5t30 112.5v25h-117v268h264zM393 975v-270h-264v270h264z" />
<glyph unicode="&#x3c;" horiz-adv-x="1466" d="M1368 -53l-1311 651v180l1311 647v-225l-1022 -508l1022 -520v-225z" />
<glyph unicode="=" horiz-adv-x="1660" d="M1522 340h-1381v180h1381v-180zM1522 680h-1381v180h1381v-180z" />
<glyph unicode="&#x3e;" horiz-adv-x="1466" d="M98 172l1022 520l-1022 508v225l1311 -647v-180l-1311 -651v225z" />
<glyph unicode="?" horiz-adv-x="1011" d="M590 256v-256h-242v256h242zM104 831q-23 41 -33 89.5t-10 99.5q0 80 30 151.5t86 127t139 87t188 31.5q117 0 200.5 -32.5t139 -88t81 -127t25.5 -149.5q0 -106 -46 -195.5t-134 -165.5l-68 -55q-35 -31 -58 -53.5t-37.5 -45t-20.5 -48t-6 -58.5v-65h-222v78 q0 47 5.5 87t21.5 76.5t44 72.5t75 73l86 72q59 47 83.5 104t24.5 121q0 84 -50 137t-148 53q-100 0 -150.5 -56t-50.5 -142q0 -55 19.5 -111.5t50.5 -105.5z" />
<glyph unicode="@" horiz-adv-x="1699" d="M1026 457q-23 -10 -68 -18.5t-84 -18.5q-82 -16 -132 -37t-50 -80t41 -88t107 -29q59 0 104 21.5t66 66.5q8 14 12 32t4 50v101zM1280 178q41 0 72.5 30t53 79t33 113.5t11.5 136.5q0 104 -30.5 205.5t-98.5 181.5t-173.5 128t-252.5 48q-158 0 -276.5 -55.5 t-197.5 -145.5t-119 -205.5t-40 -236.5q0 -158 51.5 -280t138.5 -206t204.5 -128t250.5 -44q170 0 316.5 65.5t269.5 207.5l88 -131q-137 -150 -312 -221.5t-370 -71.5q-168 0 -316.5 50t-260 150.5t-177 252t-65.5 352.5q0 164 56.5 309t163 254.5t257 173t338.5 63.5 q186 0 322.5 -61.5t224.5 -159.5t131 -222t43 -249q0 -109 -21.5 -206t-66.5 -169.5t-117 -114.5t-172 -42q-74 0 -130 24.5t-67 67.5h-2q-12 -12 -32.5 -28.5t-50 -30t-71.5 -23.5t-98 -10q-57 0 -111 15t-95 48t-67 83t-26 122q0 63 21.5 108.5t61.5 76t94.5 49 t121.5 30.5l185 33q35 6 45 14t10 33v12q0 106 -151 107q-174 0 -172 -148l-189 11q0 78 28.5 133t79 91t118 52t143.5 16q72 0 133 -13t105 -42t70 -78t26 -118v-408q0 -78 61 -78z" />
<glyph unicode="A" horiz-adv-x="1259" d="M678 958q-16 49 -28.5 93.5t-22.5 85.5h-2q-10 -39 -22.5 -82t-29.5 -92l-131 -428h365zM264 0h-256l484 1393h278l479 -1393h-264l-106 315h-506z" />
<glyph unicode="B" horiz-adv-x="1327" d="M956 1001q0 53 -26.5 94.5t-67.5 59.5q-29 14 -66.5 19.5t-111.5 5.5h-283v-359h283q47 0 101.5 3t95.5 28q35 23 55 60.5t20 88.5zM401 217h293q90 0 138.5 7t82.5 28q37 23 60.5 65.5t23.5 102.5q0 59 -23.5 102t-60.5 66t-86 29t-135 6h-293v-406zM156 0v1393h546 q66 0 114 -3.5t84 -10.5t63.5 -16t52.5 -22q84 -41 133 -120.5t49 -190.5q0 -106 -53 -182t-131 -111q96 -39 163.5 -124t67.5 -216q0 -117 -51 -204t-139 -134q-25 -14 -53.5 -25t-65.5 -18.5t-86 -11.5t-117 -4h-577z" />
<glyph unicode="C" horiz-adv-x="1363" d="M1317 319q-25 -49 -68 -108t-112.5 -111.5t-164.5 -88.5t-224 -36q-160 0 -284 53.5t-209 148.5t-128 227.5t-43 291.5q0 160 46 292t132 227.5t209 148.5t277 53q121 0 213 -32.5t159.5 -82t111.5 -104.5t71 -100l-216 -133q-51 111 -134 171t-205 60q-92 0 -165 -36 t-124 -100.5t-78 -157.5t-27 -206q0 -227 102.5 -360t291.5 -133q119 0 202.5 56t132.5 159z" />
<glyph unicode="D" horiz-adv-x="1400" d="M156 0v1393h389q84 0 154.5 -2t131 -11.5t114.5 -29t108 -56.5q115 -84 187.5 -236.5t72.5 -357.5q0 -176 -52.5 -319t-150.5 -236q-55 -55 -115.5 -83.5t-129 -43t-148.5 -16.5t-178 -2h-383zM403 223h162q117 0 206 11.5t155 72.5q49 51 87 153.5t38 231.5t-36 229.5 t-108 161.5q-61 53 -146 67.5t-222 14.5h-136v-942z" />
<glyph unicode="E" horiz-adv-x="1253" d="M401 1174v-345h662v-219h-662v-391h781v-219h-1026v1393h974v-219h-729z" />
<glyph unicode="F" horiz-adv-x="1122" d="M401 1174v-363h625v-219h-625v-592h-245v1393h897v-219h-652z" />
<glyph unicode="G" horiz-adv-x="1433" d="M84 696q0 160 47 292t134 227.5t210 148.5t277 53q121 0 213 -32.5t159.5 -82t111.5 -104.5t71 -100l-215 -133q-51 111 -134.5 171t-205.5 60q-92 0 -166 -36t-125 -100.5t-79 -157.5t-28 -206q0 -115 28 -207t79 -157.5t124.5 -101t166.5 -35.5q88 0 150.5 24.5 t104.5 68.5t63.5 107.5t25.5 143.5h-418v223h647v-762h-233v106q-59 -53 -154.5 -92t-212.5 -39q-152 0 -270.5 53.5t-201.5 148.5t-126 227t-43 292z" />
<glyph unicode="H" horiz-adv-x="1425" d="M401 610v-610h-245v1393h245v-564h623v564h246v-1393h-250l4 610h-623z" />
<glyph unicode="I" horiz-adv-x="557" d="M401 0h-245v1393h245v-1393z" />
<glyph unicode="J" horiz-adv-x="776" d="M629 1393v-969q0 -86 -9.5 -161t-50.5 -132q-29 -39 -69.5 -66.5t-91 -46t-105.5 -26.5t-110 -8q-39 0 -78 2t-78 12v219q55 -12 123 -12q66 0 107.5 14t66.5 41q29 35 39 85t10 142v906h246z" />
<glyph unicode="K" horiz-adv-x="1353" d="M1354 0h-314l-450 637l-189 -186v-451h-245v1393h245v-629l609 629h331l-567 -576z" />
<glyph unicode="L" horiz-adv-x="1030" d="M403 1393v-1168h598v-225h-845v1393h247z" />
<glyph unicode="M" horiz-adv-x="1638" d="M694 0l-243 846q-31 109 -48 176q-8 37 -16 68h-4q4 -49 8 -176.5t4 -323.5v-590h-239v1393h366l221 -770q29 -98 48.5 -171t27.5 -120h4q10 41 33 123t45 170l209 768h373v-1393h-240v590q0 74 1 149.5t4 146t5 132t7 104.5h-5q-10 -45 -27.5 -112.5t-43.5 -159.5 l-244 -850h-246z" />
<glyph unicode="N" horiz-adv-x="1417" d="M915 596q12 -18 27.5 -43t31 -49.5t29 -45t19.5 -32.5q0 16 -1 69.5t-1 124t-1 151.5t-1 155v467h244v-1393h-230l-549 838q-16 25 -31.5 50t-27.5 45.5t-20 34.5l-9 13q0 -25 1 -76t2 -119.5t1 -150.5v-170v-465h-243v1393h229z" />
<glyph unicode="O" horiz-adv-x="1486" d="M352 696q0 -115 27 -206t77 -156.5t122.5 -100t164.5 -34.5t165 34.5t123 100t77 157t27 205.5q0 113 -27 206t-78 158.5t-122.5 101.5t-164.5 36q-92 0 -163.5 -36t-122.5 -101.5t-78 -158.5t-27 -206zM84 696q0 160 46 292t132 227.5t208 148.5t273 53q152 0 274 -53 t208 -148.5t132 -227.5t46 -292t-43 -292t-127 -227t-207 -148.5t-283 -53.5q-158 0 -280.5 53.5t-206.5 148.5t-128 227t-44 292z" />
<glyph unicode="P" horiz-adv-x="1249" d="M156 1393h465q129 0 245.5 -16.5t200.5 -88.5q66 -55 101.5 -137t35.5 -180t-35.5 -183.5t-101.5 -140.5q-84 -72 -200.5 -88t-245.5 -16h-220v-543h-245v1393zM401 764h254q74 0 119 6t76 21q47 23 73.5 71.5t26.5 108.5q0 59 -26.5 107t-73.5 71q-31 14 -76 20.5 t-119 6.5h-254v-412z" />
<glyph unicode="Q" horiz-adv-x="1505" d="M352 696q0 -115 27 -206t77 -156.5t122.5 -100t164.5 -34.5t165 34.5t123 100t77 157t27 205.5q0 113 -27 206t-78 158.5t-122.5 101.5t-164.5 36q-92 0 -163.5 -36t-122.5 -101.5t-78 -158.5t-27 -206zM84 696q0 160 46 292t132 227.5t208 148.5t273 53q152 0 274 -53 t208 -148.5t132 -227.5t46 -292q0 -244 -100 -422l157 -153l-180 -178l-143 147q-78 -55 -176.5 -85t-217.5 -30q-158 0 -280.5 53.5t-206.5 148.5t-128 227t-44 292z" />
<glyph unicode="R" horiz-adv-x="1318" d="M401 778h265q76 0 119.5 6.5t76.5 20.5q47 23 73 70t26 104t-26 103t-73 67q-33 14 -77 20.5t-119 6.5h-265v-398zM401 557v-557h-245v1393h510q90 0 180 -8.5t170 -55.5q92 -53 145 -140t53 -216q0 -117 -49 -201t-135 -141q-25 -16 -54.5 -27.5t-53.5 -21.5l348 -582 h-293l-324 557h-252z" />
<glyph unicode="S" horiz-adv-x="1273" d="M983 1034q-59 72 -151.5 120t-208.5 48q-123 0 -189.5 -53t-66.5 -133q0 -78 53 -114t172 -62l168 -37q98 -23 180 -51.5t141.5 -73.5t93 -111.5t33.5 -160.5q0 -96 -39 -176t-110.5 -136.5t-175 -87.5t-234.5 -31q-115 0 -210 26t-170.5 67t-132 91t-93.5 101l205 148 q25 -39 64.5 -77t93 -69t118 -49t138.5 -18q141 0 211.5 52t70.5 136q0 82 -65.5 120t-171.5 60l-187 41q-86 18 -161.5 47t-132 76t-90.5 113.5t-34 163.5q0 92 41 168.5t112 131t167 84t207 29.5q109 0 194.5 -23.5t152 -58.5t115 -75.5t78.5 -73.5z" />
<glyph unicode="T" horiz-adv-x="1136" d="M39 1393h1059v-219h-406v-1174h-246v1174h-407v219z" />
<glyph unicode="U" horiz-adv-x="1368" d="M684 203q98 0 166 33.5t100 109.5q16 35 23.5 84t7.5 152v811h244v-815q0 -76 -4 -133.5t-12.5 -102.5t-23 -81t-32.5 -68q-70 -115 -192.5 -166.5t-276.5 -51.5t-276.5 51.5t-192.5 166.5q-18 33 -32.5 68.5t-22.5 80.5t-12.5 102.5t-4.5 133.5v815h244v-811 q0 -102 7 -151.5t24 -84.5q33 -76 100.5 -109.5t165.5 -33.5z" />
<glyph unicode="V" horiz-adv-x="1216" d="M561 455q8 -27 16.5 -57.5t14.5 -58.5t10 -47.5t4 -21.5l53 185l291 938h254l-450 -1393h-301l-433 1393h259z" />
<glyph unicode="W" horiz-adv-x="1773" d="M1217 479q6 -25 12 -53.5t11 -57t9 -53t4 -39.5l39 216l183 901h254l-310 -1393h-319l-162 729q-10 45 -18.5 95t-15.5 93.5t-11 70.5l-4 28q-12 -51 -21 -103q-10 -43 -18 -94t-19 -92l-155 -727h-324l-303 1393h262l172 -912q6 -31 11.5 -64.5t10.5 -63t9 -47.5l4 -19 q8 33 19.5 91t21.5 103l191 912h274z" />
<glyph unicode="X" horiz-adv-x="1320" d="M1319 0h-299l-363 535l-376 -535h-281l514 709l-494 684h310l342 -494l338 494h295l-496 -666z" />
<glyph unicode="Y" horiz-adv-x="1273" d="M756 0h-246v569l-506 824h285l356 -596l363 596h282l-534 -824v-569z" />
<glyph unicode="Z" horiz-adv-x="1189" d="M1112 0h-1049v203l738 968h-703v222h1010v-201l-733 -969h737v-223z" />
<glyph unicode="[" horiz-adv-x="626" d="M561 -326h-422v1719h422v-174h-190v-1369h190v-176z" />
<glyph unicode="\" horiz-adv-x="1067" d="M283 1393l739 -1393h-240l-737 1393h238z" />
<glyph unicode="]" horiz-adv-x="626" d="M66 -150h190v1369h-190v174h421v-1719h-421v176z" />
<glyph unicode="^" horiz-adv-x="923" d="M899 668h-244l-198 432l-199 -432h-250l361 725h182z" />
<glyph unicode="_" horiz-adv-x="1492" d="M1294 -340h-1095v205h1095v-205z" />
<glyph unicode="`" horiz-adv-x="1024" d="M565 1393l131 -263h-200l-207 263h276z" />
<glyph unicode="a" horiz-adv-x="1062" d="M481 150q96 0 155.5 48t59.5 148v119q-27 -10 -53.5 -17.5t-79.5 -17.5l-90 -18q-84 -16 -122 -43t-38 -86t41 -96t127 -37zM920 223q0 -47 11 -64.5t52 -17.5h12v-153q-10 -2 -34.5 -6.5t-75.5 -4.5q-68 0 -113 21.5t-59 79.5h-2q-14 -16 -37 -34.5t-57.5 -34t-83 -26 t-113.5 -10.5q-72 0 -134.5 18.5t-108.5 55.5t-73.5 95.5t-27.5 138.5q0 55 14 97t41 75q45 53 119 84.5t170 48.5l215 37q39 8 50 15t11 36v16q0 61 -41 92t-133 31q-199 0 -196 -170l-220 14q-2 90 32 153.5t92.5 104.5t136 59.5t165.5 18.5q84 0 155 -14t123 -48 t81 -89.5t29 -134.5v-484z" />
<glyph unicode="b" horiz-adv-x="1155" d="M352 487q0 -141 68.5 -225t179.5 -84q113 0 180.5 82t67.5 227q0 147 -67.5 229.5t-180.5 82.5q-111 0 -179.5 -85.5t-68.5 -226.5zM649 -25q-98 0 -168.5 35t-118.5 92v-102h-233v1393h233v-525q41 53 116 92t171 39q98 0 178 -37.5t136.5 -106.5t87 -164t30.5 -208 q0 -111 -30.5 -204t-88 -160.5t-136.5 -105.5t-177 -38z" />
<glyph unicode="c" horiz-adv-x="1034" d="M786 621q-27 78 -82 127t-145 49q-117 0 -185.5 -81t-68.5 -229q0 -147 68.5 -228t185.5 -81q100 0 153.5 50.5t80.5 115.5l188 -100q-16 -39 -50 -86t-87 -87t-125 -68t-166 -28q-106 0 -194.5 33t-152 97.5t-98 159.5t-34.5 218t36.5 218.5t101 162t153 100t188.5 33.5 q86 0 154.5 -21.5t122 -58t91 -87t60.5 -107.5z" />
<glyph unicode="d" horiz-adv-x="1155" d="M803 487q0 141 -68.5 226.5t-179.5 85.5q-113 0 -180.5 -82t-67.5 -230q0 -145 67.5 -227t180.5 -82q111 0 179.5 84t68.5 225zM506 -25q-98 0 -177 38t-136.5 105.5t-88 161t-30.5 203.5q0 113 30.5 208t87 164t136.5 106.5t178 37.5q96 0 171 -38.5t116 -92.5v525h233 v-1393h-233v102q-47 -57 -118 -92t-169 -35z" />
<glyph unicode="e" horiz-adv-x="1087" d="M553 811q-49 0 -93 -16.5t-77 -46t-53.5 -68.5t-22.5 -82h475q-4 96 -67.5 154.5t-161.5 58.5zM1018 221q-16 -25 -50 -66.5t-89.5 -81.5t-134 -69t-185.5 -29q-109 0 -198 37t-153.5 104.5t-99 164t-34.5 215.5q0 113 36.5 205t101 158.5t152 102t189.5 35.5 q117 0 204 -37.5t143 -106.5t85 -163t29 -207q0 -12 -1 -29.5t-1 -29.5h-711q6 -49 24.5 -94t52.5 -79t81 -54.5t112 -20.5q66 0 115 19.5t83 46t54.5 55.5t32.5 47z" />
<glyph unicode="f" horiz-adv-x="716" d="M680 793h-234v-793h-233v793h-172v182h172v115q0 66 7 106.5t22 75.5q31 72 99.5 103.5t184.5 31.5q51 0 89 -3t65 -7v-189q-20 2 -37.5 3t-46.5 1q-51 0 -82 -8t-47 -30q-20 -29 -21 -103v-96h234v-182z" />
<glyph unicode="g" horiz-adv-x="1155" d="M805 494q0 141 -65.5 223t-182.5 82q-119 0 -183.5 -79t-64.5 -226t64.5 -224t183.5 -77q117 0 182.5 80t65.5 221zM336 -47q4 -35 15 -66.5t36 -56.5t65 -39t103 -14q133 0 186.5 58.5t53.5 197.5v88h-2q-12 -16 -35 -38t-56.5 -41t-83 -32.5t-112.5 -13.5 q-98 0 -178 35t-136.5 98.5t-86 154.5t-29.5 201q0 115 28.5 210.5t84 163t135 104t180.5 36.5q102 0 176 -38.5t115 -92.5v107h233v-920q0 -78 -7 -132t-24 -101q-47 -123 -158.5 -175.5t-291.5 -52.5q-221 0 -331 91.5t-116 248.5z" />
<glyph unicode="h" horiz-adv-x="1118" d="M999 0h-233v494q0 55 -3 102t-13 84q-16 53 -56.5 83t-115.5 30q-111 0 -163.5 -76t-52.5 -195v-522h-233v1393h233v-543q35 66 114 107.5t190 41.5q84 0 151.5 -27.5t116.5 -92.5q16 -25 28.5 -51.5t20.5 -64.5t12 -89t4 -121v-553z" />
<glyph unicode="i" horiz-adv-x="491" d="M362 1155h-233v238h233v-238zM362 0h-233v975h233v-975z" />
<glyph unicode="j" horiz-adv-x="491" d="M362 1155h-233v238h233v-238zM362 975v-1071q0 -82 -4 -116t-14 -60q-18 -45 -53 -73t-77 -42t-89 -18.5t-90 -4.5h-27.5t-36.5 2v195q33 2 61.5 5t50 14.5t34 34t12.5 63.5v1071h233z" />
<glyph unicode="k" horiz-adv-x="1095" d="M362 1393v-818l394 400h301l-385 -379l420 -596h-291l-295 436l-144 -131v-305h-233v1393h233z" />
<glyph unicode="l" horiz-adv-x="507" d="M371 0h-234v1393h234v-1393z" />
<glyph unicode="m" horiz-adv-x="1746" d="M909 905q12 -14 21.5 -27.5t19.5 -29.5q23 27 52.5 54.5t70.5 49t93.5 34.5t117.5 13q94 0 156.5 -25.5t101.5 -68.5q23 -27 39 -54.5t26.5 -67.5t15.5 -95t5 -135v-553h-233v494q0 66 -5.5 121t-23.5 95t-56 61.5t-104 21.5q-111 0 -161 -76t-50 -195v-522h-233v494 q0 66 -5 121t-23.5 95t-56.5 61.5t-104 21.5q-109 0 -160 -76t-51 -195v-522h-233v975h233v-125q35 61 112 105t194 44q155 0 241 -94z" />
<glyph unicode="n" horiz-adv-x="1118" d="M999 0h-233v494q0 55 -3 102t-13 84q-16 53 -56.5 83t-115.5 30q-111 0 -163.5 -76t-52.5 -195v-522h-233v975h233v-125q35 66 114 107.5t190 41.5q84 0 151.5 -27.5t116.5 -92.5q16 -25 28.5 -51.5t20.5 -64.5t12 -89t4 -121v-553z" />
<glyph unicode="o" horiz-adv-x="1122" d="M305 487q0 -147 72 -229t184 -82q113 0 184.5 83t71.5 228q0 147 -69.5 229.5t-186.5 82.5t-186.5 -82.5t-69.5 -229.5zM74 483q0 117 34.5 212.5t98 163t154 103t200.5 35.5q111 0 201 -35.5t153.5 -103t98.5 -163t35 -212.5t-34 -211t-97.5 -159.5t-153.5 -101.5 t-203 -36t-203 36t-153.5 101.5t-97 159.5t-33.5 211z" />
<glyph unicode="p" horiz-adv-x="1155" d="M352 487q0 -141 68.5 -225t179.5 -84q113 0 180.5 82t67.5 227q0 147 -67.5 229.5t-180.5 82.5q-111 0 -179.5 -85.5t-68.5 -226.5zM649 -25q-98 0 -168.5 35t-118.5 92v-491h-233v1364h233v-107q41 53 116 92t171 39q98 0 178 -37.5t136.5 -106.5t87 -164t30.5 -208 q0 -111 -30.5 -204t-88 -160.5t-136.5 -105.5t-177 -38z" />
<glyph unicode="q" horiz-adv-x="1155" d="M803 487q0 141 -68.5 226.5t-179.5 85.5q-113 0 -180.5 -82t-67.5 -230q0 -145 67.5 -227t180.5 -82q111 0 179.5 84t68.5 225zM506 -25q-98 0 -177 38t-136.5 105.5t-88 161t-30.5 203.5q0 113 30.5 208t87 164t136.5 106.5t178 37.5q96 0 171 -38.5t116 -92.5v107h233 v-1364h-233v491q-47 -57 -118 -92t-169 -35z" />
<glyph unicode="r" horiz-adv-x="729" d="M362 975v-144q6 18 26 47t53.5 56t83.5 46t122 19h15.5t21.5 -2v-237q-16 2 -32.5 3t-33.5 1q-94 0 -148 -34t-81 -99q-14 -37 -20.5 -82t-6.5 -111v-438h-233v975h233z" />
<glyph unicode="s" horiz-adv-x="985" d="M756 698q-51 49 -120 80t-155 31q-70 0 -114.5 -24.5t-44.5 -71.5q0 -27 12 -43.5t37.5 -28.5t64.5 -21.5t90 -19.5l117 -27q55 -12 106.5 -30.5t89.5 -49t61.5 -75.5t23.5 -113q0 -84 -35 -145.5t-94.5 -102.5t-136 -61.5t-160.5 -20.5q-88 0 -161 19.5t-130 48.5 t-97 64.5t-63 66.5l158 139q41 -55 113.5 -100t185.5 -45q88 0 136 28.5t48 82.5q0 51 -39 67t-110 33l-146 31q-63 14 -118.5 35.5t-96.5 55.5t-64.5 81t-23.5 114q0 80 35 137.5t91 94.5t127 54t140 17q74 0 137.5 -14t115.5 -36.5t91 -50.5t64 -54z" />
<glyph unicode="t" horiz-adv-x="751" d="M694 -8q-72 -16 -174 -17q-72 0 -138.5 17.5t-107.5 66.5q-29 35 -35 80t-6 117v537h-208v182h208v340l234 51v-391h227v-182h-227v-498q0 -41 6 -63.5t21 -36.5q14 -16 40.5 -21.5t57.5 -5.5t57.5 2t44.5 6v-184z" />
<glyph unicode="u" horiz-adv-x="1097" d="M119 975h233v-518q0 -53 4 -101.5t21 -87.5q16 -39 52 -62.5t97 -23.5q111 0 160 76t49 195v522h234v-975h-234v125q-35 -61 -110.5 -105.5t-180.5 -44.5q-74 0 -135 24t-104 71q-23 27 -39 54.5t-26.5 67t-15.5 95t-5 135.5v553z" />
<glyph unicode="v" horiz-adv-x="929" d="M907 975l-321 -975h-244l-317 975h241l150 -506q10 -39 20 -73t19 -62q8 -33 14 -60h2q6 27 14 60q6 29 15.5 64.5t21.5 76.5l146 500h239z" />
<glyph unicode="w" horiz-adv-x="1462" d="M809 373q-20 72 -40.5 161t-33.5 164h-2q-16 -72 -35.5 -162t-42.5 -167l-108 -369h-232l-280 975h237l115 -430q18 -72 34.5 -135.5t31.5 -139.5h2q14 72 28.5 133.5t36.5 147.5l113 424h207l112 -430q12 -47 21.5 -82t16.5 -64.5t14.5 -60.5t13.5 -68h2q6 37 13 67 t14.5 61.5t17.5 68.5t22 84l115 424h234l-297 -975h-228z" />
<glyph unicode="x" horiz-adv-x="976" d="M932 975l-303 -459l336 -516h-273l-209 324l-202 -324h-269l336 516l-303 459h283l168 -273l161 273h275z" />
<glyph unicode="y" horiz-adv-x="929" d="M893 975l-326 -1092q-25 -82 -48 -131t-54 -82q-39 -41 -92.5 -58.5t-134.5 -17.5q-47 0 -76 4.5t-51 8.5v190q18 -4 37.5 -7t41.5 -3q76 0 107 31.5t49 91.5l16 59l-350 1006h244l160 -526q10 -35 19 -70t18 -64q8 -35 16 -67h2q6 31 14 65q6 29 15.5 65t19.5 71 l139 526h234z" />
<glyph unicode="z" horiz-adv-x="983" d="M901 973v-182l-520 -586h520v-205h-827v180l528 588h-510v205h809z" />
<glyph unicode="{" horiz-adv-x="626" d="M66 616q41 12 62.5 27.5t31.5 39.5t12 56.5t2 75.5v260q0 100 15.5 162.5t55.5 97.5t108.5 46.5t172.5 11.5h33v-170q-49 0 -78.5 -8.5t-47 -27t-22.5 -48t-5 -74.5v-188q0 -80 -3.5 -136.5t-15.5 -96.5t-34.5 -63.5t-61.5 -37.5v-4q39 -14 61.5 -38t34.5 -64t15.5 -96 t3.5 -136v-203q0 -45 5 -74.5t22.5 -48t47 -27t78.5 -8.5v-170h-33q-104 0 -172.5 11.5t-108.5 46.5t-55.5 96t-15.5 164v274q0 43 -2 76t-12 56.5t-32 39t-62 27.5v151z" />
<glyph unicode="|" horiz-adv-x="509" d="M139 1393h232v-1719h-232v1719z" />
<glyph unicode="}" horiz-adv-x="626" d="M561 465q-41 -12 -62.5 -27.5t-31.5 -39t-12 -56.5t-2 -76v-274q0 -102 -16.5 -163.5t-56.5 -96.5t-107.5 -46.5t-172.5 -11.5h-32v170q49 0 78.5 8.5t47 27t22.5 48t5 74.5v203q0 80 3 136t15.5 96t35 63.5t61.5 38.5v4q-39 14 -61.5 37.5t-35 63.5t-15.5 96.5t-3 136.5 v188q0 45 -5 74.5t-22.5 48t-47 27t-78.5 8.5v170h32q104 0 172 -11.5t108 -46.5t56.5 -97t16.5 -163v-260q0 -43 2 -75.5t12 -56.5t31.5 -39t62.5 -28v-151z" />
<glyph unicode="~" horiz-adv-x="1175" d="M1108 586q-61 -78 -151.5 -120t-176.5 -42q-37 0 -67.5 6t-58 16.5t-56.5 24.5t-61 31q-31 16 -74 33.5t-82 17.5q-35 0 -84 -19.5t-115 -99.5l-112 182q14 25 43.5 55.5t69.5 56.5t91.5 44.5t110.5 18.5q68 0 124 -24t120 -56q35 -16 70.5 -35t88.5 -19q57 0 117 30 t101 77z" />
<glyph unicode="&#xa1;" horiz-adv-x="487" d="M121 715v260h250v-260h-250zM154 618h178l28 -401v-635h-231v635z" />
<glyph unicode="&#xa2;" horiz-adv-x="1062" d="M315 487q0 -109 39 -181.5t107 -104.5v573q-70 -31 -108 -104.5t-38 -182.5zM999 262q-12 -35 -38.5 -77t-67.5 -82t-98.5 -71.5t-132.5 -45.5v-217h-201v215q-172 29 -274.5 155.5t-102.5 343.5q0 106 28.5 192.5t79 151t119 104.5t150.5 56v201h201v-199 q133 -23 217 -100.5t118 -181.5l-200 -101q-16 59 -50 104.5t-85 67.5v-583q59 23 92.5 70.5t50.5 101.5z" />
<glyph unicode="&#xa3;" horiz-adv-x="1157" d="M854 958q-2 51 -11 95.5t-30.5 77t-55.5 51t-83 18.5q-51 0 -83 -19.5t-50.5 -52t-25.5 -75.5t-7 -90q0 -80 6 -154h289v-207h-277q2 -29 3 -60.5t1 -66.5q0 -37 -3 -76t-13 -72.5t-27.5 -61t-46.5 -46.5v-2h72q35 0 81 1t103 1h353v-219h-963v205q57 4 97 16t64.5 42 t36 80t11.5 130v66.5t-4 62.5h-205v207h188q-2 35 -3 80t-1 80q0 92 20.5 173t68 142.5t124 96t189.5 34.5q193 0 300 -108.5t107 -307.5z" />
<glyph unicode="&#xa4;" horiz-adv-x="1148" d="M354 578q0 -47 17.5 -88t47.5 -72t69.5 -48.5t86.5 -17.5t88.5 17.5t71 48.5t47 71.5t17.5 88.5q0 47 -16.5 88t-46 71.5t-70.5 49t-91 18.5q-47 0 -86.5 -17.5t-69.5 -48t-47.5 -72.5t-17.5 -89zM156 578q0 59 14 112t41 101l-55 53l-74 69l162 162l125 -127 q90 51 206 51q57 0 110.5 -11t100.5 -38l121 121l158 -158l-121 -122q51 -90 51 -213q0 -59 -11 -111.5t-38 -99.5l121 -117l-160 -160l-121 121q-94 -51 -211 -51q-57 0 -110 11t-100 40l-123 -123l-160 160l125 123q-51 92 -51 207z" />
<glyph unicode="&#xa5;" horiz-adv-x="1294" d="M160 754h278l-379 639h269l327 -574l312 574h268l-375 -639h275v-195h-367v-127h367v-194h-367v-238h-238v238h-370v194h370v127h-370v195z" />
<glyph unicode="&#xa6;" horiz-adv-x="518" d="M143 336h232v-662h-232v662zM143 1393h232v-662h-232v662z" />
<glyph unicode="&#xa7;" horiz-adv-x="1060" d="M399 1135q0 -49 41 -77t121 -63l141 -61q51 -23 100.5 -48.5t87.5 -60t60.5 -81t22.5 -107.5q0 -55 -14.5 -96t-37 -74t-51 -56.5t-55.5 -41.5q18 -14 41 -33t41 -45.5t30.5 -60t12.5 -76.5q0 -84 -35 -145.5t-93 -103.5t-136 -62.5t-166 -20.5q-84 0 -156.5 19.5 t-129 48t-97.5 64.5t-64 66l162 142q41 -57 112 -102.5t179 -45.5q92 0 142.5 31t50.5 90q0 51 -48.5 85t-115.5 59l-156 59q-63 23 -116.5 51.5t-91.5 66.5t-59.5 86t-21.5 113q0 47 15.5 86t41 70t57.5 51.5t65 32.5q-16 12 -37 30.5t-38.5 44t-29.5 61.5t-12 83 q0 80 35.5 137.5t92 94t127 54t140.5 17.5q74 0 136.5 -15.5t114.5 -38t90 -50t63 -53.5l-136 -146q-51 49 -122.5 81t-151.5 32q-68 0 -110 -23.5t-42 -68.5zM651 471q39 18 62.5 51t23.5 68q0 47 -34.5 73.5t-94.5 53.5l-84 37q-20 10 -40.5 17t-53.5 20 q-47 -12 -73.5 -43t-26.5 -68q0 -55 41 -85t112 -58z" />
<glyph unicode="&#xa8;" horiz-adv-x="1024" d="M594 1372h221v-242h-221v242zM211 1372h221v-242h-221v242z" />
<glyph unicode="&#xa9;" horiz-adv-x="1564" d="M1311 717q0 111 -41 209t-112 171.5t-167 115.5t-209 42t-209 -42t-166.5 -115.5t-111.5 -172t-41 -208.5q0 -111 41 -209t111.5 -172t167 -116t208.5 -42q113 0 209 42t167 116t112 172t41 209zM1481 717q0 -147 -53.5 -275.5t-147.5 -222.5t-221 -148.5t-277 -54.5 t-277.5 54.5t-221 148.5t-146.5 222t-53 276q0 147 53 275t146.5 222.5t221.5 148.5t277 54q150 0 277 -54t221 -148.5t147.5 -222.5t53.5 -275zM1108 508q-12 -29 -38 -62.5t-63.5 -64.5t-92 -51.5t-123.5 -20.5q-90 0 -161 30t-118 83t-71.5 127t-24.5 164t26.5 163.5 t74.5 127t118 83t156 29.5q68 0 120 -19.5t89.5 -47t63.5 -59.5t40 -56l-133 -92q-61 131 -180 131q-98 0 -150.5 -72t-52.5 -188q0 -117 52 -186.5t151 -69.5q117 0 178 121z" />
<glyph unicode="&#xaa;" horiz-adv-x="790" d="M647 901q0 -29 7.5 -40t31.5 -11h14v-111q-2 0 -6 -1t-8 -1q-10 -2 -26.5 -3t-36.5 -1q-92 0 -117 64q-20 -20 -63.5 -43t-127.5 -23q-45 0 -87 12.5t-73.5 38t-51 64.5t-19.5 94q0 100 63.5 142t167.5 63l142 26q37 6 37 33v8q0 41 -27 60.5t-86 19.5q-129 0 -125 -114 l-154 8q0 61 22.5 105t61.5 72t91.5 41t111.5 13q57 0 104.5 -10t81 -33.5t53 -60.5t19.5 -92v-320zM494 1055q-12 -4 -34 -8.5t-44 -8.5l-35 -6q-59 -10 -97 -27.5t-38 -60.5t29.5 -63.5t78.5 -20.5q61 0 100.5 31t39.5 94v70z" />
<glyph unicode="&#xab;" horiz-adv-x="958" d="M92 446v297l332 285v-270l-195 -156l195 -168v-266zM510 446v297l332 285v-270l-195 -156l195 -168v-266z" />
<glyph unicode="&#xac;" horiz-adv-x="1144" d="M1018 365h-234v368h-700v197h934v-565z" />
<glyph unicode="&#xad;" horiz-adv-x="833" d="M125 438v221h584v-221h-584z" />
<glyph unicode="&#xae;" horiz-adv-x="1564" d="M784 758q49 0 76 3t43 11q49 25 49 86q0 63 -49 86q-16 8 -41.5 10t-77.5 2h-161v-198h161zM623 332h-160v776h342q111 0 166 -29q59 -29 101 -84t42 -137q0 -100 -52 -157.5t-130 -82.5l209 -286h-203l-195 276h-120v-276zM1311 717q0 111 -41 209t-112 171.5 t-167 115.5t-209 42t-209 -42t-166.5 -115.5t-111.5 -172t-41 -208.5q0 -111 41 -209t111.5 -172t167 -116t208.5 -42q113 0 209 42t167 116t112 172t41 209zM1481 717q0 -147 -53.5 -275.5t-147.5 -222.5t-221 -148.5t-277 -54.5t-277.5 54.5t-221 148.5t-146.5 222 t-53 276q0 147 53 275t146.5 222.5t221.5 148.5t277 54q150 0 277 -54t221 -148.5t147.5 -222.5t53.5 -275z" />
<glyph unicode="&#xaf;" horiz-adv-x="1024" d="M213 1393h598v-191h-598v191z" />
<glyph unicode="&#xb0;" horiz-adv-x="888" d="M289 1053q0 -63 46 -109.5t109 -46.5t109.5 46t46.5 110q0 63 -46 109t-110 46q-63 0 -109 -46t-46 -109zM72 1053q0 78 28.5 145.5t79.5 118.5t119 79.5t145 28.5q78 0 145.5 -28.5t119 -79.5t80 -119t28.5 -145q0 -78 -28.5 -145.5t-80 -119t-119 -80t-145.5 -28.5 t-145.5 28.5t-118.5 80t-79.5 119t-28.5 145.5z" />
<glyph unicode="&#xb1;" horiz-adv-x="1417" d="M819 279h-219v321h-498v217h498v406h219v-406h496v-217h-496v-321zM102 0v217h1213v-217h-1213z" />
<glyph unicode="&#xb2;" horiz-adv-x="827" d="M119 1063q-10 45 -10 78q0 57 20.5 107t60 88t98 59.5t132.5 21.5q135 0 214 -74.5t79 -203.5q0 -72 -28 -134.5t-72 -113.5t-98 -92t-105 -72q29 2 75.5 3t94.5 1h139v-186h-615v151q82 57 159 114.5t118 98.5q47 43 86 101.5t39 124.5q0 47 -25.5 74.5t-74.5 27.5 q-57 0 -81 -37t-24 -84q0 -23 4 -45t10 -43z" />
<glyph unicode="&#xb3;" horiz-adv-x="776" d="M102 1153q0 53 18.5 101.5t55.5 84t90 57t123 21.5q131 0 206 -64.5t75 -166.5q0 -61 -26 -106.5t-60 -67.5q41 -29 72.5 -75t31.5 -132q0 -55 -20.5 -103.5t-58.5 -85t-94 -57t-130 -20.5q-147 0 -226 76.5t-83 205.5l192 31q6 -137 117 -137q57 0 79.5 32.5t22.5 69.5 q0 23 -8 42.5t-28 31.5q-35 20 -101 20h-51v160h47q61 0 88 16q43 23 43 78q0 33 -23.5 56.5t-70.5 23.5q-53 0 -76.5 -32.5t-23.5 -75.5z" />
<glyph unicode="&#xb4;" horiz-adv-x="1024" d="M719 1393l-207 -263h-201l131 263h277z" />
<glyph unicode="&#xb5;" horiz-adv-x="1083" d="M367 975v-518q0 -53 4 -101.5t20 -87.5t52 -62.5t98 -23.5q111 0 160 76t49 195v522h233v-975h-233v125q-27 -57 -91.5 -100t-156.5 -43q-78 0 -135 36v-407h-234v1364h234z" />
<glyph unicode="&#xb6;" horiz-adv-x="1300" d="M543 608h-17q-139 0 -212.5 22.5t-125.5 65.5q-131 100 -131 303q0 195 131 301q51 41 125 67t213 26h695v-170h-146v-1485h-174v1485h-178v-1485h-180v870z" />
<glyph unicode="&#xb7;" horiz-adv-x="507" d="M387 791v-271h-264v271h264z" />
<glyph unicode="&#xb8;" horiz-adv-x="1024" d="M590 6l-78 -67q72 -2 121 -40t49 -116q0 -47 -18.5 -81t-47 -56.5t-67.5 -33.5t-78 -11q-63 0 -115 24l31 94q27 -10 44.5 -12t33.5 -2q37 0 60.5 17.5t23.5 48.5q0 35 -24.5 49t-57.5 14q-35 0 -76 -20l-47 86l127 106h119z" />
<glyph unicode="&#xb9;" horiz-adv-x="583" d="M457 537h-193v524h-205v168h74q43 0 69.5 10t42 30.5t21.5 51.5t8 72h183v-856z" />
<glyph unicode="&#xba;" horiz-adv-x="768" d="M238 1075q0 -98 42 -149.5t105 -51.5q61 0 103 52.5t42 148.5q0 94 -39.5 146.5t-105.5 52.5t-106.5 -53.5t-40.5 -145.5zM80 1075q0 156 83 249t222 93t221 -93t82 -249q0 -160 -81 -252t-222 -92t-223 92t-82 252z" />
<glyph unicode="&#xbb;" horiz-adv-x="958" d="M535 168v266l194 168l-194 156v270l331 -285v-297zM117 168v266l194 168l-194 156v270l332 -285v-297z" />
<glyph unicode="&#xbc;" horiz-adv-x="1576" d="M1202 358v74q0 29 1 62.5t3 62.5q2 35 4 68h-2q-6 -14 -14 -29q-8 -12 -18.5 -29.5t-20.5 -34.5l-45 -69q-12 -18 -24.5 -36.5t-22.5 -35.5q-12 -18 -23 -33h162zM1380 0h-178v188h-379v129l371 531h186v-490h138v-170h-138v-188zM463 537h-193v524h-204v168h73 q43 0 70 10t42 30.5t21.5 51.5t8.5 72h182v-856zM496 0h-222l732 1393h215z" />
<glyph unicode="&#xbd;" horiz-adv-x="1656" d="M502 0h-221l731 1393h215zM461 537h-193v524h-205v168h74q43 0 69.5 10t42 30.5t21.5 51.5t9 72h182v-856zM981 518q-10 45 -10 78q0 57 20.5 107.5t60.5 88t98 59t132 21.5q135 0 214 -74.5t79 -203.5q0 -72 -27.5 -134.5t-71.5 -113.5t-98.5 -92t-105.5 -72q29 2 76 3 t94 1h139v-186h-614v152q82 57 158.5 114.5t117.5 98.5q47 43 86 101t39 124q0 47 -25.5 74.5t-74.5 27.5q-57 0 -81 -37t-24 -84q0 -23 4 -45t11 -43z" />
<glyph unicode="&#xbe;" horiz-adv-x="1763" d="M1389 358v74q0 29 1 62.5t3 62.5q2 35 4 68h-2q-6 -14 -15 -29q-8 -12 -18 -29.5t-21 -34.5l-45 -69q-12 -18 -24 -36.5t-23 -35.5l-22 -33h162zM1567 0h-178v188h-379v129l370 531h187v-490h137v-170h-137v-188zM680 -6h-221l733 1399h215zM92 1153q0 53 18.5 101.5 t55.5 84t90 57t123 21.5q131 0 205.5 -64.5t74.5 -166.5q0 -61 -25.5 -106.5t-60.5 -67.5q41 -29 73 -75t32 -132q0 -55 -20.5 -103.5t-58.5 -85t-94 -57t-130 -20.5q-147 0 -226 76.5t-83 205.5l192 31q6 -137 117 -137q57 0 79.5 32.5t22.5 69.5q0 23 -8 42.5t-29 31.5 q-35 20 -100 20h-51v160h47q61 0 88 16q43 23 43 78q0 33 -23.5 56.5t-70.5 23.5q-53 0 -77 -32.5t-24 -75.5z" />
<glyph unicode="&#xbf;" horiz-adv-x="999" d="M416 719v256h241v-256h-241zM901 143q23 -41 33 -89t10 -99q0 -80 -29.5 -151.5t-86 -127t-139.5 -87t-187 -31.5q-117 0 -201 32.5t-139.5 88t-81 127t-25.5 149.5q0 106 46 195.5t135 164.5l67 56q35 31 58.5 53t38 45t20.5 47.5t6 58.5v66h221v-78q0 -47 -5 -87 t-21.5 -77t-45 -72.5t-73.5 -72.5l-86 -72q-59 -47 -84 -104.5t-25 -120.5q0 -84 50.5 -137t148.5 -53q100 0 150.5 56t50.5 142q0 55 -19.5 111.5t-50.5 105.5z" />
<glyph unicode="&#xc0;" horiz-adv-x="1259" d="M678 958q-16 49 -28.5 93.5t-22.5 85.5h-2q-10 -39 -22.5 -82t-29.5 -92l-131 -428h365zM264 0h-256l484 1393h278l479 -1393h-264l-106 315h-506zM623 1821l137 -297h-201l-223 297h287z" />
<glyph unicode="&#xc1;" horiz-adv-x="1259" d="M678 958q-16 49 -28.5 93.5t-22.5 85.5h-2q-10 -39 -22.5 -82t-29.5 -92l-131 -428h365zM264 0h-256l484 1393h278l479 -1393h-264l-106 315h-506zM930 1821l-223 -297h-201l137 297h287z" />
<glyph unicode="&#xc2;" horiz-adv-x="1259" d="M678 958q-16 49 -28.5 93.5t-22.5 85.5h-2q-10 -39 -22.5 -82t-29.5 -92l-131 -428h365zM264 0h-256l484 1393h278l479 -1393h-264l-106 315h-506zM522 1524h-227l258 297h164l260 -297h-229l-115 127z" />
<glyph unicode="&#xc3;" horiz-adv-x="1259" d="M678 958q-16 49 -28.5 93.5t-22.5 85.5h-2q-10 -39 -22.5 -82t-29.5 -92l-131 -428h365zM264 0h-256l484 1393h278l479 -1393h-264l-106 315h-506zM979 1763q-16 -39 -35.5 -76.5t-47.5 -68.5t-63.5 -49.5t-84.5 -18.5q-41 0 -72 10.5t-64 26.5q-35 16 -64.5 30.5 t-51.5 14.5q-35 0 -51.5 -28.5t-26.5 -59.5l-150 47q6 25 23.5 62t46.5 70.5t68.5 57t93.5 23.5q39 0 70.5 -12t62.5 -29q29 -16 56.5 -27.5t53.5 -11.5q35 0 56.5 28t31.5 60z" />
<glyph unicode="&#xc4;" horiz-adv-x="1259" d="M678 958q-16 49 -28.5 93.5t-22.5 85.5h-2q-10 -39 -22.5 -82t-29.5 -92l-131 -428h365zM264 0h-256l484 1393h278l479 -1393h-264l-106 315h-506zM729 1784h229v-260h-229v260zM338 1784h229v-260h-229v260z" />
<glyph unicode="&#xc5;" horiz-adv-x="1259" d="M678 958q-16 49 -28.5 93.5t-22.5 85.5h-2q-10 -39 -22.5 -82t-29.5 -92l-131 -428h365zM264 0h-256l484 1393h278l479 -1393h-264l-106 315h-506zM545 1690q0 -35 23.5 -57.5t56.5 -22.5t56.5 22.5t23.5 57.5t-24 57t-56 22q-33 0 -56.5 -22t-23.5 -57zM406 1690 q0 94 63 156.5t158 62.5q94 0 157.5 -62.5t63.5 -156.5t-63.5 -157t-157.5 -63t-157.5 63t-63.5 157z" />
<glyph unicode="&#xc6;" horiz-adv-x="1951" d="M909 942v120t2 85q0 39 2 67h-2q-27 -53 -61.5 -114.5t-75.5 -130.5l-250 -434h385v407zM1831 1393v-219h-676v-345h612v-219h-612v-391h721v-219h-967v336h-497l-199 -336h-262l827 1393h1053z" />
<glyph unicode="&#xc7;" horiz-adv-x="1363" d="M1317 319q-23 -47 -64 -102t-103.5 -106.5t-148.5 -88t-200 -45.5l-33 -38q72 -2 121 -40t49 -116q0 -47 -18.5 -81t-47 -56.5t-67.5 -33.5t-78 -11q-63 0 -115 24l31 94q27 -10 44.5 -12t33.5 -2q37 0 60.5 17.5t23.5 48.5q0 35 -24.5 49t-57.5 14q-35 0 -76 -20l-47 86 l82 77q-145 10 -257 67.5t-187.5 152t-114.5 221.5t-39 278q0 160 46 292t132 227.5t209 148.5t277 53q121 0 213 -32.5t159.5 -82t111.5 -104.5t71 -100l-216 -133q-51 111 -134 171t-205 60q-92 0 -165 -36t-124 -100.5t-78 -157.5t-27 -206q0 -227 102.5 -360t291.5 -133 q119 0 202.5 56t132.5 159z" />
<glyph unicode="&#xc8;" horiz-adv-x="1253" d="M401 1174v-345h662v-219h-662v-391h781v-219h-1026v1393h974v-219h-729zM668 1821l137 -297h-201l-223 297h287z" />
<glyph unicode="&#xc9;" horiz-adv-x="1253" d="M401 1174v-345h662v-219h-662v-391h781v-219h-1026v1393h974v-219h-729zM950 1821l-223 -297h-201l138 297h286z" />
<glyph unicode="&#xca;" horiz-adv-x="1253" d="M401 1174v-345h662v-219h-662v-391h781v-219h-1026v1393h974v-219h-729zM545 1524h-228l258 297h164l260 -297h-229l-115 127z" />
<glyph unicode="&#xcb;" horiz-adv-x="1253" d="M401 1174v-345h662v-219h-662v-391h781v-219h-1026v1393h974v-219h-729zM745 1784h230v-260h-230v260zM354 1784h230v-260h-230v260z" />
<glyph unicode="&#xcc;" horiz-adv-x="557" d="M281 1821l137 -297h-201l-223 297h287zM401 0h-245v1393h245v-1393z" />
<glyph unicode="&#xcd;" horiz-adv-x="557" d="M563 1821l-223 -297h-201l137 297h287zM401 0h-245v1393h245v-1393z" />
<glyph unicode="&#xce;" horiz-adv-x="557" d="M170 1524h-227l258 297h164l260 -297h-230l-114 127zM401 0h-245v1393h245v-1393z" />
<glyph unicode="&#xcf;" horiz-adv-x="557" d="M360 1821h230v-260h-230v260zM-31 1821h230v-260h-230v260zM401 0h-245v1393h245v-1393z" />
<glyph unicode="&#xd0;" horiz-adv-x="1413" d="M416 799h405v-207h-405v-369h162q117 0 205.5 11.5t154.5 72.5q49 51 87 153.5t38 231.5t-36 229.5t-107 161.5q-61 53 -146.5 67.5t-222.5 14.5h-135v-366zM168 0v592h-133v207h133v594h389q84 0 154.5 -2t131 -11.5t115 -29t107.5 -56.5q115 -84 187.5 -236.5 t72.5 -357.5q0 -176 -52 -319t-151 -236q-55 -55 -115.5 -83.5t-129 -43t-148.5 -16.5t-178 -2h-383z" />
<glyph unicode="&#xd1;" horiz-adv-x="1417" d="M915 596q12 -18 27.5 -43t31 -49.5t29 -45t19.5 -32.5q0 16 -1 69.5t-1 124t-1 151.5t-1 155v467h244v-1393h-230l-549 838q-16 25 -31.5 50t-27.5 45.5t-20 34.5l-9 13q0 -25 1 -76t2 -119.5t1 -150.5v-170v-465h-243v1393h229zM1085 1763q-16 -39 -35.5 -76.5 t-47 -68.5t-63.5 -49.5t-85 -18.5q-41 0 -71.5 10.5t-63.5 26.5q-35 16 -64.5 30.5t-52.5 14.5q-35 0 -51 -28.5t-27 -59.5l-149 47q6 25 23.5 62t46 70.5t68.5 57t93 23.5q39 0 71 -12t62 -29q29 -16 56.5 -27.5t54.5 -11.5q35 0 56.5 28t31.5 60z" />
<glyph unicode="&#xd2;" horiz-adv-x="1486" d="M352 696q0 -115 27 -206t77 -156.5t122.5 -100t164.5 -34.5t165 34.5t123 100t77 157t27 205.5q0 113 -27 206t-78 158.5t-122.5 101.5t-164.5 36q-92 0 -163.5 -36t-122.5 -101.5t-78 -158.5t-27 -206zM84 696q0 160 46 292t132 227.5t208 148.5t273 53q152 0 274 -53 t208 -148.5t132 -227.5t46 -292t-43 -292t-127 -227t-207 -148.5t-283 -53.5q-158 0 -280.5 53.5t-206.5 148.5t-128 227t-44 292zM760 1821l137 -297h-201l-223 297h287z" />
<glyph unicode="&#xd3;" horiz-adv-x="1486" d="M352 696q0 -115 27 -206t77 -156.5t122.5 -100t164.5 -34.5t165 34.5t123 100t77 157t27 205.5q0 113 -27 206t-78 158.5t-122.5 101.5t-164.5 36q-92 0 -163.5 -36t-122.5 -101.5t-78 -158.5t-27 -206zM84 696q0 160 46 292t132 227.5t208 148.5t273 53q152 0 274 -53 t208 -148.5t132 -227.5t46 -292t-43 -292t-127 -227t-207 -148.5t-283 -53.5q-158 0 -280.5 53.5t-206.5 148.5t-128 227t-44 292zM1014 1821l-223 -297h-201l137 297h287z" />
<glyph unicode="&#xd4;" horiz-adv-x="1486" d="M352 696q0 -115 27 -206t77 -156.5t122.5 -100t164.5 -34.5t165 34.5t123 100t77 157t27 205.5q0 113 -27 206t-78 158.5t-122.5 101.5t-164.5 36q-92 0 -163.5 -36t-122.5 -101.5t-78 -158.5t-27 -206zM84 696q0 160 46 292t132 227.5t208 148.5t273 53q152 0 274 -53 t208 -148.5t132 -227.5t46 -292t-43 -292t-127 -227t-207 -148.5t-283 -53.5q-158 0 -280.5 53.5t-206.5 148.5t-128 227t-44 292zM635 1526h-227l258 297h163l261 -297h-230l-115 127z" />
<glyph unicode="&#xd5;" horiz-adv-x="1486" d="M352 696q0 -115 27 -206t77 -156.5t122.5 -100t164.5 -34.5t165 34.5t123 100t77 157t27 205.5q0 113 -27 206t-78 158.5t-122.5 101.5t-164.5 36q-92 0 -163.5 -36t-122.5 -101.5t-78 -158.5t-27 -206zM84 696q0 160 46 292t132 227.5t208 148.5t273 53q152 0 274 -53 t208 -148.5t132 -227.5t46 -292t-43 -292t-127 -227t-207 -148.5t-283 -53.5q-158 0 -280.5 53.5t-206.5 148.5t-128 227t-44 292zM1104 1763q-16 -39 -35.5 -76.5t-47.5 -68.5t-63.5 -49.5t-85.5 -18.5q-41 0 -71.5 10.5t-63.5 26.5q-35 16 -64.5 30.5t-51.5 14.5 q-35 0 -51.5 -28.5t-26.5 -59.5l-150 47q6 25 23.5 62t46.5 70.5t68.5 57t93.5 23.5q39 0 70.5 -12t62.5 -29q29 -16 56.5 -27.5t53.5 -11.5q35 0 56.5 28t31.5 60z" />
<glyph unicode="&#xd6;" horiz-adv-x="1486" d="M352 696q0 -115 27 -206t77 -156.5t122.5 -100t164.5 -34.5t165 34.5t123 100t77 157t27 205.5q0 113 -27 206t-78 158.5t-122.5 101.5t-164.5 36q-92 0 -163.5 -36t-122.5 -101.5t-78 -158.5t-27 -206zM84 696q0 160 46 292t132 227.5t208 148.5t273 53q152 0 274 -53 t208 -148.5t132 -227.5t46 -292t-43 -292t-127 -227t-207 -148.5t-283 -53.5q-158 0 -280.5 53.5t-206.5 148.5t-128 227t-44 292zM823 1784h230v-260h-230v260zM432 1784h230v-260h-230v260z" />
<glyph unicode="&#xd7;" horiz-adv-x="1327" d="M506 610l-428 428l155 156l429 -428l432 428l155 -154l-432 -430l432 -432l-155 -155l-432 432l-431 -432l-153 155z" />
<glyph unicode="&#xd8;" horiz-adv-x="1490" d="M356 696q0 -119 29 -217l580 649q-92 70 -217 70q-92 0 -164 -36t-123 -101.5t-78 -158.5t-27 -206zM1139 696q0 141 -41 248l-590 -661q94 -84 240 -84q92 0 164.5 34.5t122.5 100t77 156.5t27 206zM88 696q0 160 46 292t132 227.5t208 148.5t274 53q219 0 376 -110 l150 168l162 -150l-156 -174q61 -92 94 -206t33 -249q0 -160 -43 -292t-127 -227t-207 -148.5t-282 -53.5q-123 0 -224.5 32t-179.5 91l-147 -164l-166 148l164 182q-107 178 -107 432z" />
<glyph unicode="&#xd9;" horiz-adv-x="1368" d="M684 203q98 0 166 33.5t100 109.5q16 35 23.5 84t7.5 152v811h244v-815q0 -76 -4 -133.5t-12.5 -102.5t-23 -81t-32.5 -68q-70 -115 -192.5 -166.5t-276.5 -51.5t-276.5 51.5t-192.5 166.5q-18 33 -32.5 68.5t-22.5 80.5t-12.5 102.5t-4.5 133.5v815h244v-811 q0 -102 7 -151.5t24 -84.5q33 -76 100.5 -109.5t165.5 -33.5zM692 1821l137 -297h-200l-223 297h286z" />
<glyph unicode="&#xda;" horiz-adv-x="1368" d="M684 203q98 0 166 33.5t100 109.5q16 35 23.5 84t7.5 152v811h244v-815q0 -76 -4 -133.5t-12.5 -102.5t-23 -81t-32.5 -68q-70 -115 -192.5 -166.5t-276.5 -51.5t-276.5 51.5t-192.5 166.5q-18 33 -32.5 68.5t-22.5 80.5t-12.5 102.5t-4.5 133.5v815h244v-811 q0 -102 7 -151.5t24 -84.5q33 -76 100.5 -109.5t165.5 -33.5zM963 1821l-224 -297h-200l137 297h287z" />
<glyph unicode="&#xdb;" horiz-adv-x="1368" d="M684 203q98 0 166 33.5t100 109.5q16 35 23.5 84t7.5 152v811h244v-815q0 -76 -4 -133.5t-12.5 -102.5t-23 -81t-32.5 -68q-70 -115 -192.5 -166.5t-276.5 -51.5t-276.5 51.5t-192.5 166.5q-18 33 -32.5 68.5t-22.5 80.5t-12.5 102.5t-4.5 133.5v815h244v-811 q0 -102 7 -151.5t24 -84.5q33 -76 100.5 -109.5t165.5 -33.5zM586 1524h-228l258 297h164l260 -297h-229l-115 127z" />
<glyph unicode="&#xdc;" horiz-adv-x="1368" d="M684 203q98 0 166 33.5t100 109.5q16 35 23.5 84t7.5 152v811h244v-815q0 -76 -4 -133.5t-12.5 -102.5t-23 -81t-32.5 -68q-70 -115 -192.5 -166.5t-276.5 -51.5t-276.5 51.5t-192.5 166.5q-18 33 -32.5 68.5t-22.5 80.5t-12.5 102.5t-4.5 133.5v815h244v-811 q0 -102 7 -151.5t24 -84.5q33 -76 100.5 -109.5t165.5 -33.5zM764 1784h229v-260h-229v260zM373 1784h229v-260h-229v260z" />
<glyph unicode="&#xdd;" horiz-adv-x="1273" d="M756 0h-246v569l-506 824h285l356 -596l363 596h282l-534 -824v-569zM942 1821l-223 -297h-201l137 297h287z" />
<glyph unicode="&#xde;" horiz-adv-x="1234" d="M401 559h246q72 0 116 6t75 21q45 23 70.5 66.5t25.5 103.5q0 57 -25.5 102t-70.5 68q-31 14 -75 20t-116 6h-246v-393zM156 1393h245v-226h220q61 0 121.5 -3t115.5 -13t105.5 -30.5t91.5 -55.5q63 -53 98 -133t35 -176t-35 -178t-98 -136q-41 -35 -91.5 -55 t-105.5 -30.5t-115.5 -13.5t-121.5 -3h-220v-340h-245v1393z" />
<glyph unicode="&#xdf;" horiz-adv-x="1058" d="M485 182q43 -6 74 -6q63 0 100 19.5t55.5 56.5t23.5 88t5 113q0 86 -11 143t-50 86q-16 14 -50 25.5t-97 11.5h-23.5t-26.5 -2v184q14 -2 25.5 -2h24.5q84 0 121.5 36t37.5 128q0 82 -46 120t-122 38q-41 0 -78.5 -15.5t-60.5 -54.5q-16 -29 -20.5 -68t-4.5 -92v-991 h-233v924q0 70 2 118t8 84.5t16.5 63.5t24.5 53q47 90 142.5 132t209.5 42q94 0 168 -25.5t123 -69.5t75 -105.5t26 -133.5q0 -86 -34 -153.5t-93 -102.5q80 -35 131 -120.5t51 -249.5q0 -236 -91 -351.5t-308 -115.5q-23 0 -47.5 1t-47.5 3v188z" />
<glyph unicode="&#xe0;" horiz-adv-x="1062" d="M547 1393l131 -263h-201l-207 263h277zM481 150q96 0 155.5 48t59.5 148v119q-27 -10 -53.5 -17.5t-79.5 -17.5l-90 -18q-84 -16 -122 -43t-38 -86t41 -96t127 -37zM920 223q0 -47 11 -64.5t52 -17.5h12v-153q-10 -2 -34.5 -6.5t-75.5 -4.5q-68 0 -113 21.5t-59 79.5h-2 q-14 -16 -37 -34.5t-57.5 -34t-83 -26t-113.5 -10.5q-72 0 -134.5 18.5t-108.5 55.5t-73.5 95.5t-27.5 138.5q0 55 14 97t41 75q45 53 119 84.5t170 48.5l215 37q39 8 50 15t11 36v16q0 61 -41 92t-133 31q-199 0 -196 -170l-220 14q-2 90 32 153.5t92.5 104.5t136 59.5 t165.5 18.5q84 0 155 -14t123 -48t81 -89.5t29 -134.5v-484z" />
<glyph unicode="&#xe1;" horiz-adv-x="1062" d="M805 1393l-207 -263h-201l131 263h277zM481 150q96 0 155.5 48t59.5 148v119q-27 -10 -53.5 -17.5t-79.5 -17.5l-90 -18q-84 -16 -122 -43t-38 -86t41 -96t127 -37zM920 223q0 -47 11 -64.5t52 -17.5h12v-153q-10 -2 -34.5 -6.5t-75.5 -4.5q-68 0 -113 21.5t-59 79.5h-2 q-14 -16 -37 -34.5t-57.5 -34t-83 -26t-113.5 -10.5q-72 0 -134.5 18.5t-108.5 55.5t-73.5 95.5t-27.5 138.5q0 55 14 97t41 75q45 53 119 84.5t170 48.5l215 37q39 8 50 15t11 36v16q0 61 -41 92t-133 31q-199 0 -196 -170l-220 14q-2 90 32 153.5t92.5 104.5t136 59.5 t165.5 18.5q84 0 155 -14t123 -48t81 -89.5t29 -134.5v-484z" />
<glyph unicode="&#xe2;" horiz-adv-x="1062" d="M481 150q96 0 155.5 48t59.5 148v119q-27 -10 -53.5 -17.5t-79.5 -17.5l-90 -18q-84 -16 -122 -43t-38 -86t41 -96t127 -37zM432 1130h-213l242 263h155l244 -263h-215l-108 103zM920 223q0 -47 11 -64.5t52 -17.5h12v-153q-10 -2 -34.5 -6.5t-75.5 -4.5q-68 0 -113 21.5 t-59 79.5h-2q-14 -16 -37 -34.5t-57.5 -34t-83 -26t-113.5 -10.5q-72 0 -134.5 18.5t-108.5 55.5t-73.5 95.5t-27.5 138.5q0 55 14 97t41 75q45 53 119 84.5t170 48.5l215 37q39 8 50 15t11 36v16q0 61 -41 92t-133 31q-199 0 -196 -170l-220 14q-2 90 32 153.5t92.5 104.5 t136 59.5t165.5 18.5q84 0 155 -14t123 -48t81 -89.5t29 -134.5v-484z" />
<glyph unicode="&#xe3;" horiz-adv-x="1062" d="M481 150q96 0 155.5 48t59.5 148v119q-27 -10 -53.5 -17.5t-79.5 -17.5l-90 -18q-84 -16 -122 -43t-38 -86t41 -96t127 -37zM889 1333q-16 -39 -35.5 -76.5t-47.5 -68.5t-63.5 -49.5t-85.5 -18.5q-41 0 -71.5 10.5t-63.5 26.5q-35 16 -64.5 30.5t-51.5 14.5 q-35 0 -51.5 -28.5t-26.5 -59.5l-150 47q6 25 23.5 62t46 70.5t68.5 57t94 23.5q39 0 70.5 -12t62.5 -29q29 -16 56.5 -27.5t53.5 -11.5q35 0 56.5 28t31.5 60zM920 223q0 -47 11 -64.5t52 -17.5h12v-153q-10 -2 -34.5 -6.5t-75.5 -4.5q-68 0 -113 21.5t-59 79.5h-2 q-14 -16 -37 -34.5t-57.5 -34t-83 -26t-113.5 -10.5q-72 0 -134.5 18.5t-108.5 55.5t-73.5 95.5t-27.5 138.5q0 55 14 97t41 75q45 53 119 84.5t170 48.5l215 37q39 8 50 15t11 36v16q0 61 -41 92t-133 31q-199 0 -196 -170l-220 14q-2 90 32 153.5t92.5 104.5t136 59.5 t165.5 18.5q84 0 155 -14t123 -48t81 -89.5t29 -134.5v-484z" />
<glyph unicode="&#xe4;" horiz-adv-x="1062" d="M621 1372h221v-242h-221v242zM238 1372h221v-242h-221v242zM481 150q96 0 155.5 48t59.5 148v119q-27 -10 -53.5 -17.5t-79.5 -17.5l-90 -18q-84 -16 -122 -43t-38 -86t41 -96t127 -37zM920 223q0 -47 11 -64.5t52 -17.5h12v-153q-10 -2 -34.5 -6.5t-75.5 -4.5 q-68 0 -113 21.5t-59 79.5h-2q-14 -16 -37 -34.5t-57.5 -34t-83 -26t-113.5 -10.5q-72 0 -134.5 18.5t-108.5 55.5t-73.5 95.5t-27.5 138.5q0 55 14 97t41 75q45 53 119 84.5t170 48.5l215 37q39 8 50 15t11 36v16q0 61 -41 92t-133 31q-199 0 -196 -170l-220 14 q-2 90 32 153.5t92.5 104.5t136 59.5t165.5 18.5q84 0 155 -14t123 -48t81 -89.5t29 -134.5v-484z" />
<glyph unicode="&#xe5;" horiz-adv-x="1062" d="M461 1245q0 -31 21.5 -51t49.5 -20q29 0 50.5 20t21.5 51t-21.5 51.5t-50.5 20.5t-50 -20.5t-21 -51.5zM481 150q96 0 155.5 48t59.5 148v119q-27 -10 -53.5 -17.5t-79.5 -17.5l-90 -18q-84 -16 -122 -43t-38 -86t41 -96t127 -37zM334 1245q0 86 57.5 142.5t143.5 56.5 t143 -56.5t57 -142.5t-57 -142t-143 -56t-143.5 56t-57.5 142zM920 223q0 -47 11 -64.5t52 -17.5h12v-153q-10 -2 -34.5 -6.5t-75.5 -4.5q-68 0 -113 21.5t-59 79.5h-2q-14 -16 -37 -34.5t-57.5 -34t-83 -26t-113.5 -10.5q-72 0 -134.5 18.5t-108.5 55.5t-73.5 95.5 t-27.5 138.5q0 55 14 97t41 75q45 53 119 84.5t170 48.5l215 37q39 8 50 15t11 36v16q0 61 -41 92t-133 31q-199 0 -196 -170l-220 14q-2 90 32 153.5t92.5 104.5t136 59.5t165.5 18.5q84 0 155 -14t123 -48t81 -89.5t29 -134.5v-484z" />
<glyph unicode="&#xe6;" horiz-adv-x="1697" d="M481 150q96 0 155.5 48t59.5 148v119q-27 -10 -53.5 -17.5t-79.5 -17.5l-90 -18q-84 -16 -122 -43t-38 -86t41 -96t127 -37zM1165 811q-49 0 -93 -16.5t-76.5 -46t-53 -68.5t-22.5 -82h475q-4 96 -68 154.5t-162 58.5zM854 891q53 45 129 75.5t182 30.5q113 0 199 -39.5 t144.5 -110.5t88 -166t29.5 -208q0 -12 -1 -24.5t-1 -24.5h-711q6 -49 24.5 -94t52.5 -79t82 -54.5t114 -20.5t114 19.5t81.5 46t54 55.5t32.5 47l162 -123q-16 -25 -50 -66.5t-89 -81.5t-134 -69t-186 -29q-68 0 -127 15.5t-105 38t-79 48t-49 46.5q-25 -29 -58.5 -55.5 t-78.5 -48t-104.5 -34t-135.5 -12.5q-78 0 -144.5 18.5t-113.5 56.5t-73.5 96.5t-26.5 138.5q0 72 25.5 123t70.5 86.5t108.5 57t139.5 36.5l215 37q39 8 50 15t11 36v16q0 61 -41 92t-133 31q-199 0 -196 -170l-220 14q-2 90 32 153.5t92.5 104.5t136 59.5t165.5 18.5 q104 0 187.5 -23.5t134.5 -78.5z" />
<glyph unicode="&#xe7;" horiz-adv-x="1034" d="M786 621q-27 78 -82 127t-145 49q-117 0 -185.5 -81t-68.5 -229q0 -147 68.5 -228t185.5 -81q100 0 153.5 50.5t80.5 115.5l188 -100q-16 -39 -49 -84t-83 -85t-120 -69t-158 -31l-39 -36q72 -2 121 -40t49 -116q0 -47 -18 -81t-47 -56.5t-68 -33.5t-77 -11 q-63 0 -115 24l31 94q27 -10 44 -12t33 -2q37 0 60.5 17.5t23.5 48.5q0 35 -24.5 49t-57.5 14q-35 0 -75 -20l-47 86l96 82q-174 27 -280.5 154.5t-106.5 346.5q0 123 36.5 218.5t101 162t153 100t188.5 33.5q86 0 154.5 -21.5t122 -58t91 -87t60.5 -107.5z" />
<glyph unicode="&#xe8;" horiz-adv-x="1085" d="M563 1393l131 -263h-200l-207 263h276zM553 811q-49 0 -93 -16.5t-77 -46t-53.5 -68.5t-22.5 -82h475q-4 96 -67.5 154.5t-161.5 58.5zM1018 221q-16 -25 -50 -66.5t-89.5 -81.5t-134 -69t-185.5 -29q-109 0 -198 37t-153.5 104.5t-99 164t-34.5 215.5q0 113 36.5 205 t101 158.5t152 102t189.5 35.5q113 0 199 -39.5t144 -110.5t88 -166t30 -208q0 -12 -1 -24.5t-1 -24.5h-711q6 -49 24.5 -94t52.5 -79t81 -54.5t112 -20.5q66 0 115 19.5t83 46t54.5 55.5t32.5 47z" />
<glyph unicode="&#xe9;" horiz-adv-x="1085" d="M842 1393l-207 -263h-201l131 263h277zM553 811q-49 0 -93 -16.5t-77 -46t-53.5 -68.5t-22.5 -82h475q-4 96 -67.5 154.5t-161.5 58.5zM1018 221q-16 -25 -50 -66.5t-89.5 -81.5t-134 -69t-185.5 -29q-109 0 -198 37t-153.5 104.5t-99 164t-34.5 215.5q0 113 36.5 205 t101 158.5t152 102t189.5 35.5q113 0 199 -39.5t144 -110.5t88 -166t30 -208q0 -12 -1 -24.5t-1 -24.5h-711q6 -49 24.5 -94t52.5 -79t81 -54.5t112 -20.5q66 0 115 19.5t83 46t54.5 55.5t32.5 47z" />
<glyph unicode="&#xea;" horiz-adv-x="1085" d="M453 1130h-213l241 263h156l244 -263h-215l-109 103zM553 811q-49 0 -93 -16.5t-77 -46t-53.5 -68.5t-22.5 -82h475q-4 96 -67.5 154.5t-161.5 58.5zM1018 221q-16 -25 -50 -66.5t-89.5 -81.5t-134 -69t-185.5 -29q-109 0 -198 37t-153.5 104.5t-99 164t-34.5 215.5 q0 113 36.5 205t101 158.5t152 102t189.5 35.5q113 0 199 -39.5t144 -110.5t88 -166t30 -208q0 -12 -1 -24.5t-1 -24.5h-711q6 -49 24.5 -94t52.5 -79t81 -54.5t112 -20.5q66 0 115 19.5t83 46t54.5 55.5t32.5 47z" />
<glyph unicode="&#xeb;" horiz-adv-x="1085" d="M643 1372h221v-242h-221v242zM260 1372h221v-242h-221v242zM553 811q-49 0 -93 -16.5t-77 -46t-53.5 -68.5t-22.5 -82h475q-4 96 -67.5 154.5t-161.5 58.5zM1018 221q-16 -25 -50 -66.5t-89.5 -81.5t-134 -69t-185.5 -29q-109 0 -198 37t-153.5 104.5t-99 164 t-34.5 215.5q0 113 36.5 205t101 158.5t152 102t189.5 35.5q113 0 199 -39.5t144 -110.5t88 -166t30 -208q0 -12 -1 -24.5t-1 -24.5h-711q6 -49 24.5 -94t52.5 -79t81 -54.5t112 -20.5q66 0 115 19.5t83 46t54.5 55.5t32.5 47z" />
<glyph unicode="&#xec;" horiz-adv-x="491" d="M221 1393l131 -263h-200l-207 263h276zM362 0h-233v975h233v-975z" />
<glyph unicode="&#xed;" horiz-adv-x="491" d="M545 1393l-207 -263h-201l131 263h277zM362 0h-233v975h233v-975z" />
<glyph unicode="&#xee;" horiz-adv-x="491" d="M137 1130h-213l242 263h156l243 -263h-215l-108 103zM362 0h-233v975h233v-975z" />
<glyph unicode="&#xef;" horiz-adv-x="491" d="M332 1372h221v-242h-221v242zM-51 1372h221v-242h-221v242zM362 0h-233v975h233v-975z" />
<glyph unicode="&#xf0;" horiz-adv-x="1107" d="M950 1386l58 -155l-170 -55q86 -141 138 -300t52 -344q0 -117 -29.5 -218t-89 -177t-149.5 -119t-211 -43q-104 0 -191.5 37t-151 105.5t-98 165t-34.5 217.5q0 119 35.5 214t99 160.5t149.5 100.5t189 35q41 0 85 -9.5t91 -29.5q-12 35 -28.5 71.5t-43.5 73.5l-311 -102 l-59 160l264 81q-35 41 -65.5 69t-61.5 56l168 105q53 -53 89 -92t66 -78zM301 502q0 -158 68.5 -246t179.5 -88q115 0 182.5 88t67.5 246t-66.5 238.5t-183.5 80.5q-115 0 -181.5 -81.5t-66.5 -237.5z" />
<glyph unicode="&#xf1;" horiz-adv-x="1114" d="M969 1335q-16 -39 -36 -76.5t-47.5 -68.5t-63.5 -49.5t-85 -18.5q-41 0 -71.5 10.5t-63.5 26.5q-35 16 -64.5 30.5t-52.5 14.5q-35 0 -51 -28.5t-26 -59.5l-150 47q6 25 23.5 62t46 70.5t68.5 57t93 23.5q39 0 71 -12t63 -29q29 -16 56.5 -27.5t53.5 -11.5q35 0 56.5 28 t31.5 60zM995 0h-233v494q0 55 -3 102t-14 84q-16 53 -56 83t-116 30q-111 0 -163 -76t-52 -195v-522h-233v969h233v-119q35 61 114 105t196 44q156 0 241 -94q23 -27 39.5 -54.5t26.5 -67.5t15 -95t5 -135v-553z" />
<glyph unicode="&#xf2;" horiz-adv-x="1122" d="M565 1393l131 -263h-200l-207 263h276zM305 487q0 -147 72 -229t184 -82q113 0 184.5 83t71.5 228q0 147 -69.5 229.5t-186.5 82.5t-186.5 -82.5t-69.5 -229.5zM74 483q0 117 34.5 212.5t98 163t154 103t200.5 35.5q111 0 201 -35.5t153.5 -103t98.5 -163t35 -212.5 t-34 -211t-97.5 -159.5t-153.5 -101.5t-203 -36t-203 36t-153.5 101.5t-97 159.5t-33.5 211z" />
<glyph unicode="&#xf3;" horiz-adv-x="1122" d="M842 1393l-207 -263h-201l131 263h277zM305 487q0 -147 72 -229t184 -82q113 0 184.5 83t71.5 228q0 147 -69.5 229.5t-186.5 82.5t-186.5 -82.5t-69.5 -229.5zM74 483q0 117 34.5 212.5t98 163t154 103t200.5 35.5q111 0 201 -35.5t153.5 -103t98.5 -163t35 -212.5 t-34 -211t-97.5 -159.5t-153.5 -101.5t-203 -36t-203 36t-153.5 101.5t-97 159.5t-33.5 211z" />
<glyph unicode="&#xf4;" horiz-adv-x="1122" d="M461 1130h-213l241 263h156l244 -263h-215l-109 103zM305 487q0 -147 72 -229t184 -82q113 0 184.5 83t71.5 228q0 147 -69.5 229.5t-186.5 82.5t-186.5 -82.5t-69.5 -229.5zM74 483q0 117 34.5 212.5t98 163t154 103t200.5 35.5q111 0 201 -35.5t153.5 -103t98.5 -163 t35 -212.5t-34 -211t-97.5 -159.5t-153.5 -101.5t-203 -36t-203 36t-153.5 101.5t-97 159.5t-33.5 211z" />
<glyph unicode="&#xf5;" horiz-adv-x="1122" d="M924 1333q-16 -39 -36 -76.5t-47.5 -68.5t-63.5 -49.5t-85 -18.5q-41 0 -71.5 10.5t-63.5 26.5q-35 16 -64.5 30.5t-52.5 14.5q-35 0 -51 -28.5t-27 -59.5l-149 47q6 25 23.5 62t46 70.5t68.5 57t93 23.5q39 0 71 -12t63 -29q29 -16 56.5 -27.5t53.5 -11.5q35 0 56.5 28 t31.5 60zM305 487q0 -147 72 -229t184 -82q113 0 184.5 83t71.5 228q0 147 -69.5 229.5t-186.5 82.5t-186.5 -82.5t-69.5 -229.5zM74 483q0 117 34.5 212.5t98 163t154 103t200.5 35.5q111 0 201 -35.5t153.5 -103t98.5 -163t35 -212.5t-34 -211t-97.5 -159.5t-153.5 -101.5 t-203 -36t-203 36t-153.5 101.5t-97 159.5t-33.5 211z" />
<glyph unicode="&#xf6;" horiz-adv-x="1122" d="M639 1372h221v-242h-221v242zM256 1372h221v-242h-221v242zM305 487q0 -147 72 -229t184 -82q113 0 184.5 83t71.5 228q0 147 -69.5 229.5t-186.5 82.5t-186.5 -82.5t-69.5 -229.5zM74 483q0 117 34.5 212.5t98 163t154 103t200.5 35.5q111 0 201 -35.5t153.5 -103 t98.5 -163t35 -212.5t-34 -211t-97.5 -159.5t-153.5 -101.5t-203 -36t-203 36t-153.5 101.5t-97 159.5t-33.5 211z" />
<glyph unicode="&#xf7;" horiz-adv-x="1552" d="M907 975v-270h-264v270h264zM907 270v-270h-264v270h264zM88 379v217h1376v-217h-1376z" />
<glyph unicode="&#xf8;" horiz-adv-x="1122" d="M305 487q0 -74 19 -131l329 426q-45 16 -92 17q-117 0 -186.5 -82.5t-69.5 -229.5zM817 487q0 39 -5 74t-15 64l-332 -430q43 -18 96 -19q113 0 184.5 83t71.5 228zM74 483q0 117 34.5 212.5t98 163t154 103t200.5 35.5q123 0 221 -47l113 146l162 -131l-111 -144 q49 -66 76 -150.5t27 -187.5q0 -117 -34 -211t-97.5 -159.5t-153.5 -101.5t-203 -36q-125 0 -227 45l-90 -116l-168 131l92 121q-94 128 -94 327z" />
<glyph unicode="&#xf9;" horiz-adv-x="1097" d="M567 1393l131 -263h-200l-207 263h276zM119 975h233v-518q0 -53 4 -101.5t21 -87.5q16 -39 52 -62.5t97 -23.5q111 0 160 76t49 195v522h234v-975h-234v125q-35 -61 -110.5 -105.5t-180.5 -44.5q-74 0 -135 24t-104 71q-23 27 -39 54.5t-26.5 67t-15.5 95t-5 135.5v553z " />
<glyph unicode="&#xfa;" horiz-adv-x="1097" d="M827 1393l-206 -263h-201l131 263h276zM119 975h233v-518q0 -53 4 -101.5t21 -87.5q16 -39 52 -62.5t97 -23.5q111 0 160 76t49 195v522h234v-975h-234v125q-35 -61 -110.5 -105.5t-180.5 -44.5q-74 0 -135 24t-104 71q-23 27 -39 54.5t-26.5 67t-15.5 95t-5 135.5v553z " />
<glyph unicode="&#xfb;" horiz-adv-x="1097" d="M444 1130h-213l242 263h156l243 -263h-215l-108 103zM119 975h233v-518q0 -53 4 -101.5t21 -87.5q16 -39 52 -62.5t97 -23.5q111 0 160 76t49 195v522h234v-975h-234v125q-35 -61 -110.5 -105.5t-180.5 -44.5q-74 0 -135 24t-104 71q-23 27 -39 54.5t-26.5 67t-15.5 95 t-5 135.5v553z" />
<glyph unicode="&#xfc;" horiz-adv-x="1097" d="M639 1372h221v-242h-221v242zM256 1372h221v-242h-221v242zM119 975h233v-518q0 -53 4 -101.5t21 -87.5q16 -39 52 -62.5t97 -23.5q111 0 160 76t49 195v522h234v-975h-234v125q-35 -61 -110.5 -105.5t-180.5 -44.5q-74 0 -135 24t-104 71q-23 27 -39 54.5t-26.5 67 t-15.5 95t-5 135.5v553z" />
<glyph unicode="&#xfd;" horiz-adv-x="929" d="M743 1393l-206 -263h-201l131 263h276zM893 975l-326 -1092q-25 -82 -48 -131t-54 -82q-39 -41 -92.5 -58.5t-134.5 -17.5q-47 0 -76 4.5t-51 8.5v190q18 -4 37.5 -7t41.5 -3q76 0 107 31.5t49 91.5l16 59l-350 1006h244l160 -526q10 -35 19 -70t18 -64q8 -35 16 -67h2 q6 31 14 65q6 29 15.5 65t19.5 71l139 526h234z" />
<glyph unicode="&#xfe;" horiz-adv-x="1155" d="M352 487q0 -141 68.5 -225t179.5 -84q113 0 180.5 82t67.5 227q0 147 -67.5 229.5t-180.5 82.5q-111 0 -179.5 -85.5t-68.5 -226.5zM649 -25q-96 0 -167.5 36t-119.5 91v-489h-233v1780h233v-525q41 53 116 92t171 39q98 0 178 -37.5t136.5 -106.5t87 -164t30.5 -208 q0 -111 -30.5 -204t-88 -160.5t-136.5 -105.5t-177 -38z" />
<glyph unicode="&#xff;" horiz-adv-x="929" d="M893 975l-326 -1092q-25 -82 -48 -131t-54 -82q-39 -41 -92.5 -58.5t-134.5 -17.5q-47 0 -76 4.5t-51 8.5v190q18 -4 37.5 -7t41.5 -3q76 0 107 31.5t49 91.5l16 59l-350 1006h244l160 -526q10 -35 19 -70t18 -64q8 -35 16 -67h2q6 31 14 65q6 29 15.5 65t19.5 71 l139 526h234zM551 1391h229v-261h-229v261zM160 1391h229v-261h-229v261z" />
<glyph unicode="&#x132;" horiz-adv-x="1329" d="M1182 1393v-969q0 -86 -9.5 -161t-50.5 -132q-29 -39 -69.5 -66.5t-91 -46t-105.5 -26.5t-111 -8q-39 0 -77.5 2t-77.5 12v219q55 -12 123 -12q66 0 107.5 14t66.5 41q29 35 39 85t10 142v906h246zM401 0h-245v1393h245v-1393z" />
<glyph unicode="&#x133;" horiz-adv-x="991" d="M862 1155h-233v238h233v-238zM862 975v-1071q0 -82 -4 -116t-14 -60q-18 -45 -53 -73t-77 -42t-89 -18.5t-90 -4.5h-27.5t-36.5 2v195q33 2 61.5 5t50 14.5t34 34t12.5 63.5v1071h233zM362 1155h-233v238h233v-238zM362 0h-233v975h233v-975z" />
<glyph unicode="&#x152;" horiz-adv-x="1947" d="M987 0q-53 -10 -111.5 -15t-113.5 -5q-154 0 -279 44t-213 132t-136 217t-48 301q0 164 47 294t134 220t213 138t284 48q55 0 111.5 -5t111.5 -15h838v-207h-695v-344h633v-199h-633v-395h742v-209h-885zM909 1147q-80 12 -141 12q-102 0 -184 -28.5t-141.5 -88 t-91.5 -150.5t-32 -214t35 -215t96.5 -153.5t143.5 -92.5t176 -31q96 0 139 13v948z" />
<glyph unicode="&#x153;" horiz-adv-x="1800" d="M1268 811q-49 0 -93.5 -16.5t-77 -46t-53 -68.5t-22.5 -82h475q-4 96 -67.5 154.5t-161.5 58.5zM305 487q0 -147 72 -229t184 -82q113 0 184.5 83t71.5 228q0 147 -69.5 229.5t-186.5 82.5t-186.5 -82.5t-69.5 -229.5zM1733 221q-16 -25 -50 -66.5t-89.5 -81.5 t-134.5 -69t-185 -29q-111 0 -199 37t-153 105q-66 -68 -157 -105t-204 -37t-203 36t-153.5 101.5t-97 160t-33.5 210.5q0 117 34.5 212.5t98 163t154 103t200.5 35.5q229 0 359 -145q66 70 154.5 107.5t193.5 37.5q113 0 198.5 -39.5t144 -110.5t88.5 -166t30 -208 q0 -12 -1.5 -24.5t-1.5 -24.5h-710q6 -49 24.5 -94t52 -79t82 -54.5t113.5 -20.5q66 0 114 19.5t82 46t54.5 55.5t32.5 47z" />
<glyph unicode="&#x178;" horiz-adv-x="1273" d="M733 1784h230v-260h-230v260zM342 1784h229v-260h-229v260zM756 0h-246v569l-506 824h285l356 -596l363 596h282l-534 -824v-569z" />
<glyph unicode="&#x2c6;" horiz-adv-x="1024" d="M403 1130h-213l242 263h156l243 -263h-215l-108 103z" />
<glyph unicode="&#x2dc;" horiz-adv-x="1024" d="M870 1333q-16 -39 -35.5 -76.5t-47 -68.5t-63.5 -49.5t-85 -18.5q-41 0 -71.5 10.5t-63.5 26.5q-35 16 -64.5 30.5t-52.5 14.5q-35 0 -51.5 -28.5t-26.5 -59.5l-149 47q6 25 23.5 62t46 70.5t68.5 57t93 23.5q39 0 71 -12t62 -29q29 -16 56.5 -27.5t54.5 -11.5 q35 0 56.5 28t31.5 60z" />
<glyph unicode="&#x2000;" horiz-adv-x="954" />
<glyph unicode="&#x2001;" horiz-adv-x="1909" />
<glyph unicode="&#x2002;" horiz-adv-x="954" />
<glyph unicode="&#x2003;" horiz-adv-x="1909" />
<glyph unicode="&#x2004;" horiz-adv-x="636" />
<glyph unicode="&#x2005;" horiz-adv-x="477" />
<glyph unicode="&#x2006;" horiz-adv-x="318" />
<glyph unicode="&#x2007;" horiz-adv-x="318" />
<glyph unicode="&#x2008;" horiz-adv-x="238" />
<glyph unicode="&#x2009;" horiz-adv-x="381" />
<glyph unicode="&#x200a;" horiz-adv-x="106" />
<glyph unicode="&#x2010;" horiz-adv-x="833" d="M125 438v221h584v-221h-584z" />
<glyph unicode="&#x2011;" horiz-adv-x="833" d="M125 438v221h584v-221h-584z" />
<glyph unicode="&#x2012;" horiz-adv-x="833" d="M125 438v221h584v-221h-584z" />
<glyph unicode="&#x2013;" horiz-adv-x="1284" d="M121 432v227h1042v-227h-1042z" />
<glyph unicode="&#x2014;" horiz-adv-x="1673" d="M121 432v227h1431v-227h-1431z" />
<glyph unicode="&#x2018;" horiz-adv-x="483" d="M106 842v209q0 29 1.5 60.5t3.5 55.5q6 55 20 100.5t43 77t77 49t120 19.5v-133q-57 -4 -87 -32.5t-30 -112.5v-25h117v-268h-265z" />
<glyph unicode="&#x2019;" horiz-adv-x="475" d="M379 1393v-209q0 -29 -1 -60.5t-3 -56.5q-6 -55 -20.5 -100t-43 -77t-77 -49.5t-119.5 -19.5v133q57 4 86.5 33t29.5 113v24h-116v269h264z" />
<glyph unicode="&#x201a;" horiz-adv-x="493" d="M379 268v-209q0 -29 -1 -60.5t-3 -55.5q-6 -55 -20.5 -100.5t-43 -77t-77 -49t-119.5 -19.5v133q57 4 86.5 32.5t29.5 112.5v25h-116v268h264z" />
<glyph unicode="&#x201c;" horiz-adv-x="851" d="M106 842v209q0 29 1.5 60.5t3.5 55.5q6 55 20 100.5t43 77t77 49t120 19.5v-133q-57 -4 -87 -32.5t-30 -112.5v-25h117v-268h-265zM475 842v209q0 29 1 60.5t3 55.5q6 55 20.5 100.5t43 77t77 49t119.5 19.5v-133q-57 -4 -86.5 -32.5t-29.5 -112.5v-25h116v-268h-264z " />
<glyph unicode="&#x201d;" horiz-adv-x="843" d="M748 1393v-209q0 -29 -1.5 -60.5t-3.5 -56.5q-6 -55 -20 -100t-43 -77t-77 -49.5t-120 -19.5v133q57 4 87 33t30 113v24h-117v269h265zM379 1393v-209q0 -29 -1 -60.5t-3 -56.5q-6 -55 -20.5 -100t-43 -77t-77 -49.5t-119.5 -19.5v133q57 4 86.5 33t29.5 113v24h-116v269 h264z" />
<glyph unicode="&#x201e;" horiz-adv-x="862" d="M748 268v-209q0 -29 -1.5 -60.5t-3.5 -55.5q-6 -55 -20 -100.5t-43 -77t-77 -49t-120 -19.5v133q57 4 87 32.5t30 112.5v25h-117v268h265zM379 268v-209q0 -29 -1 -60.5t-3 -55.5q-6 -55 -20.5 -100.5t-43 -77t-77 -49t-119.5 -19.5v133q57 4 86.5 32.5t29.5 112.5v25 h-116v268h264z" />
<glyph unicode="&#x2022;" horiz-adv-x="864" d="M125 682q0 63 24.5 120.5t65.5 98.5t97.5 65.5t119.5 24.5t119.5 -24.5t98.5 -65.5t65.5 -98.5t23.5 -120.5t-23.5 -119.5t-65.5 -97.5t-98 -65.5t-120 -24.5q-63 0 -119.5 24.5t-97.5 65.5t-65.5 97.5t-24.5 119.5z" />
<glyph unicode="&#x2026;" horiz-adv-x="1859" d="M1747 270v-270h-264v270h264zM1061 270v-270h-264v270h264zM377 270v-270h-264v270h264z" />
<glyph unicode="&#x202f;" horiz-adv-x="381" />
<glyph unicode="&#x2030;" horiz-adv-x="2670" d="M1608 412q0 125 -31 196.5t-96 71.5q-66 0 -94.5 -71.5t-28.5 -182.5q0 -53 6 -100t20.5 -82t38 -54.5t58.5 -19.5q72 0 99.5 68t27.5 174zM1808 414q0 -84 -18 -161t-58 -136.5t-102.5 -95t-150.5 -35.5q-92 0 -154.5 35.5t-101.5 96t-55.5 137.5t-16.5 159 q0 80 15.5 159.5t52 145t101 106.5t163.5 41q102 0 165.5 -43t99.5 -108.5t48 -146t12 -154.5zM668 0h-222l732 1393h215zM520 963q0 125 -30.5 196.5t-96.5 71.5t-94.5 -72t-28.5 -182q0 -53 6.5 -100.5t20.5 -82t37.5 -54t58.5 -19.5q72 0 99.5 68t27.5 174zM721 965 q0 -84 -18.5 -161t-58.5 -136.5t-102.5 -95t-150.5 -35.5q-92 0 -154.5 35.5t-101.5 96t-55.5 137.5t-16.5 159q0 80 15.5 159.5t52.5 145t101.5 106.5t162.5 41q102 0 166 -43t99.5 -108.5t48 -146t12.5 -154.5zM2406 412q0 125 -30.5 196.5t-96.5 71.5t-94 -71.5 t-28 -182.5q0 -53 6 -100t20.5 -82t38 -54.5t57.5 -19.5q72 0 99.5 68t27.5 174zM2607 414q0 -84 -18.5 -161t-58.5 -136.5t-102.5 -95t-150.5 -35.5q-92 0 -154.5 35.5t-101.5 96t-55 137.5t-16 159q0 80 15 159.5t52 145t101.5 106.5t162.5 41q102 0 166 -43t100 -108.5 t48 -146t12 -154.5z" />
<glyph unicode="&#x2039;" horiz-adv-x="540" d="M92 446v297l332 285v-270l-195 -156l195 -168v-266z" />
<glyph unicode="&#x203a;" horiz-adv-x="540" d="M117 168v266l194 168l-194 156v270l332 -285v-297z" />
<glyph unicode="&#x205f;" horiz-adv-x="477" />
<glyph unicode="&#x20ac;" horiz-adv-x="1265" d="M1192 319q-23 -72 -59.5 -135t-92 -109t-131 -73t-174.5 -27q-109 0 -190.5 33t-141 91.5t-96.5 138t-55 174.5h-191l68 200h94v129h-155l67 201h111q16 92 53 179t96.5 153.5t145.5 106.5t200 40q90 0 163 -26.5t128 -72.5t93 -107.5t59 -131.5l-201 -118 q-23 104 -80 170.5t-162 66.5q-55 0 -96 -20.5t-69.5 -55t-48 -82t-27.5 -102.5h444l-67 -201h-398v-129h359l-68 -200h-262q23 -94 74 -155.5t159 -61.5q51 0 89 16t66 44t46.5 65.5t30.5 80.5z" />
<glyph unicode="&#x2122;" horiz-adv-x="1798" d="M1483 512v324v70.5t2 64.5q0 35 2 67h-4q-10 -33 -19 -67q-10 -29 -20 -66t-21 -71l-98 -322h-139l-111 344q-10 29 -18 61.5t-17 61.5q-8 33 -16 63h-4q0 -39 2 -75q0 -31 1 -65t1 -56v-334h-174v881h215l113 -318q16 -49 30.5 -94t24.5 -80q12 -39 22 -74h5 q8 35 27.5 107t41.5 141l105 318h221v-881h-172zM102 1393h674v-170h-246v-707h-182v707h-246v170z" />
<glyph unicode="&#x2190;" horiz-adv-x="1642" d="M1550 385h-1104l402 -385h-291l-485 487l485 486h291l-402 -383h1104v-205z" />
<glyph unicode="&#x2192;" horiz-adv-x="1642" d="M1085 973l486 -486l-486 -487h-290l401 385h-1104v205h1102l-399 383h290z" />
<glyph unicode="&#x25fc;" horiz-adv-x="972" d="M0 973h973v-973h-973v973z" />
<glyph horiz-adv-x="1953" d="M1806 586h-1357l595 -586h-286l-697 696l697 697h286l-598 -588h1141v588h219v-807z" />
<glyph horiz-adv-x="1249" d="M901 686q0 90 -12 181t-43 164t-83 119t-134 46t-136.5 -46t-86 -119t-44 -164t-12.5 -181q0 -88 12.5 -176t44 -157.5t86 -112.5t136.5 -43t135 43t84 112.5t42 157.5t11 176zM1157 690q0 -133 -24.5 -261t-85 -229.5t-162 -163t-256.5 -61.5q-147 0 -250 56.5t-166 154 t-92 227.5t-29 277q0 125 26.5 255t89 234.5t166 171t255.5 66.5q145 0 245.5 -61.5t164 -162.5t91 -232.5t27.5 -270.5z" />
<glyph horiz-adv-x="813" d="M657 0h-235v909h-383v187h74q84 0 140 15t97 44q100 74 107 238h200v-1393z" />
<glyph horiz-adv-x="1175" d="M127 848q-10 29 -17.5 63.5t-7.5 83.5q0 92 35 169t99.5 133.5t155.5 88t202 31.5q106 0 192 -30.5t147.5 -88t94.5 -136.5t33 -177q0 -119 -49 -220t-127 -190.5t-172.5 -167t-186.5 -145.5l-63 -49v-2h55q29 0 69 1t93 1h414v-213h-1010v190q43 29 86 60t93 69.5 t110.5 90t136.5 118.5q66 57 120 108.5t92 103t59.5 107.5t21.5 124q0 106 -61.5 169.5t-168.5 63.5q-59 0 -102 -20.5t-70.5 -56t-42 -82t-14.5 -95.5q0 -68 23 -135z" />
<glyph horiz-adv-x="1165" d="M313 444q14 -125 76 -195.5t182 -70.5q68 0 115 20.5t77 54.5t44 76t14 85q0 156 -155 202q-37 10 -81 12.5t-93 2.5h-93v198h113q41 0 75 2.5t62 10.5q72 18 108 68.5t36 115.5q0 37 -13.5 73t-40 62.5t-69.5 43t-101 16.5q-68 0 -113.5 -23.5t-73.5 -58.5t-40 -77 t-14 -79l-224 37q2 80 33 152.5t91.5 127t148.5 86t205 31.5q111 0 194.5 -26.5t142 -73.5t88 -112.5t29.5 -141.5q0 -63 -18.5 -113.5t-49 -89.5t-69.5 -67.5t-78 -47.5q43 -16 89 -41.5t83 -66.5t60.5 -100.5t23.5 -139.5q0 -90 -33.5 -166.5t-98 -134t-158 -89.5 t-214.5 -32q-125 0 -216 32t-152.5 88.5t-95 136t-41.5 178.5z" />
<glyph horiz-adv-x="1177" d="M1128 508v-203h-219v-305h-231v305h-639v182l635 906h235v-885h219zM678 508v211q0 43 1 98t3 108.5t4 100.5t4 76h-2q-23 -47 -72 -127t-114 -176l-205 -291h381z" />
<glyph horiz-adv-x="1155" d="M100 614l107 779h805l-21 -217h-596l-49 -314q10 12 33.5 27.5t58.5 31t82 25.5t105 10q102 0 186 -32.5t144.5 -93t93 -147.5t32.5 -198q0 -104 -31.5 -197t-95 -163t-160 -110t-225.5 -40q-197 0 -331 94.5t-168 266.5l241 63q18 -92 83 -153.5t173 -61.5 q133 0 194.5 81t61.5 208q0 123 -62.5 204t-195.5 81q-100 0 -161.5 -53.5t-84.5 -139.5z" />
<glyph horiz-adv-x="1218" d="M866 467q0 115 -64.5 181.5t-180.5 66.5q-51 0 -94.5 -14.5t-77 -35t-57 -44t-34.5 -41.5q0 -61 12.5 -131t43 -128.5t81 -96.5t126.5 -38q111 0 178 76t67 205zM872 987q-8 33 -24.5 72t-45 72.5t-71.5 56t-102 22.5q-68 0 -119 -33.5t-85 -89t-51.5 -128t-19.5 -150.5 q18 18 47 39.5t69 39t89 30t111 12.5q92 0 174 -28t145.5 -84t100 -140t36.5 -197q0 -115 -34.5 -208t-100 -159.5t-160 -102.5t-210.5 -36q-123 0 -220.5 42t-165 129t-104.5 219.5t-37 314.5q0 174 35 311t104.5 231.5t171 144.5t234.5 50q111 0 192.5 -30.5t138 -83 t89.5 -122t49 -145.5z" />
<glyph horiz-adv-x="1136" d="M330 0q16 98 42.5 197.5t61.5 201.5q72 211 173.5 403.5t223.5 373.5h-536v-263h-232v480h1049v-201q-211 -260 -339 -561t-171 -631h-272z" />
<glyph horiz-adv-x="1220" d="M610 618q-131 0 -201.5 -58t-70.5 -152q0 -98 73.5 -158t198.5 -60q123 0 198 54.5t75 165.5q0 94 -72 151t-201 57zM610 1210q-66 0 -111.5 -16t-74.5 -44t-43 -62.5t-14 -73.5q0 -37 14 -73t45 -65.5t77 -47t107 -17.5t107.5 17.5t77 47t45 65.5t14.5 73 q0 39 -14.5 73.5t-43 62.5t-76 44t-110.5 16zM610 -25q-244 0 -382 110t-138 302q0 123 61.5 204t176.5 124q-39 18 -75 43.5t-63.5 64.5t-44 90.5t-16.5 118.5q0 82 33 152.5t95 123t151.5 81t201.5 28.5q113 0 202 -28.5t151.5 -81t95.5 -123t33 -152.5q0 -68 -16.5 -119 t-44 -90t-63.5 -64.5t-75 -43.5q115 -43 176 -124t61 -204q0 -193 -138 -302.5t-382 -109.5z" />
<glyph horiz-adv-x="1216" d="M352 928q0 -115 64.5 -181.5t181.5 -66.5q51 0 94 14.5t77 35t57.5 44t33.5 41.5q0 61 -12 130t-43 127t-81 97t-126 39q-111 0 -178.5 -75.5t-67.5 -204.5zM346 406q8 -33 24.5 -72t45 -72t71.5 -55.5t103 -22.5q68 0 119 34t84.5 89t51 127t19.5 150q-18 -18 -47 -40 t-68.5 -39.5t-89 -29.5t-110.5 -12q-92 0 -174 27.5t-145.5 84t-100.5 140.5t-37 196q0 115 35 208t100.5 160t159.5 102.5t211 35.5q123 0 220 -42t165 -129t104.5 -220t36.5 -313q0 -174 -34.5 -311.5t-104.5 -231.5t-171 -144.5t-234 -50.5q-111 0 -193 31t-138 83 t-90 121t-48 146z" />
<glyph horiz-adv-x="1699" d="M1026 702q-23 -10 -68 -18t-84 -18q-82 -16 -132 -37t-50 -80t41 -88t107 -29q59 0 104 21.5t66 66.5q8 14 12 31.5t4 50.5v100zM1280 424q41 0 72.5 29.5t53 79t33 114t11.5 135.5q0 104 -30.5 206t-98.5 181.5t-173.5 128t-252.5 48.5q-158 0 -276.5 -55.5 t-197.5 -145.5t-119 -206t-40 -237q0 -158 51.5 -279.5t138.5 -205.5t204.5 -128t250.5 -44q170 0 316.5 65.5t269.5 206.5l88 -131q-137 -150 -312 -221t-370 -71q-168 0 -316.5 50t-260 150.5t-177 252t-65.5 351.5q0 164 56.5 309.5t163 255t257 173t338.5 63.5 q186 0 322.5 -61.5t224.5 -159.5t131 -222t43 -249q0 -109 -21.5 -206t-66.5 -170t-117 -115t-172 -42q-74 0 -130 25t-67 68h-2q-12 -12 -32.5 -28.5t-50 -30t-71.5 -24t-98 -10.5q-57 0 -111 15.5t-95 48.5t-67 83t-26 122q0 63 21.5 108t61.5 76t94.5 49.5t121.5 30.5 l185 33q35 6 45 14t10 33v12q0 106 -151 107q-174 0 -172 -148l-189 10q0 78 28.5 133.5t79 91t118 52t143.5 16.5q72 0 133 -13t105 -42t70 -78t26 -119v-407q0 -78 61 -78z" />
<glyph horiz-adv-x="509" d="M139 1536h232v-1718h-232v1718z" />
<glyph horiz-adv-x="1339" d="M780 82h-219v504h-498v217h498v502h219v-502h496v-217h-496v-504z" />
<glyph horiz-adv-x="1429" d="M825 360h-219v322h-497v217h497v406h219v-406h496v-217h-496v-322zM109 82v217h1212v-217h-1212z" />
<glyph horiz-adv-x="1327" d="M506 698l-428 428l155 156l429 -428l432 428l155 -154l-432 -430l432 -432l-155 -155l-432 432l-431 -432l-153 155z" />
<glyph horiz-adv-x="1560" d="M911 1184v-271h-264v271h264zM911 479v-270h-264v270h264zM92 588v217h1376v-217h-1376z" />
<glyph horiz-adv-x="1654" d="M1511 422h-1380v180h1380v-180zM1511 762h-1380v180h1380v-180z" />
<glyph horiz-adv-x="1138" d="M1012 408h-234v368h-700v197h934v-565z" />
<glyph horiz-adv-x="581" d="M338 -207q-127 211 -192.5 427t-65.5 458q0 227 63.5 452.5t180.5 425.5l221 -26q-115 -209 -175.5 -416t-60.5 -418t60.5 -433t183.5 -443z" />
<glyph horiz-adv-x="581" d="M29 -180q123 221 183 443t60 433t-60 418t-175 416l221 26q117 -201 180.5 -426t63.5 -452q0 -242 -65.5 -458t-192.5 -427z" />
<glyph horiz-adv-x="823" d="M119 582v221h583v-221h-583z" />
<glyph horiz-adv-x="624" d="M561 -182h-422v1718h422v-174h-190v-1368h190v-176z" />
<glyph horiz-adv-x="624" d="M63 -6h191v1368h-191v174h422v-1718h-422v176z" />
<glyph horiz-adv-x="628" d="M68 760q41 12 62.5 27.5t31.5 39t12 56t2 75.5v261q0 100 15.5 162.5t55.5 97t108.5 46t172.5 11.5h33v-170q-49 0 -78.5 -8t-47 -26.5t-22.5 -48.5t-5 -75v-188q0 -80 -3.5 -136.5t-15.5 -96t-34.5 -63.5t-61.5 -38v-4q39 -14 61.5 -37.5t34.5 -63.5t15.5 -96.5 t3.5 -136.5v-203q0 -45 5 -74.5t22.5 -48t47 -26.5t78.5 -8v-170h-33q-104 0 -172.5 11t-108.5 46t-55.5 96.5t-15.5 163.5v275q0 43 -2 75.5t-12 56t-31.5 39t-62.5 27.5v152z" />
<glyph horiz-adv-x="626" d="M561 608q-41 -12 -62.5 -27.5t-31.5 -39t-12 -56t-2 -75.5v-275q0 -102 -16.5 -163.5t-56.5 -96.5t-107.5 -46t-172.5 -11h-32v170q49 0 78.5 8t47 26.5t22.5 48t5 74.5v203q0 80 3 136.5t15.5 96.5t35 63.5t61.5 37.5v4q-39 14 -61.5 38t-35 63.5t-15.5 96t-3 136.5v188 q0 45 -5 75t-22.5 48.5t-47 26.5t-78.5 8v170h32q104 0 172 -11.5t108 -46t56.5 -97t16.5 -162.5v-261q0 -43 2 -75.5t12 -56t31.5 -39t62.5 -27.5v-152z" />
<glyph horiz-adv-x="960" d="M92 508v297l332 285v-271l-195 -155l195 -168v-267zM510 508v297l332 285v-271l-195 -155l195 -168v-267z" />
<glyph horiz-adv-x="821" d="M119 582v221h583v-221h-583z" />
<glyph horiz-adv-x="960" d="M537 229v267l194 168l-194 155v271l331 -285v-297zM119 229v267l194 168l-194 155v271l332 -285v-297z" />
<glyph horiz-adv-x="1280" d="M119 575v228h1042v-228h-1042z" />
<glyph horiz-adv-x="1669" d="M119 575v228h1431v-228h-1431z" />
<glyph horiz-adv-x="542" d="M92 508v297l332 285v-271l-195 -155l195 -168v-267z" />
<glyph horiz-adv-x="542" d="M119 229v267l194 168l-194 155v271l332 -285v-297z" />
<glyph horiz-adv-x="518" d="M143 479h232v-661h-232v661zM143 1536h232v-662h-232v662z" />
<glyph horiz-adv-x="1908" d="M1806 586h-1357l595 -586h-286l-697 696l697 697h286l-598 -588h1360v-219z" />
<glyph horiz-adv-x="1908" d="M1151 1393l696 -697l-696 -696h-287l596 586h-1358v219h1360l-598 588h287z" />
<glyph horiz-adv-x="491" d="M362 1155h-233v238h233v-238zM362 0h-233v975h233v-975z" />
<glyph d="M881 686q0 90 -12.5 181t-43 164t-83 119t-134.5 46t-136 -46t-86 -119t-44 -164t-12 -181q0 -88 12 -176t44 -157.5t86 -112.5t136 -43t135.5 43t84 112.5t42 157.5t11.5 176zM1137 690q0 -133 -25 -261t-85 -229.5t-161.5 -163t-257.5 -61.5q-147 0 -249.5 56.5 t-166 154t-92 227.5t-28.5 277q0 125 26.5 255t89 234.5t166 171t254.5 66.5q145 0 245.5 -61.5t164 -162.5t91.5 -232.5t28 -270.5z" />
<glyph d="M487 229q53 -33 121 -32q82 0 135.5 43t84 112.5t42 157.5t11.5 176q0 51 -3.5 103.5t-13.5 101.5zM752 1141q-59 55 -144 55q-82 0 -136 -46t-86 -119t-44 -164t-12 -181q0 -63 6 -125.5t20 -120.5zM1137 690q0 -133 -25 -261t-85 -229.5t-161.5 -163t-257.5 -61.5 q-147 0 -249.5 56.5t-166 154t-92 227.5t-28.5 277q0 125 26.5 255t89 234.5t166 171t254.5 66.5q145 0 245.5 -61.5t164 -162.5t91.5 -232.5t28 -270.5z" />
<glyph d="M854 0h-236v909h-382v187h73q84 0 140.5 15t97.5 44q100 74 106 238h201v-1393z" />
<glyph d="M141 848q-10 29 -17 63.5t-7 83.5q0 92 34.5 169t99 133.5t156 88t201.5 31.5q106 0 192.5 -30.5t148 -88t94 -136.5t32.5 -177q0 -119 -49 -220t-127 -190.5t-172 -167t-186 -145.5l-64 -49v-2h55q29 0 69 1t93 1h414v-213h-1010v190q43 29 86 60t93.5 69.5t111 90 t135.5 118.5q66 57 120 108.5t92 103t59.5 107.5t21.5 124q0 106 -61.5 169.5t-167.5 63.5q-59 0 -102.5 -20.5t-71 -56t-42 -82t-14.5 -95.5q0 -68 23 -135z" />
<glyph d="M334 444q14 -125 75.5 -195.5t182.5 -70.5q68 0 115 20.5t76.5 54.5t44 76t14.5 85q0 156 -156 202q-37 10 -81 12.5t-93 2.5h-92v198h112q41 0 75 2.5t63 10.5q72 18 107.5 68.5t35.5 115.5q0 37 -13.5 73t-40 62.5t-69.5 43t-100 16.5q-68 0 -114 -23.5t-73.5 -58.5 t-40 -77t-14.5 -79l-223 37q2 80 32.5 152.5t91 127t148.5 86t205 31.5q111 0 195 -26.5t142 -73.5t88 -112.5t30 -141.5q0 -63 -18.5 -113.5t-49.5 -89.5t-69.5 -67.5t-77.5 -47.5q43 -16 89 -41.5t83 -66.5t60.5 -100.5t23.5 -139.5q0 -90 -34 -166.5t-98.5 -134 t-157.5 -89.5t-214 -32q-125 0 -216 32t-152.5 88.5t-95.5 136t-42 178.5z" />
<glyph d="M1143 508v-203h-219v-305h-232v305h-639v182l635 906h236v-885h219zM692 508v211q0 43 1 98t3 109.5t4 101.5t5 76h-3q-23 -47 -71.5 -128t-114.5 -177l-205 -291h381z" />
<glyph d="M127 614l106 779h805l-20 -217h-596l-49 -314q10 12 33.5 27.5t58.5 31t82 25.5t104 10q102 0 186.5 -32.5t144.5 -93t93 -147.5t33 -198q0 -104 -32 -197t-95 -163t-159.5 -110t-225.5 -40q-197 0 -331 94.5t-169 266.5l242 63q18 -92 82.5 -153.5t173.5 -61.5 q133 0 194.5 81t61.5 208q0 123 -62.5 204t-195.5 81q-100 0 -161.5 -53.5t-84.5 -139.5z" />
<glyph d="M860 467q0 115 -64.5 181.5t-181.5 66.5q-51 0 -94 -14.5t-76.5 -35t-57.5 -44t-34 -41.5q0 -61 12.5 -131t43 -128.5t81 -96.5t125.5 -38q111 0 178.5 76t67.5 205zM866 987q-8 33 -24.5 72t-45 72.5t-71.5 56t-102 22.5q-68 0 -119 -33.5t-85 -89t-51.5 -128 t-19.5 -150.5q18 18 47 39.5t69 39t89 30t111 12.5q92 0 174 -28t145.5 -84t100 -140t36.5 -197q0 -115 -34.5 -208t-100 -159.5t-160 -102.5t-211.5 -36q-123 0 -220 42t-164.5 129t-104.5 219.5t-37 314.5q0 174 35 311t104.5 231.5t171 144.5t234.5 50q111 0 192.5 -30.5 t138 -83t89 -122t49.5 -145.5z" />
<glyph d="M373 0q16 98 42.5 197.5t61.5 201.5q72 211 173.5 403.5t223.5 373.5h-550v-263h-232v480h1063v-201q-211 -260 -339 -561t-171 -631h-272z" />
<glyph d="M604 618q-131 0 -201.5 -58t-70.5 -152q0 -98 73.5 -158t198.5 -60q123 0 198 54.5t75 165.5q0 94 -72 151t-201 57zM604 1210q-66 0 -112 -16t-74.5 -44t-43 -62.5t-14.5 -73.5q0 -37 14.5 -73t45.5 -65.5t77 -47t107 -17.5t107.5 17.5t77 47t45 65.5t14.5 73 q0 39 -14.5 73.5t-43 62.5t-76 44t-110.5 16zM604 -25q-244 0 -382 110t-138 302q0 123 61.5 204t176.5 124q-39 18 -75 43.5t-63.5 64.5t-44 90.5t-16.5 118.5q0 82 32.5 152.5t95 123t152 81t201.5 28.5q113 0 202 -28.5t151.5 -81t95 -123t32.5 -152.5q0 -68 -16 -119 t-44 -90t-63.5 -64.5t-74.5 -43.5q115 -43 176 -124t61 -204q0 -193 -138 -302.5t-382 -109.5z" />
<glyph d="M348 928q0 -115 64.5 -181.5t181.5 -66.5q51 0 94 14.5t77 35t57.5 44t33.5 41.5q0 61 -12.5 130t-43 127t-80.5 97t-126 39q-111 0 -178.5 -75.5t-67.5 -204.5zM342 406q8 -33 24.5 -72t45 -72t71.5 -55.5t103 -22.5q68 0 119 34t84.5 89t51 127t19.5 150 q-18 -18 -47 -40t-68.5 -39.5t-89 -29.5t-110.5 -12q-92 0 -174 27.5t-145.5 84t-100.5 140.5t-37 196q0 115 35 208t100.5 160t159.5 102.5t211 35.5q123 0 220 -42t165 -129t104.5 -220t36.5 -313q0 -174 -34.5 -311.5t-104.5 -231.5t-171 -144.5t-235 -50.5 q-111 0 -192.5 31t-138 83t-90 121t-48.5 146z" />
</font>
</defs>
</svg>
