<?xml version="1.0" standalone="no"?>
<!DOCTYPE svg PUBLIC "-//W3C//DTD SVG 1.1//EN" "http://www.w3.org/Graphics/SVG/1.1/DTD/svg11.dtd" >
<svg xmlns="http://www.w3.org/2000/svg" xmlns:xlink="http://www.w3.org/1999/xlink" version="1.1">
<metadata></metadata>
<defs>
<font id="theinhardt_regularregular" horiz-adv-x="1208" >
<font-face units-per-em="2048" ascent="1642" descent="-406" />
<missing-glyph horiz-adv-x="409" />
<glyph unicode="&#xfb01;" horiz-adv-x="1085" d="M612 846h-206v-846h-170v846h-199v129h199v196q0 117 58 176.5t189 59.5q47 0 80 -4t49 -8v-138q-12 2 -34.5 4.5t-45.5 2.5q-82 0 -106 -37q-12 -18 -16 -42t-4 -59v-151h206v-129zM954 1176h-170v217h170v-217zM954 0h-170v975h170v-975z" />
<glyph unicode="&#xfb02;" horiz-adv-x="1099" d="M612 846h-206v-846h-170v846h-199v129h199v196q0 117 58 176.5t189 59.5q47 0 80 -4t49 -8v-138q-12 2 -34.5 4.5t-45.5 2.5q-82 0 -106 -37q-12 -18 -16 -42t-4 -59v-151h206v-129zM954 0h-170v1393h170v-1393z" />
<glyph horiz-adv-x="0" />
<glyph horiz-adv-x="682" />
<glyph horiz-adv-x="0" />
<glyph horiz-adv-x="0" />
<glyph unicode="&#xd;" horiz-adv-x="1712" d="M1561 416h-1203l426 -416h-217l-485 487l485 488h217l-428 -418h1035v418h170v-559z" />
<glyph unicode=" "  horiz-adv-x="409" />
<glyph unicode="&#x09;" horiz-adv-x="409" />
<glyph unicode="&#xa0;" horiz-adv-x="409" />
<glyph unicode="!" horiz-adv-x="464" d="M324 256v-256h-183v256h183zM293 354h-119l-27 344v695h170v-695z" />
<glyph unicode="&#x22;" horiz-adv-x="673" d="M240 819h-95l-39 424v150h177v-150zM524 819h-94l-39 424v150h176v-150z" />
<glyph unicode="#" horiz-adv-x="1337" d="M530 516h205l51 305h-204zM1262 821h-320l-51 -305h330v-154h-355l-57 -362h-156l58 362h-205l-57 -362h-156l57 362h-276v154h301l51 305h-309l-2 156h334l67 414h156l-68 -414h205l68 414h155l-67 -414h297v-156z" />
<glyph unicode="$" horiz-adv-x="1185" d="M293 1030q0 -90 53 -133t176 -74v414q-102 -10 -165.5 -63.5t-63.5 -143.5zM934 387q0 94 -66.5 142.5t-187.5 80.5v-452q111 12 182.5 68.5t71.5 160.5zM946 1061q-100 139 -266 170v-447l39 -8q84 -23 156.5 -50.5t126 -70.5t84 -105.5t30.5 -152.5q0 -86 -32.5 -155.5 t-91 -120.5t-138.5 -82t-174 -39v-188h-158v188q-166 16 -282.5 91t-182.5 181l146 103q41 -76 122 -135.5t197 -79.5v489l-35 10q-74 18 -141 43t-118.5 64t-82 98.5t-30.5 149.5q0 84 31.5 151.5t87 114.5t130 75.5t158.5 37.5v200h158v-204q150 -20 247 -84t150 -136z " />
<glyph unicode="%" horiz-adv-x="1826" d="M1614 408q0 147 -42 242t-132 95q-45 0 -77 -25.5t-52.5 -69.5t-30.5 -102.5t-10 -123.5q0 -61 9 -118.5t28.5 -101.5t52.5 -71t80 -27q49 0 82.5 25t53 66t29 96.5t9.5 114.5zM1763 410q0 -84 -19.5 -161t-59 -137.5t-101 -96t-145.5 -35.5q-88 0 -149.5 36.5t-99.5 97 t-55.5 138.5t-17.5 158q0 82 15.5 163.5t53.5 148t100.5 107.5t156.5 41q98 0 160.5 -43t98.5 -109.5t49 -148t13 -159.5zM625 0h-154l725 1393h152zM561 946q0 147 -42 242.5t-132 95.5q-45 0 -76.5 -25.5t-52 -69.5t-31 -102.5t-10.5 -123.5q0 -61 9.5 -119t28.5 -102 t52 -70.5t80 -26.5q49 0 83 24.5t53.5 65.5t28.5 96.5t9 114.5zM711 948q0 -84 -19.5 -160.5t-59.5 -137t-101.5 -96.5t-145.5 -36q-88 0 -149.5 37t-99.5 97.5t-55.5 138t-17.5 157.5q0 82 15.5 164t53.5 148.5t100.5 107.5t156.5 41q98 0 160.5 -43t98.5 -109.5 t49.5 -148.5t13.5 -160z" />
<glyph unicode="&#x26;" horiz-adv-x="1288" d="M578 870q84 47 135 105.5t51 136.5q0 76 -46 118t-112 42q-72 0 -116 -42t-44 -114q0 -59 30 -107t63 -89zM518 680q-47 -27 -92 -55.5t-79 -64.5t-54.5 -81t-20.5 -102q0 -61 22.5 -107.5t59.5 -78t86 -48t103 -16.5q96 0 173 45t124 123zM936 174q-154 -199 -412 -199 q-90 0 -167.5 27t-135 77t-90.5 123.5t-33 168.5q0 82 26 145.5t70 112.5t103 89t129 75l-23 30q-23 31 -46 61.5t-41.5 65.5t-31 77t-12.5 91q0 55 22.5 109.5t64.5 96.5t104.5 67.5t142.5 25.5q82 0 143.5 -23.5t102.5 -62.5t61.5 -91t20.5 -110q0 -225 -262 -374 l250 -301q16 49 32.5 112.5t26.5 128.5l156 -39q-14 -90 -41 -176t-66 -164l279 -317h-224z" />
<glyph unicode="'" horiz-adv-x="389" d="M240 819h-95l-39 424v150h177v-150z" />
<glyph unicode="(" horiz-adv-x="524" d="M346 -336q-131 205 -195.5 414t-64.5 448q0 236 66.5 461t195.5 422l141 -20q-121 -199 -181 -418t-60 -439q0 -109 17.5 -221t50 -220.5t75.5 -210t96 -189.5z" />
<glyph unicode=")" horiz-adv-x="524" d="M37 -309q51 88 95 189.5t77 210t50 221t17 220.5q0 219 -60 438.5t-181 418.5l141 20q129 -197 195.5 -422t66.5 -461q0 -240 -64.5 -448.5t-195.5 -413.5z" />
<glyph unicode="*" horiz-adv-x="870" d="M506 1128l250 84l45 -139l-252 -80l158 -211l-119 -86l-154 213l-151 -213l-119 86l155 211l-249 80l45 139l247 -84v265h146z" />
<glyph unicode="+" horiz-adv-x="1323" d="M741 0h-157v530h-523v156h523v528h157v-528h521v-156h-521v-530z" />
<glyph unicode="," horiz-adv-x="432" d="M313 236v-154q0 -66 -2 -126t-16 -110q-16 -59 -57 -98t-119 -45v94q47 6 67 41q23 39 23 133v29h-90v236h194z" />
<glyph unicode="-" horiz-adv-x="786" d="M657 645v-178h-528v178h528z" />
<glyph unicode="." horiz-adv-x="432" d="M313 236v-236h-194v236h194z" />
<glyph unicode="/" horiz-adv-x="991" d="M946 1393l-733 -1393h-168l735 1393h166z" />
<glyph unicode="0" horiz-adv-x="1253" d="M627 -25q-150 0 -251.5 60.5t-163.5 161t-89 230.5t-27 267q0 147 31 278.5t96.5 231t164.5 156.5t239 57q137 0 237.5 -57t166 -155.5t96 -230.5t30.5 -280q0 -137 -26.5 -266t-89 -229.5t-163.5 -162t-251 -61.5zM627 1268q-90 0 -154.5 -44t-106.5 -121t-62.5 -180.5 t-20.5 -224.5q0 -115 16 -218t55 -181t105.5 -125t167.5 -47q100 0 166.5 47t106.5 125t55.5 181.5t15.5 217.5q0 121 -20.5 224.5t-62.5 180.5t-106.5 121t-154.5 44z" />
<glyph unicode="1" horiz-adv-x="741" d="M580 0h-174v958h-367v138h45q84 0 140.5 15t97.5 44q100 74 106 238h152v-1393z" />
<glyph unicode="2" horiz-adv-x="1116" d="M125 805q-8 16 -19.5 70.5t-11.5 113.5q0 86 31 164t90 136.5t145 93t195 34.5q121 0 207 -35.5t141 -98t81 -144.5t26 -174q0 -117 -42 -219.5t-112 -189.5t-157 -160.5t-175 -135.5q-41 -29 -85 -56.5t-83 -49.5h664v-154h-916v145q45 27 102.5 68t120 89t127 100.5 t124.5 103.5q51 45 96 93t79.5 103.5t55 118t20.5 135.5q0 147 -79.5 227.5t-204.5 80.5q-68 0 -119 -21.5t-85 -58.5t-50.5 -86t-16.5 -107q0 -106 45 -203z" />
<glyph unicode="3" horiz-adv-x="1134" d="M106 1053q2 51 30 114.5t82 118.5t139 93t204 38q111 0 194 -27.5t137 -75.5t81.5 -114.5t27.5 -144.5q0 -123 -59 -201t-145 -113q45 -16 89 -45.5t78.5 -72.5t55 -99.5t20.5 -128.5q0 -92 -33.5 -168.5t-98 -133t-155.5 -87.5t-208 -31q-217 0 -339 113t-132 303 l166 53q4 -84 29.5 -144t67.5 -98t95 -56.5t115 -18.5q145 0 227 73.5t82 200.5q0 92 -41 145.5t-106 80.5q-47 18 -104.5 25t-121.5 7h-127v144h115q59 0 119.5 8t111.5 31q53 23 85 72t32 126q0 102 -68.5 165t-197.5 63q-70 0 -122 -21.5t-87 -58.5t-55.5 -85t-26.5 -99z " />
<glyph unicode="4" horiz-adv-x="1128" d="M672 500v444q0 41 1 69.5t2 51t2 42t3 40.5q-25 -41 -56.5 -95.5t-72.5 -109.5l-318 -442h439zM846 0h-174v344h-633v131l647 918h160v-893h233v-156h-233v-344z" />
<glyph unicode="5" horiz-adv-x="1126" d="M250 379q29 -123 109.5 -187.5t195.5 -64.5q61 0 117.5 21.5t99.5 65.5t68.5 110.5t25.5 156.5q0 80 -25.5 140.5t-66.5 99.5t-95 58.5t-110 19.5q-111 0 -190.5 -60.5t-112.5 -179.5l-151 49l71 785h787l-10 -160h-623l-41 -387q45 39 119 72.5t176 33.5q98 0 182 -31.5 t144.5 -93t94.5 -149.5t34 -201q0 -109 -34 -201t-98.5 -158.5t-156.5 -104.5t-209 -38q-186 0 -308 90.5t-165 249.5z" />
<glyph unicode="6" horiz-adv-x="1165" d="M897 467q0 150 -83 228.5t-210 78.5q-94 0 -183 -48t-138 -132q2 -104 24.5 -190.5t63.5 -147.5t100 -95t133 -34q131 0 212 92t81 248zM881 1022q-6 29 -22.5 71t-47.5 80.5t-79 66.5t-120 28q-156 0 -237.5 -128t-91.5 -362q49 61 138 105.5t210 44.5q102 0 185 -35 t140.5 -95.5t88 -143.5t30.5 -177q0 -98 -30.5 -189t-90 -161t-147.5 -111t-203 -41q-238 0 -372 171t-134 540q0 172 34 307t100.5 229.5t163 144.5t222.5 50q111 0 188 -34.5t127 -88t75.5 -115t33.5 -116.5z" />
<glyph unicode="7" horiz-adv-x="1048" d="M1026 1260q-94 -143 -173 -289t-139.5 -300.5t-100.5 -320.5t-54 -350h-192q33 342 152.5 643t309.5 592h-600v-268h-166v426h963v-133z" />
<glyph unicode="8" horiz-adv-x="1177" d="M588 811q135 0 207.5 67.5t72.5 161.5q0 102 -77.5 165t-202.5 63q-127 0 -204 -62.5t-77 -165.5q0 -94 72 -161.5t209 -67.5zM588 127q78 0 136 22.5t97 59.5t58.5 85t19.5 101q0 121 -82 196t-229 75q-145 0 -227 -75t-82 -196q0 -53 19 -101t57 -85t96.5 -59.5 t136.5 -22.5zM588 1417q111 0 195.5 -28.5t142 -78.5t87 -118t29.5 -145q0 -109 -59 -189t-139 -117q41 -20 84 -48.5t77.5 -70.5t56 -98.5t21.5 -130.5q0 -82 -28.5 -157.5t-90 -133t-154.5 -92.5t-222 -35t-223.5 35t-153.5 92.5t-88 133t-29 157.5q0 74 21.5 131.5 t56.5 99.5t77 71.5t85 47.5q-86 35 -143.5 113t-57.5 191q0 78 30 145.5t87 117.5t142 78.5t196 28.5z" />
<glyph unicode="9" horiz-adv-x="1165" d="M268 928q0 -150 83 -228.5t210 -78.5q94 0 183.5 48t138.5 132q-2 104 -24.5 190t-63.5 147.5t-100.5 95.5t-133.5 34q-131 0 -212 -92t-81 -248zM285 373q6 -29 22.5 -71t47 -81t78.5 -66.5t120 -27.5q156 0 237.5 127t92.5 360q-49 -61 -138.5 -105t-209.5 -44 q-102 0 -185.5 35t-140.5 95t-88 142t-31 178q0 98 31 189.5t90 161t147 110.5t203 41q119 0 212 -42t158.5 -129t100.5 -221t35 -318q0 -172 -34 -307.5t-100.5 -229.5t-163.5 -144.5t-222 -50.5q-111 0 -187.5 35t-127 88.5t-76 114.5t-33.5 117z" />
<glyph unicode=":" horiz-adv-x="464" d="M330 975v-236h-195v236h195zM330 236v-236h-195v236h195z" />
<glyph unicode=";" horiz-adv-x="464" d="M330 236v-154q0 -66 -2 -126t-17 -110q-16 -59 -57 -98t-119 -45v94q47 6 68 41q23 39 22 133v29h-90v236h195zM330 975v-236h-195v236h195z" />
<glyph unicode="&#x3c;" horiz-adv-x="1540" d="M1446 -47l-1389 653v164l1389 649v-178l-1172 -551l1172 -553v-184z" />
<glyph unicode="=" horiz-adv-x="1681" d="M154 694v156h1376v-156h-1376zM154 338v156h1376v-156h-1376z" />
<glyph unicode="&#x3e;" horiz-adv-x="1540" d="M94 137l1172 553l-1172 551v178l1389 -649v-164l-1389 -653v184z" />
<glyph unicode="?" horiz-adv-x="970" d="M543 227v-227h-185v227h185zM94 856q-8 18 -16 43q-6 23 -11.5 54.5t-5.5 72.5q0 80 31 149.5t86 122t134 82t177 29.5q104 0 182.5 -28.5t131.5 -78t79.5 -116t26.5 -142.5q0 -72 -16 -129t-45 -105t-67 -90t-79 -81l-53 -49q-53 -47 -79.5 -90t-26.5 -127v-64h-183v78 q0 45 6.5 82t23 70.5t45 68.5t75.5 78l76 68q63 55 102 119.5t39 148.5q0 98 -62.5 166.5t-181.5 68.5q-117 0 -181 -70.5t-64 -168.5q0 -39 6 -73t14 -60q8 -31 23 -56z" />
<glyph unicode="@" horiz-adv-x="1665" d="M1038 483q-10 -4 -31.5 -9t-68.5 -15l-82 -19q-51 -10 -95 -21t-73 -34q-45 -33 -45 -94q0 -72 51 -111t131 -39q41 0 79 10.5t67.5 32t48 56t18.5 84.5v159zM1182 217q0 -45 17.5 -61.5t51.5 -16.5q39 0 73 32t57.5 89t37 133t13.5 166q0 111 -37 214.5t-109 182 t-176 125.5t-242 47q-135 0 -249.5 -48t-199.5 -136t-133 -212t-48 -277q0 -150 46 -275t131 -214t204.5 -138t265.5 -49q178 0 322.5 72.5t252.5 207.5l82 -104q-117 -141 -284.5 -222t-376.5 -81q-190 0 -339 59.5t-250.5 165t-153.5 252.5t-52 326q0 178 60.5 324.5 t166 252t247.5 163.5t308 58q168 0 299 -55t221.5 -148.5t138.5 -218t48 -266.5q0 -152 -34 -259t-91 -173q-92 -104 -233 -104q-80 0 -123 30.5t-47 83.5h-3q-10 -16 -29.5 -36.5t-51 -39t-75.5 -30.5t-106 -12q-135 0 -215 67.5t-80 192.5q0 72 30 119t81 77 q49 29 114.5 45.5t135.5 28.5l117 18q41 8 57 16.5t16 37.5v24q0 33 -7 61.5t-26.5 48t-55.5 31t-93 11.5q-117 0 -160 -52.5t-43 -129.5l-143 16q-2 72 25.5 126t77 90t114 53.5t135.5 17.5q72 0 131.5 -12.5t101.5 -43t64.5 -83t22.5 -132.5v-436v0z" />
<glyph unicode="A" horiz-adv-x="1216" d="M657 1016q-41 109 -53 164h-2q-8 -27 -20.5 -68t-32.5 -98l-156 -457h422zM201 0h-189l498 1393h201l489 -1393h-194l-140 401h-526z" />
<glyph unicode="B" horiz-adv-x="1327" d="M162 0v1393h545q59 0 104 -3.5t81 -9.5t64.5 -16t55.5 -23q88 -45 135 -122.5t47 -188.5q0 -113 -58.5 -188.5t-152.5 -104.5q117 -35 187.5 -124t70.5 -218q0 -117 -49 -201.5t-141 -132.5q-53 -29 -125 -45t-205 -16h-559zM1016 1014q0 68 -31 117t-82 71 q-35 14 -78 20.5t-131 6.5h-352v-430h352q88 0 131 8t76 20q53 25 84 72t31 115zM342 162h371q88 0 137 6t78 18q59 29 97 86.5t38 133.5q0 66 -27.5 114.5t-74.5 79.5q-51 31 -114 37t-134 6h-371v-481z" />
<glyph unicode="C" horiz-adv-x="1327" d="M1272 317q-76 -160 -216.5 -251t-332.5 -91q-139 0 -255 49.5t-201 141.5t-132 226t-47 304q0 160 44 292t127 227.5t199.5 148.5t264.5 53q186 0 322.5 -85t214.5 -232l-154 -105q-53 129 -150.5 197t-232.5 68q-104 0 -186 -40t-140.5 -114t-89.5 -177.5t-31 -232.5 q0 -127 31 -231.5t89.5 -178t140 -113.5t186.5 -40q135 0 233.5 69.5t151.5 196.5z" />
<glyph unicode="D" horiz-adv-x="1357" d="M342 160h193q63 0 116.5 1t101.5 9t89 25.5t80 50.5q72 59 117.5 177t45.5 271q0 135 -45 256t-125 193q-37 31 -76.5 48t-88 26.5t-107.5 11.5t-135 2h-166v-1071zM162 0v1393h340q84 0 154.5 -2t132 -11.5t114.5 -30t105 -57.5q113 -84 185.5 -237.5t72.5 -352.5 q0 -174 -53.5 -316t-151.5 -241q-55 -55 -113.5 -83.5t-125 -43t-147.5 -16.5t-181 -2h-332z" />
<glyph unicode="E" horiz-adv-x="1204" d="M1133 0h-971v1393h932v-162h-752v-434h682v-162h-682v-473h791v-162z" />
<glyph unicode="F" horiz-adv-x="1130" d="M162 0v1393h919v-160h-739v-434h668v-160h-668v-639h-180z" />
<glyph unicode="G" horiz-adv-x="1409" d="M723 131q106 0 196.5 38t137.5 103q37 53 55 122t21 177h-480v162h647v-733h-170v178q-25 -39 -62.5 -74.5t-88.5 -64.5t-116.5 -46.5t-143.5 -17.5q-139 0 -254 49.5t-199 141.5t-130 226t-46 304q0 160 44 292t126 227.5t200 148.5t263 53q188 0 324.5 -85t212.5 -232 l-152 -103q-53 125 -151.5 194t-233.5 69q-102 0 -185 -40t-141.5 -114t-89.5 -177.5t-31 -232.5q0 -127 31 -231.5t89.5 -178t141.5 -114.5t185 -41z" />
<glyph unicode="H" horiz-adv-x="1417" d="M1255 0h-180v641h-733v-641h-180v1393h180v-590h733v590h180v-1393z" />
<glyph unicode="I" horiz-adv-x="503" d="M342 0h-180v1393h180v-1393z" />
<glyph unicode="J" horiz-adv-x="737" d="M584 1393v-1059q0 -82 -12.5 -131t-36.5 -88q-51 -82 -142.5 -111t-191.5 -29q-66 0 -106 6.5t-64 12.5v164q29 -10 67.5 -17.5t83.5 -7.5q41 0 85 9.5t79 37.5q43 35 50 97.5t7 162.5v953h181z" />
<glyph unicode="K" horiz-adv-x="1316" d="M1319 0h-227l-492 713l-258 -267v-446h-180v1393h180v-723l700 723h242l-551 -555z" />
<glyph unicode="L" horiz-adv-x="1054" d="M1032 0h-870v1393h182v-1231h688v-162z" />
<glyph unicode="M" horiz-adv-x="1597" d="M719 0l-316 952q-10 29 -21 69t-22 77q-12 41 -24 86h-2v-101q0 -43 1 -93t1 -97v-893h-174v1393h258l317 -947q25 -72 43.5 -131t26.5 -82q6 25 22.5 84.5t38.5 131.5l306 944h262v-1393h-174v909v295h-2q-12 -45 -23 -88q-10 -37 -21.5 -78t-21.5 -69l-305 -969h-170z " />
<glyph unicode="N" horiz-adv-x="1439" d="M995 457q16 -23 34 -48.5t32 -48t24.5 -39t14.5 -22.5h2q-2 29 -2 66q-2 31 -2 71.5v87.5v869h180v-1393h-178l-651 938q-14 20 -32 47t-34 51.5t-28.5 44t-14.5 25.5h-2q0 -27 2 -55q0 -25 1 -55.5t1 -61.5v-934h-180v1393h178z" />
<glyph unicode="O" horiz-adv-x="1441" d="M276 696q0 -127 31 -230.5t88.5 -177t139 -113.5t186.5 -40q102 0 184 40t139.5 113.5t88 177t30.5 230.5t-30.5 230.5t-87 177.5t-138.5 113.5t-186 39.5t-186 -39.5t-139.5 -112.5t-88.5 -176.5t-31 -232.5zM88 696q0 160 44 292t126 227.5t199.5 148.5t263.5 53 q145 0 262 -53t199 -148.5t126 -227.5t44 -292t-44 -292t-125 -227t-198 -148.5t-264 -53.5q-145 0 -263 53.5t-200 148.5t-126 227t-44 292z" />
<glyph unicode="P" horiz-adv-x="1241" d="M344 754h334q76 0 118 6t78 18q74 29 106 82t32 133t-32 133.5t-106 81.5q-37 12 -78.5 18.5t-117.5 6.5h-334v-479zM344 0h-182v1393h518q104 0 168.5 -10.5t114.5 -30.5q109 -47 171 -136.5t62 -222.5q0 -115 -48 -198.5t-132 -132.5q-76 -45 -159 -56.5t-200 -11.5 h-313v-594z" />
<glyph unicode="Q" horiz-adv-x="1449" d="M276 696q0 -127 31 -230.5t88.5 -177t139 -113.5t186.5 -40q102 0 184 40t139.5 113.5t88 177t30.5 230.5t-30.5 230.5t-87 177.5t-138.5 113.5t-186 39.5t-186 -39.5t-139.5 -112.5t-88.5 -176.5t-31 -232.5zM88 696q0 160 44 292t126 227.5t199.5 148.5t263.5 53 q145 0 262 -53t199 -148.5t126 -227.5t44 -292q0 -289 -135 -477l145 -149l-131 -127l-139 147q-76 -55 -168.5 -85t-202.5 -30q-145 0 -263 53.5t-200 148.5t-126 227t-44 292z" />
<glyph unicode="R" horiz-adv-x="1296" d="M655 756q49 0 85 2t63.5 7t49 11t42.5 15q119 55 119 204q0 72 -32 125.5t-91 79.5q-39 16 -89 24.5t-149 8.5h-311v-477h313zM342 0h-180v1393h524q104 0 171 -11.5t116 -29.5q106 -43 166.5 -134.5t60.5 -224.5q0 -84 -26.5 -150.5t-73.5 -115.5t-111.5 -80t-140.5 -43 l393 -604h-225l-381 596h-293v-596z" />
<glyph unicode="S" horiz-adv-x="1198" d="M956 1071q-131 186 -374 186q-127 0 -210 -56t-83 -161q0 -94 58.5 -138t187.5 -77l188 -47q86 -23 159.5 -51.5t129 -72.5t86 -108.5t30.5 -156.5q0 -98 -39.5 -175t-110.5 -130t-167 -81t-207 -28q-199 0 -340 81t-215 204l148 105q49 -92 155.5 -160t261.5 -68 q70 0 130.5 15.5t104.5 45t68.5 74.5t24.5 107q0 51 -19.5 88t-56.5 64.5t-89 47t-120 35.5l-170 43q-76 20 -145.5 45t-121.5 66t-83 102.5t-31 153.5q0 94 39 168t104.5 124t151.5 75.5t183 25.5q98 0 177 -20.5t141.5 -54t109.5 -74.5t78 -84z" />
<glyph unicode="T" horiz-adv-x="1101" d="M33 1393h1036v-162h-428v-1231h-180v1231h-428v162z" />
<glyph unicode="U" horiz-adv-x="1351" d="M676 -27q-156 0 -271.5 52.5t-183.5 167.5q-18 33 -32.5 67.5t-22.5 78.5t-12 100.5t-4 133.5v820h180v-818q0 -86 7 -166.5t44 -140.5q39 -66 115.5 -100.5t179.5 -34.5q102 0 179 35t116 100q37 59 44 140t7 167v818h180v-820q0 -78 -4 -134t-12 -100t-22.5 -79 t-33.5 -67q-68 -115 -183 -167.5t-271 -52.5z" />
<glyph unicode="V" horiz-adv-x="1198" d="M549 399q14 -35 28.5 -80t22.5 -69h2q8 29 21.5 67.5t29.5 81.5l351 994h184l-502 -1393h-180l-488 1393h191z" />
<glyph unicode="W" horiz-adv-x="1765" d="M1546 1393h185l-400 -1393h-145l-246 842q-23 76 -34 125t-21 86q-14 -55 -26.5 -100.5t-31.5 -114.5l-241 -838h-144l-415 1393h194l219 -770q12 -45 25.5 -92.5t24 -88.5t18.5 -71.5t12 -44.5q20 78 39 152.5t41 148.5l213 766h139l226 -770q12 -45 25.5 -91.5 t24.5 -86t18 -69.5t11 -44q14 57 29 110q12 47 25.5 97.5t23.5 87.5z" />
<glyph unicode="X" horiz-adv-x="1259" d="M1266 0h-219l-416 604l-430 -604h-211l532 739l-467 654h228l352 -510l352 510h223l-467 -643z" />
<glyph unicode="Y" horiz-adv-x="1210" d="M692 0h-180v569l-504 824h207l397 -652l408 652h203l-531 -824v-569z" />
<glyph unicode="Z" horiz-adv-x="1159" d="M1098 0h-1045v133l807 1098h-772v162h989v-142l-796 -1089h817v-162z" />
<glyph unicode="[" horiz-adv-x="591" d="M532 -326h-387v1719h387v-133h-223v-1453h223v-133z" />
<glyph unicode="\" horiz-adv-x="991" d="M211 1393l735 -1393h-168l-733 1393h166z" />
<glyph unicode="]" horiz-adv-x="591" d="M59 -190h224v1450h-224v133h387v-1717h-387v134z" />
<glyph unicode="^" horiz-adv-x="923" d="M895 662h-193l-243 528l-244 -528h-197l367 731h156z" />
<glyph unicode="_" horiz-adv-x="1495" d="M1286 -324h-1077v156h1077v-156z" />
<glyph unicode="`" horiz-adv-x="874" d="M428 1393l141 -263h-149l-209 263h217z" />
<glyph unicode="a" horiz-adv-x="1019" d="M705 496q-10 -4 -35 -11.5t-78 -17.5l-94 -21q-57 -12 -106.5 -25t-84.5 -38q-51 -35 -51 -107q0 -84 57.5 -127t149.5 -43q45 0 89 11.5t78 37t54.5 65.5t20.5 97v179zM975 -14q-16 -4 -40 -6.5t-56 -2.5q-90 0 -125 36t-39 96h-2q-12 -18 -35 -42t-58.5 -44.5t-87 -35 t-120.5 -14.5q-150 0 -241 77t-91 218q0 84 33.5 138.5t91.5 89.5q57 35 132 52t152 32l134 22q47 8 64.5 18.5t17.5 41.5v20q0 39 -8.5 70.5t-31 55t-62.5 37t-105 13.5q-66 0 -110 -16.5t-70.5 -44t-38 -65.5t-11.5 -81l-164 19q-2 82 30 143t87 101t129 60.5t156 20.5 t148.5 -13t113.5 -48t73.5 -94.5t26.5 -151.5v-495q0 -51 19.5 -70t64.5 -19h23v-118z" />
<glyph unicode="b" horiz-adv-x="1128" d="M289 489q0 -92 23.5 -161.5t64.5 -115.5t96 -69.5t119 -23.5q133 0 207.5 97t74.5 273q0 180 -78.5 274.5t-207.5 94.5q-63 0 -117.5 -23.5t-94.5 -69.5t-63.5 -115t-23.5 -161zM625 -25q-70 0 -123 17.5t-93 42t-66 54.5t-38 54v-143h-170v1393h170v-562q12 25 39 54.5 t66 54.5t91 41t117 16q92 0 170 -33.5t136.5 -99t91.5 -161t33 -218.5q0 -121 -32 -215t-88.5 -159.5t-134 -100.5t-169.5 -35z" />
<glyph unicode="c" horiz-adv-x="1015" d="M958 225q-59 -123 -165.5 -186.5t-249.5 -63.5q-109 0 -195 36t-145.5 101.5t-91 160t-31.5 210.5q0 117 33.5 212.5t95 163t146.5 103t188 35.5q154 0 256 -69.5t151 -194.5l-141 -74q-31 86 -94.5 141.5t-171.5 55.5q-131 0 -210 -97t-79 -274q0 -176 82 -272t207 -96 q111 0 178 47t104 129z" />
<glyph unicode="d" horiz-adv-x="1128" d="M840 489q0 92 -23.5 161t-63.5 115t-94.5 69.5t-117.5 23.5q-129 0 -208 -94t-79 -275q0 -176 74.5 -273t208.5 -97q63 0 118.5 23.5t96.5 69.5t64.5 115.5t23.5 161.5zM504 -25q-92 0 -170 35t-134.5 100.5t-88 160t-31.5 214.5q0 123 32.5 218.5t91 161t136.5 99 t170 33.5q66 0 118 -16t91 -41t65.5 -54.5t38.5 -54.5v562h170v-1393h-170v143q-12 -25 -37.5 -54.5t-65.5 -54t-93 -42t-123 -17.5z" />
<glyph unicode="e" horiz-adv-x="1056" d="M543 860q-113 0 -192 -73.5t-93 -202.5h547q-10 129 -77.5 202.5t-184.5 73.5zM975 201q-14 -23 -46 -61t-84 -74.5t-126 -63.5t-174 -27q-104 0 -190.5 35t-147 101.5t-94 162t-33.5 218.5q0 113 35 206t96 159.5t146 103t186 36.5q111 0 192.5 -38.5t136 -107.5 t82 -163t27.5 -203v-36h-729q2 -59 20.5 -118t55.5 -105t95 -74.5t138 -28.5q63 0 111.5 17.5t84.5 44t59.5 54t35.5 50.5z" />
<glyph unicode="f" horiz-adv-x="649" d="M612 846h-206v-846h-170v846h-199v129h199v196q0 117 58 176.5t189 59.5q47 0 80 -4t49 -8v-138q-12 2 -34.5 4.5t-45.5 2.5q-82 0 -106 -37q-12 -18 -16 -42t-4 -59v-151h206v-129z" />
<glyph unicode="g" horiz-adv-x="1128" d="M842 494q0 92 -22.5 160.5t-62.5 112.5t-95.5 66.5t-118.5 22.5q-131 0 -209 -97t-78 -263q0 -164 73.5 -258.5t209.5 -94.5q63 0 119.5 20.5t96.5 63.5t63.5 109t23.5 158zM272 -41q6 -43 22.5 -84t47.5 -71.5t79 -50t120 -19.5q88 0 143 20.5t87 62.5t43 105.5 t11 147.5v63q0 18 2 35q-35 -74 -117.5 -122t-195.5 -48q-96 0 -176 34t-136.5 97.5t-88 155.5t-31.5 209t32.5 210t90 158.5t137.5 100t172 34.5q111 0 191.5 -50t119.5 -116v144h170v-916q0 -88 -10 -152.5t-33 -113.5q-47 -111 -149.5 -155t-263.5 -44q-113 0 -191 28 t-127 75t-74.5 107.5t-33.5 127.5z" />
<glyph unicode="h" horiz-adv-x="1079" d="M954 0h-170v567q0 158 -57 219.5t-164 61.5q-61 0 -109 -22.5t-81 -61.5t-50.5 -91t-17.5 -110v-563h-170v1393h170v-564q39 68 115 118t198 50q193 0 275 -125q31 -47 46 -111.5t15 -150.5v-610z" />
<glyph unicode="i" horiz-adv-x="440" d="M305 1176h-170v217h170v-217zM305 0h-170v975h170v-975z" />
<glyph unicode="j" horiz-adv-x="440" d="M305 1176h-170v217h170v-217zM-35 -266q10 -2 24.5 -3t35.5 -1q41 0 62.5 9t31.5 28q10 16 13 37.5t3 62.5v1108h170v-1143q0 -80 -14 -121q-23 -66 -79 -95.5t-155 -29.5q-53 0 -92 6v142z" />
<glyph unicode="k" horiz-adv-x="1007" d="M999 0h-213l-346 479l-135 -133v-346h-170v1393h170v-852l445 434h213l-400 -381z" />
<glyph unicode="l" horiz-adv-x="460" d="M315 0h-170v1393h170v-1393z" />
<glyph unicode="m" horiz-adv-x="1630" d="M735 555q0 61 -6 105.5t-16 74.5q-25 66 -70 90.5t-104 24.5q-49 0 -92.5 -21.5t-74 -60.5t-49 -90t-18.5 -111v-567h-170v975h170v-146q33 72 114 120t179 48q217 0 279 -184q18 35 47.5 68.5t70.5 59.5t92.5 41t112.5 15q100 0 175 -48t108 -152q10 -35 16 -79t6 -100 v-618h-170v555q0 61 -6 105.5t-16 74.5q-25 66 -70 90.5t-104 24.5q-49 0 -92 -21.5t-74 -60.5t-49.5 -90t-18.5 -111v-567h-170v555z" />
<glyph unicode="n" horiz-adv-x="1079" d="M954 0h-170v567q0 158 -57 219.5t-164 61.5q-61 0 -109 -22.5t-81 -61.5t-50.5 -91t-17.5 -110v-563h-170v975h170v-146q39 68 115 118t198 50q193 0 275 -125q31 -47 46 -111.5t15 -150.5v-610z" />
<glyph unicode="o" horiz-adv-x="1089" d="M254 485q0 -176 81 -272t210 -96t210 97t81 271q0 178 -79 275.5t-212 97.5t-212 -98.5t-79 -274.5zM80 483q0 117 33.5 212.5t95 163t147.5 103t189 35.5q102 0 188 -35.5t147.5 -103t95.5 -163t34 -212.5t-34 -211t-94.5 -159.5t-146.5 -101.5t-190 -36t-190.5 36 t-147 101.5t-94 159.5t-33.5 211z" />
<glyph unicode="p" horiz-adv-x="1128" d="M289 489q0 -92 23.5 -161.5t64.5 -115.5t96 -69.5t119 -23.5q133 0 207.5 97t74.5 273q0 180 -78.5 274.5t-207.5 94.5q-63 0 -117.5 -23.5t-94.5 -69.5t-63.5 -115t-23.5 -161zM625 -25q-70 0 -123 17.5t-93 42t-66 54.5t-38 54v-532h-170v1364h170v-144q12 25 39 54.5 t66 54.5t91 41t117 16q92 0 170 -33.5t136.5 -99t91.5 -161t33 -218.5q0 -121 -32 -215t-88.5 -159.5t-134 -100.5t-169.5 -35z" />
<glyph unicode="q" horiz-adv-x="1128" d="M840 489q0 92 -23.5 161t-63.5 115t-94.5 69.5t-117.5 23.5q-129 0 -208 -94t-79 -275q0 -176 74.5 -273t208.5 -97q63 0 118.5 23.5t96.5 69.5t64.5 115.5t23.5 161.5zM504 -25q-92 0 -170 35t-134.5 100.5t-88 160t-31.5 214.5q0 123 32.5 218.5t91 161t136.5 99 t170 33.5q66 0 118 -16t91 -41t65.5 -54.5t38.5 -54.5v144h170v-1364h-170v532q-12 -25 -37.5 -54.5t-65.5 -54t-93 -42t-123 -17.5z" />
<glyph unicode="r" horiz-adv-x="696" d="M655 831q-31 6 -63 7q-70 0 -123 -29t-90 -75t-55.5 -104.5t-18.5 -119.5v-510h-170v975h170v-184q8 43 37 80.5t69 66.5t89 45t100 16q33 0 55 -6v-162z" />
<glyph unicode="s" horiz-adv-x="944" d="M729 733q-53 59 -121.5 91t-148.5 32q-82 0 -137.5 -34t-55.5 -99q0 -70 54.5 -97.5t164.5 -50.5l113 -22q57 -12 108.5 -31.5t90.5 -51.5t60.5 -77t21.5 -108q0 -74 -31 -132.5t-85 -97.5t-129 -59.5t-163 -20.5q-141 0 -249.5 58.5t-168.5 134.5l111 115 q55 -72 136 -119t181 -47t162 40t62 113q0 70 -48.5 93.5t-121.5 37.5l-134 27q-63 12 -118.5 31.5t-97.5 52.5t-66.5 78t-24.5 110q0 78 33 134.5t86 92.5t119.5 53t134.5 17q135 0 230.5 -49t142.5 -104z" />
<glyph unicode="t" horiz-adv-x="649" d="M25 975h188v352l170 37v-389h215v-129h-215v-604q0 -33 2 -54.5t12 -37.5t28.5 -24.5t59.5 -8.5q31 0 59.5 4t53.5 8v-133q-37 -10 -80 -15.5t-90 -5.5q-70 0 -125 20.5t-78 82.5q-12 33 -12 94v674h-188v129z" />
<glyph unicode="u" horiz-adv-x="1069" d="M125 975h170v-561q0 -133 33 -197q27 -51 72.5 -71.5t115.5 -20.5q61 0 107.5 23.5t78 63.5t47 92t15.5 112v559h170v-975h-170v143q-41 -72 -115 -120t-196 -48q-76 0 -138.5 22.5t-105.5 70.5q-23 27 -39 54.5t-26.5 67t-14.5 95t-4 135.5v555z" />
<glyph unicode="v" horiz-adv-x="911" d="M535 0h-162l-348 975h178l203 -592q23 -59 37 -107.5t18 -64.5h2q4 16 19.5 64.5t37.5 113.5l201 586h168z" />
<glyph unicode="w" horiz-adv-x="1495" d="M995 440q20 -63 36 -118.5t26 -90.5h2q10 35 26.5 95.5t36.5 119.5l170 529h176l-338 -975h-153l-170 555q-20 61 -34.5 112.5t-18.5 69.5h-2q-4 -18 -18.5 -69.5t-35.5 -114.5l-176 -553h-160l-333 975h180l178 -535q20 -59 36.5 -116.5t27.5 -92.5h2q10 35 25.5 92.5 t35.5 118.5l174 533h148z" />
<glyph unicode="x" horiz-adv-x="913" d="M891 0h-205l-233 391l-246 -391h-187l340 506l-313 469h207l213 -342l215 342h188l-313 -459z" />
<glyph unicode="y" horiz-adv-x="903" d="M455 -199q-23 -63 -52.5 -103t-66.5 -63.5t-81 -32t-95 -8.5q-39 0 -69 4.5t-54 8.5v137q31 -4 57.5 -7t52.5 -3q37 0 68 7t55 32q16 16 28.5 38.5t25.5 59.5l43 125l-338 979h180l190 -590q10 -31 19.5 -61.5t17.5 -55.5q8 -29 17 -53h2q10 29 18 59q8 27 18.5 59 t22.5 64l199 578h170z" />
<glyph unicode="z" horiz-adv-x="903" d="M831 0h-768v135l549 699h-522v141h735v-131l-561 -703h567v-141z" />
<glyph unicode="{" horiz-adv-x="552" d="M66 602q45 12 69.5 32.5t35.5 50.5t13 70t2 95v250q0 164 58.5 228.5t204.5 64.5h34v-127q-80 0 -106.5 -34t-26.5 -136v-240q0 -68 -4 -120t-18.5 -91t-42 -63.5t-72.5 -38.5v-2q45 -14 72.5 -39t42 -64t18.5 -91t4 -120v-254q0 -102 26.5 -136t106.5 -34v-127h-34 q-145 0 -204 64.5t-59 228.5v264q0 55 -2 95.5t-13 70t-35.5 50t-69.5 32.5v121z" />
<glyph unicode="|" horiz-adv-x="452" d="M307 -324h-162v1717h162v-1717z" />
<glyph unicode="}" horiz-adv-x="552" d="M487 481q-45 -12 -69.5 -32.5t-35.5 -50t-13 -69.5t-2 -96v-264q0 -164 -58.5 -228.5t-204.5 -64.5h-34v127q80 0 106.5 34t26.5 136v254q0 68 4 120t18.5 91t41 63.5t73.5 39.5v2q-47 14 -73.5 38.5t-41 63.5t-18.5 91t-4 120v240q0 102 -26.5 136t-106.5 34v127h34 q145 0 204 -64.5t59 -228.5v-250q0 -55 2 -95t13 -70t35.5 -50.5t69.5 -32.5v-121z" />
<glyph unicode="~" horiz-adv-x="1122" d="M1044 616q-55 -70 -123.5 -122t-158.5 -52q-57 0 -110.5 19.5t-127.5 60.5q-41 23 -85 40.5t-91 17.5q-49 0 -87 -34t-95 -110l-86 133q14 20 36.5 52t56.5 62t78 50.5t99 20.5q66 0 125.5 -23.5t122.5 -54.5q47 -23 89 -42.5t81 -19.5q31 0 57.5 13.5t51 35t46 46 t40.5 47.5z" />
<glyph unicode="&#xa1;" horiz-adv-x="434" d="M125 719v256h182v-256h-182zM301 276v-694h-170v694l27 345h118z" />
<glyph unicode="&#xa2;" horiz-adv-x="1026" d="M260 485q0 -147 58.5 -239t156.5 -119v719q-100 -27 -157.5 -119t-57.5 -242zM813 647q-23 74 -69 128t-121 73v-725q78 16 128 65.5t78 120.5l136 -84q-53 -106 -140.5 -167.5t-201.5 -77.5v-211h-148v213q-186 23 -287.5 155.5t-101.5 345.5q0 106 27.5 194.5t79 154 t123 106.5t159.5 53v197h148v-195q123 -16 206.5 -82.5t126.5 -177.5z" />
<glyph unicode="&#xa3;" horiz-adv-x="1130" d="M471 616q0 -37 2 -79.5t2 -75.5q0 -45 -3 -89t-14.5 -84t-33 -74t-55.5 -56q27 2 84 2h135h436v-160h-938v150q61 4 102 19t67 50t37 93.5t11 146.5q0 35 -1 69.5t-5 87.5h-211v160h201q-2 45 -4 98.5t-2 98.5q0 88 19 168t64.5 140t119 96t182.5 36q111 0 185.5 -35 t119.5 -90t64.5 -120.5t19.5 -127.5l-166 -45q-2 123 -53.5 195t-171.5 72q-57 0 -98.5 -21.5t-67 -58.5t-37.5 -88.5t-12 -112.5q0 -53 3 -103.5t7 -101.5h305v-160h-293z" />
<glyph unicode="&#xa4;" horiz-adv-x="1114" d="M299 580q0 -53 20.5 -101.5t55.5 -85.5t82 -58.5t100 -21.5q55 0 102.5 21.5t83 58.5t55 85t19.5 102q0 55 -19.5 103t-54 85t-83 58.5t-103.5 21.5q-53 0 -100 -21.5t-82 -57.5t-55.5 -85t-20.5 -104zM154 580q0 66 17 123t48 104q-31 33 -64.5 64.5t-62.5 60.5l117 117 l125 -127q94 63 223 63q63 0 120.5 -15.5t104.5 -47.5l123 122l115 -114l-121 -123q31 -49 47.5 -105.5t16.5 -121.5q0 -133 -62 -228l60.5 -60.5l58.5 -58.5l-115 -114l-121 123q-96 -66 -227 -66q-63 0 -121.5 15.5t-105.5 48.5l-123 -123l-115 114l125 125 q-29 47 -46 102.5t-17 121.5z" />
<glyph unicode="&#xa5;" horiz-adv-x="1220" d="M137 745h297l-377 646h201l360 -641l340 641h205l-375 -646h295v-149h-381v-127h381v-150h-381v-319h-182v319h-383v150h383v127h-383v149z" />
<glyph unicode="&#xa6;" horiz-adv-x="462" d="M315 -387h-168v661h168v-661zM315 729h-168v662h168v-662z" />
<glyph unicode="&#xa7;" horiz-adv-x="1009" d="M606 428q68 23 102.5 67t34.5 105q0 74 -56 121t-148 84l-103 39q-72 -16 -112.5 -59.5t-40.5 -102.5q0 -72 51 -112t141 -81zM889 131q0 -76 -31 -134t-86 -98t-129 -60.5t-160 -20.5q-143 0 -251.5 57t-168.5 135l111 115q55 -72 134 -119t186 -47q94 0 157.5 38 t63.5 114q0 37 -20.5 64.5t-52.5 49t-71 39t-73 33.5l-103 47q-61 27 -113.5 53.5t-91 62.5t-60 85t-21.5 119q0 51 17 94t44 75.5t59.5 55t63.5 33.5q-16 12 -38 29.5t-42 43t-33.5 61.5t-13.5 83q0 72 31.5 125t84 87.5t119 52t134.5 17.5q135 0 231 -49t143 -104 l-110 -111q-53 59 -122 91t-149 32t-135 -34t-55 -93q0 -35 15.5 -59.5t41 -44t62.5 -36t80 -34.5l118 -49q51 -23 97.5 -49.5t82 -62.5t57 -83t21.5 -108q0 -55 -14 -99.5t-36.5 -78t-52.5 -57t-60 -42.5q20 -12 44.5 -31.5t45 -45t35 -61.5t14.5 -81z" />
<glyph unicode="&#xa8;" horiz-adv-x="993" d="M594 1372h174v-221h-174v221zM225 1372h174v-221h-174v221z" />
<glyph unicode="&#xa9;" horiz-adv-x="1572" d="M1335 715q0 115 -42 217t-114.5 179t-173 122t-217.5 45t-218 -45t-174.5 -122t-115.5 -179.5t-42 -216.5q0 -115 42 -218.5t115.5 -180t175 -121.5t217.5 -45q117 0 217.5 45t173 121.5t114.5 180t42 218.5zM1483 715q0 -147 -53.5 -275.5t-146.5 -222.5t-220 -148.5 t-275 -54.5q-150 0 -277.5 54.5t-220.5 148.5t-146.5 222t-53.5 276q0 147 53.5 275t146.5 222.5t221 148.5t277 54q147 0 274.5 -54t220.5 -148.5t146.5 -222.5t53.5 -275zM987 815q-59 174 -201 174q-98 0 -157.5 -68.5t-59.5 -205.5t60.5 -207t156.5 -70q141 0 207 158 l117 -76q-47 -98 -130 -154.5t-194 -56.5q-164 0 -263 105.5t-99 298.5t100.5 299t261.5 106q117 0 200 -60.5t124 -168.5z" />
<glyph unicode="&#xaa;" horiz-adv-x="763" d="M492 1079q-10 -4 -29 -7t-45 -7l-70 -14q-25 -6 -48.5 -12.5t-42.5 -16.5t-30.5 -28.5t-11.5 -45.5q0 -53 36 -76.5t89 -23.5q57 0 104.5 30.5t47.5 110.5v90zM678 756q-10 -2 -24.5 -3t-41.5 -1q-98 0 -112 69q-18 -23 -62.5 -48t-124.5 -25q-98 0 -160.5 51t-62.5 149 q0 51 17.5 84t48 54.5t72.5 32.5t94 22l122 22q23 4 35.5 9.5t12.5 27.5v10q0 45 -25 76t-105 31t-112.5 -37t-32.5 -96l-111 14q0 109 75 163t188 54q111 0 174 -41t63 -164v-315q0 -29 11.5 -40t37.5 -11h23v-88z" />
<glyph unicode="&#xab;" horiz-adv-x="942" d="M100 518v213l310 258v-196l-201 -158l201 -174v-191zM514 518v213l309 258v-196l-200 -158l200 -174v-191z" />
<glyph unicode="&#xac;" horiz-adv-x="1153" d="M1020 365h-154v430h-780v135h934v-565z" />
<glyph unicode="&#xad;" horiz-adv-x="786" d="M657 645v-178h-528v178h528z" />
<glyph unicode="&#xae;" horiz-adv-x="1572" d="M788 768q49 0 78 2t47 12q57 27 58 99q0 76 -58 100q-18 10 -47.5 12t-77.5 2h-178v-227h178zM610 309h-137v811h332q109 0 168 -26q53 -23 96 -75t43 -138q0 -92 -56.5 -152.5t-140.5 -79.5l238 -340h-170l-229 332h-144v-332zM1335 715q0 115 -42 217t-114.5 179 t-173 122t-217.5 45t-218 -45t-174.5 -122t-115.5 -179.5t-42 -216.5q0 -115 42 -218.5t115.5 -180t175 -121.5t217.5 -45q117 0 217.5 45t173 121.5t114.5 180t42 218.5zM1483 715q0 -147 -53.5 -275.5t-146.5 -222.5t-220 -148.5t-275 -54.5q-150 0 -277.5 54.5 t-220.5 148.5t-146.5 222t-53.5 276q0 147 53.5 275t146.5 222.5t221 148.5t277 54q147 0 274.5 -54t220.5 -148.5t146.5 -222.5t53.5 -275z" />
<glyph unicode="&#xaf;" horiz-adv-x="964" d="M205 1329h555v-137h-555v137z" />
<glyph unicode="&#xb0;" horiz-adv-x="763" d="M229 1118q0 -66 44 -110.5t110 -44.5t110 45t44 110q0 66 -44 111t-110 45t-110 -45t-44 -111zM78 1118q0 63 23.5 117.5t64.5 94.5t96 63.5t121 23.5q63 0 119.5 -23.5t96.5 -63.5t63.5 -94t23.5 -118q0 -63 -23.5 -117.5t-63.5 -95.5t-96.5 -64.5t-119.5 -23.5 q-66 0 -121 23.5t-96 64.5t-64.5 95.5t-23.5 117.5z" />
<glyph unicode="&#xb1;" horiz-adv-x="1413" d="M106 0v156h1201v-156h-1201zM786 211h-157v428h-523v156h523v426h157v-426h521v-156h-521v-428z" />
<glyph unicode="&#xb2;" horiz-adv-x="808" d="M133 1016q-16 29 -22.5 59.5t-6.5 61.5q0 53 20.5 103t59.5 88t94.5 60.5t124.5 22.5q74 0 129.5 -22.5t92.5 -60.5t55 -90t18 -112q0 -84 -33.5 -151.5t-86 -124.5t-118 -104.5t-126.5 -88.5v-4q-8 0 8 1t46 1t69 1t80 1h157v-120h-577v112q27 14 60.5 38t72.5 52.5 t78 60t75 62.5q59 53 103.5 113.5t44.5 144.5q0 82 -43 124t-111 42q-74 0 -111.5 -45t-37.5 -102q0 -63 35 -135z" />
<glyph unicode="&#xb3;" horiz-adv-x="784" d="M221 827q4 -102 51 -141t113 -39q78 0 122 37t44 109q0 78 -55.5 107.5t-141.5 29.5h-61v121h51q37 0 71 4t59.5 17t40.5 37t15 62q0 55 -35.5 88t-107.5 33q-78 0 -114.5 -45t-41.5 -108l-129 30q0 33 16.5 75t51.5 80t91 63.5t134 25.5q131 0 205 -60.5t74 -158.5 q0 -78 -38 -125t-83 -68q49 -23 95 -72.5t46 -140.5q0 -119 -84 -192.5t-229 -73.5q-135 0 -215 74t-88 199z" />
<glyph unicode="&#xb4;" horiz-adv-x="915" d="M709 1393l-209 -263h-150l142 263h217z" />
<glyph unicode="&#xb5;" horiz-adv-x="1056" d="M487 -25q-59 0 -107 20.5t-65 37.5v-422h-176v1364h172v-561q0 -133 33 -197q27 -51 73 -71.5t115 -20.5q61 0 107.5 23.5t78.5 63.5t47 92t15 112v559h170v-975h-170v143q-41 -72 -112.5 -120t-180.5 -48z" />
<glyph unicode="&#xb6;" horiz-adv-x="1316" d="M563 582h-18q-72 0 -125 6t-94 17t-73 28.5t-58 40.5q-137 109 -138 313q0 205 138 313q27 23 58.5 40.5t72.5 28.5t94 17.5t125 6.5h700v-133h-162v-1522h-145v1522h-227v-1522h-148v844z" />
<glyph unicode="&#xb7;" horiz-adv-x="446" d="M322 772v-233h-195v233h195z" />
<glyph unicode="&#xb8;" horiz-adv-x="735" d="M301 14h113l-60 -84h6q72 0 121 -36.5t49 -112.5q0 -47 -17 -80t-46 -54.5t-64.5 -31.5t-74.5 -10q-29 0 -57.5 5t-53.5 15l25 78q31 -12 71 -12q39 0 68 16.5t29 56.5q0 39 -27 55.5t-61 16.5q-45 0 -76 -18l-41 65z" />
<glyph unicode="&#xb9;" horiz-adv-x="536" d="M406 537h-142v573h-209v113h49q88 0 127 32q23 18 36.5 55.5t15.5 82.5h123v-856z" />
<glyph unicode="&#xba;" horiz-adv-x="755" d="M207 1104q0 -109 49 -168t123 -59q72 0 121 60t49 167q0 106 -47 166.5t-123 60.5t-124 -61.5t-48 -165.5zM84 1104q0 154 80 244t215 90t214 -90.5t79 -243.5q0 -156 -79 -245t-214 -89t-215 89t-80 245z" />
<glyph unicode="&#xbb;" horiz-adv-x="942" d="M532 270v191l201 174l-201 158v196l310 -258v-213zM119 270v191l200 174l-200 158v196l309 -258v-213z" />
<glyph unicode="&#xbc;" horiz-adv-x="1558" d="M463 0h-154l725 1393h152zM1202 338v151q0 68 3 118t5 73h-2q-14 -35 -43 -78l-82 -123q-18 -29 -36.5 -53.5t-34.5 -44.5q-18 -23 -35 -43h225zM1341 0h-139v217h-387v94l395 553h131v-526h158v-121h-158v-217zM416 537h-142v573h-208v113h49q88 0 127 32q23 18 36 55.5 t15 82.5h123v-856z" />
<glyph unicode="&#xbd;" horiz-adv-x="1634" d="M457 0h-154l725 1393h152zM412 537h-142v573h-209v113h50q88 0 127 32q23 18 36 55.5t15 82.5h123v-856zM989 479q-16 29 -22 59.5t-6 61.5q0 53 20 103.5t59 88t94.5 60t125.5 22.5q74 0 129 -22.5t92 -60t55 -90t18 -111.5q0 -84 -33.5 -151.5t-86 -125t-118 -104.5 t-126.5 -88v-4q-8 0 8 1t46 1t69 1t80 1h157v-121h-577v113q27 14 60.5 37.5t72.5 52t78 60.5t76 63q59 53 103 113.5t44 144.5q0 82 -43 124t-111 42q-74 0 -111.5 -45.5t-37.5 -102.5q0 -63 35 -135z" />
<glyph unicode="&#xbe;" horiz-adv-x="1746" d="M1391 338v151q0 68 3 118t5 73h-2q-14 -35 -43 -78l-82 -123q-18 -29 -36.5 -53.5t-35.5 -44.5q-18 -23 -35 -43h226zM1530 0h-139v217h-387v94l395 553h131v-526h158v-121h-158v-217zM651 0h-153l725 1393h151zM213 827q4 -102 51 -141t113 -39q78 0 122 37t44 109 q0 78 -55.5 107.5t-141.5 29.5h-61v121h51q37 0 70.5 4t59.5 17t41 37t15 62q0 55 -35.5 88t-107.5 33q-78 0 -115 -45t-41 -108l-129 30q0 33 16.5 75t51.5 80t91 63.5t134 25.5q131 0 205 -60.5t74 -158.5q0 -78 -38 -125t-83 -68q49 -23 95 -72.5t46 -140.5 q0 -119 -84 -192.5t-229 -73.5q-135 0 -215 74t-88 199z" />
<glyph unicode="&#xbf;" horiz-adv-x="958" d="M422 750v227h184v-227h-184zM870 121q8 -18 17 -43q6 -23 11 -54.5t5 -72.5q0 -80 -30.5 -149.5t-86 -122t-134.5 -82t-177 -29.5q-104 0 -182 28.5t-131 78t-80 116t-27 141.5q0 72 16.5 129.5t45 105.5t66.5 90t79 81l53 49q51 47 79 90t28 127v64h182v-78 q0 -47 -6 -83t-22.5 -70t-45 -68.5t-75.5 -77.5l-76 -68q-63 -55 -102 -119.5t-39 -148.5q0 -98 62 -167t181 -69q117 0 181.5 71t64.5 169q0 39 -7 73t-15 60q-8 31 -21 55z" />
<glyph unicode="&#xc0;" horiz-adv-x="1216" d="M657 1016q-41 109 -53 164h-2q-8 -27 -20.5 -68t-32.5 -98l-156 -457h422zM201 0h-189l498 1393h201l489 -1393h-194l-140 401h-526zM582 1524l-291 297h250l215 -297h-174z" />
<glyph unicode="&#xc1;" horiz-adv-x="1216" d="M657 1016q-41 109 -53 164h-2q-8 -27 -20.5 -68t-32.5 -98l-156 -457h422zM201 0h-189l498 1393h201l489 -1393h-194l-140 401h-526zM494 1524l215 297h249l-290 -297h-174z" />
<glyph unicode="&#xc2;" horiz-adv-x="1216" d="M657 1016q-41 109 -53 164h-2q-8 -27 -20.5 -68t-32.5 -98l-156 -457h422zM201 0h-189l498 1393h201l489 -1393h-194l-140 401h-526zM485 1524h-174l219 299h158l217 -299h-170l-127 170z" />
<glyph unicode="&#xc3;" horiz-adv-x="1216" d="M657 1016q-41 109 -53 164h-2q-8 -27 -20.5 -68t-32.5 -98l-156 -457h422zM201 0h-189l498 1393h201l489 -1393h-194l-140 401h-526zM963 1751q-16 -37 -35 -74t-44.5 -66.5t-58 -48t-77.5 -18.5t-85 16.5t-75 34.5q-23 10 -49.5 26.5t-55.5 16.5q-16 0 -28.5 -10 t-21.5 -24.5t-15 -32t-8 -29.5l-138 29q8 23 24.5 58.5t43.5 69.5t63.5 57.5t88.5 23.5q37 0 70.5 -12.5t66.5 -30.5q29 -16 57.5 -31.5t56.5 -15.5q35 0 54.5 31.5t29.5 64.5z" />
<glyph unicode="&#xc4;" horiz-adv-x="1216" d="M657 1016q-41 109 -53 164h-2q-8 -27 -20.5 -68t-32.5 -98l-156 -457h422zM201 0h-189l498 1393h201l489 -1393h-194l-140 401h-526zM711 1759h174v-221h-174v221zM342 1759h174v-221h-174v221z" />
<glyph unicode="&#xc5;" horiz-adv-x="1216" d="M657 1016q-41 109 -53 164h-2q-8 -27 -20.5 -68t-32.5 -98l-156 -457h422zM201 0h-189l498 1393h201l489 -1393h-194l-140 401h-526zM522 1651q0 -35 23.5 -57.5t56.5 -22.5t56.5 22.5t23.5 57.5t-23.5 57.5t-56.5 22.5t-56.5 -22.5t-23.5 -57.5zM401 1651q0 86 58.5 143 t144.5 57t144.5 -57t58.5 -143t-58.5 -143.5t-144.5 -57.5t-144.5 57.5t-58.5 143.5z" />
<glyph unicode="&#xc6;" horiz-adv-x="1927" d="M883 967v85t1 83t2 69.5t1 44.5h-4q-10 -14 -21.5 -36.5t-25 -47t-26.5 -49t-24 -43.5l-315 -541h412v435zM883 0v371h-502l-215 -371h-209l829 1393h1029v-160h-752v-434h682v-162h-682v-475h792v-162h-972z" />
<glyph unicode="&#xc7;" horiz-adv-x="1327" d="M1272 317q-72 -152 -201 -240.5t-307 -99.5l-27 -47h6q72 0 121 -36.5t49 -112.5q0 -47 -17 -80t-46 -54.5t-64.5 -31.5t-74.5 -10q-29 0 -57.5 5t-53.5 15l25 78q31 -12 71 -12q39 0 68 16.5t29 56.5q0 39 -27 55.5t-61 16.5q-45 0 -76 -18l-41 65l69 97 q-125 10 -229 63t-180 145.5t-118 220.5t-42 287q0 160 44 292t127 227.5t199.5 148.5t264.5 53q186 0 322.5 -85t214.5 -232l-154 -105q-53 129 -150.5 197t-232.5 68q-104 0 -186 -40t-140.5 -114t-89.5 -177.5t-31 -232.5q0 -127 31 -231.5t89.5 -178t140 -113.5 t186.5 -40q135 0 233.5 69.5t151.5 196.5z" />
<glyph unicode="&#xc8;" horiz-adv-x="1204" d="M1133 0h-971v1393h932v-162h-752v-434h682v-162h-682v-473h791v-162zM602 1524l-291 297h250l215 -297h-174z" />
<glyph unicode="&#xc9;" horiz-adv-x="1204" d="M1133 0h-971v1393h932v-162h-752v-434h682v-162h-682v-473h791v-162zM489 1524l216 297h249l-290 -297h-175z" />
<glyph unicode="&#xca;" horiz-adv-x="1204" d="M1133 0h-971v1393h932v-162h-752v-434h682v-162h-682v-473h791v-162zM514 1524h-174l219 299h158l217 -299h-170l-127 170z" />
<glyph unicode="&#xcb;" horiz-adv-x="1204" d="M1133 0h-971v1393h932v-162h-752v-434h682v-162h-682v-473h791v-162zM727 1759h174v-221h-174v221zM358 1759h174v-221h-174v221z" />
<glyph unicode="&#xcc;" horiz-adv-x="503" d="M174 1524l-291 297h250l215 -297h-174zM342 0h-180v1393h180v-1393z" />
<glyph unicode="&#xcd;" horiz-adv-x="503" d="M158 1524l215 297h250l-291 -297h-174zM342 0h-180v1393h180v-1393z" />
<glyph unicode="&#xce;" horiz-adv-x="503" d="M129 1524h-174l219 299h158l217 -299h-170l-127 170zM342 0h-180v1393h180v-1393z" />
<glyph unicode="&#xcf;" horiz-adv-x="503" d="M350 1759h174v-221h-174v221zM-18 1759h174v-221h-174v221zM342 0h-180v1393h180v-1393z" />
<glyph unicode="&#xd0;" horiz-adv-x="1366" d="M350 817h455v-158h-455v-499h193q63 0 116.5 1t101.5 9t89 25.5t80 50.5q72 59 118 176t46 270q0 135 -45 256t-125 193q-37 31 -77 48t-88 26.5t-107.5 11.5t-135.5 2h-166v-412zM170 0v659h-129v158h129v574h340q84 0 154.5 -2.5t132 -11.5t115 -29.5t104.5 -57.5 q113 -84 185.5 -237.5t72.5 -352.5q0 -174 -53.5 -315t-151.5 -240q-55 -55 -113.5 -83.5t-125 -43t-147.5 -16.5t-181 -2h-332z" />
<glyph unicode="&#xd1;" horiz-adv-x="1439" d="M995 457q16 -23 34 -48.5t32 -48t24.5 -39t14.5 -22.5h2q-2 29 -2 66q-2 31 -2 71.5v87.5v869h180v-1393h-178l-651 938q-14 20 -32 47t-34 51.5t-28.5 44t-14.5 25.5h-2q0 -27 2 -55q0 -25 1 -55.5t1 -61.5v-934h-180v1393h178zM1081 1751q-16 -37 -34.5 -74t-44 -66.5 t-58.5 -48t-78 -18.5t-85 16.5t-74 34.5q-23 10 -49.5 26.5t-55.5 16.5q-16 0 -28.5 -10t-21.5 -24.5t-15.5 -32t-8.5 -29.5l-137 29q8 23 24.5 58.5t43 69.5t63.5 57.5t88 23.5q37 0 71 -12.5t67 -30.5q29 -16 57.5 -31.5t56.5 -15.5q35 0 54.5 31.5t29.5 64.5z" />
<glyph unicode="&#xd2;" horiz-adv-x="1441" d="M276 696q0 -127 31 -230.5t88.5 -177t139 -113.5t186.5 -40q102 0 184 40t139.5 113.5t88 177t30.5 230.5t-30.5 230.5t-87 177.5t-138.5 113.5t-186 39.5t-186 -39.5t-139.5 -112.5t-88.5 -176.5t-31 -232.5zM88 696q0 160 44 292t126 227.5t199.5 148.5t263.5 53 q145 0 262 -53t199 -148.5t126 -227.5t44 -292t-44 -292t-125 -227t-198 -148.5t-264 -53.5q-145 0 -263 53.5t-200 148.5t-126 227t-44 292zM696 1524l-290 297h249l215 -297h-174z" />
<glyph unicode="&#xd3;" horiz-adv-x="1441" d="M276 696q0 -127 31 -230.5t88.5 -177t139 -113.5t186.5 -40q102 0 184 40t139.5 113.5t88 177t30.5 230.5t-30.5 230.5t-87 177.5t-138.5 113.5t-186 39.5t-186 -39.5t-139.5 -112.5t-88.5 -176.5t-31 -232.5zM88 696q0 160 44 292t126 227.5t199.5 148.5t263.5 53 q145 0 262 -53t199 -148.5t126 -227.5t44 -292t-44 -292t-125 -227t-198 -148.5t-264 -53.5q-145 0 -263 53.5t-200 148.5t-126 227t-44 292zM571 1524l215 297h250l-291 -297h-174z" />
<glyph unicode="&#xd4;" horiz-adv-x="1441" d="M276 696q0 -127 31 -230.5t88.5 -177t139 -113.5t186.5 -40q102 0 184 40t139.5 113.5t88 177t30.5 230.5t-30.5 230.5t-87 177.5t-138.5 113.5t-186 39.5t-186 -39.5t-139.5 -112.5t-88.5 -176.5t-31 -232.5zM88 696q0 160 44 292t126 227.5t199.5 148.5t263.5 53 q145 0 262 -53t199 -148.5t126 -227.5t44 -292t-44 -292t-125 -227t-198 -148.5t-264 -53.5q-145 0 -263 53.5t-200 148.5t-126 227t-44 292zM602 1524h-174l219 299h158l217 -299h-170l-127 170z" />
<glyph unicode="&#xd5;" horiz-adv-x="1441" d="M276 696q0 -127 31 -230.5t88.5 -177t139 -113.5t186.5 -40q102 0 184 40t139.5 113.5t88 177t30.5 230.5t-30.5 230.5t-87 177.5t-138.5 113.5t-186 39.5t-186 -39.5t-139.5 -112.5t-88.5 -176.5t-31 -232.5zM88 696q0 160 44 292t126 227.5t199.5 148.5t263.5 53 q145 0 262 -53t199 -148.5t126 -227.5t44 -292t-44 -292t-125 -227t-198 -148.5t-264 -53.5q-145 0 -263 53.5t-200 148.5t-126 227t-44 292zM1075 1751q-16 -37 -34.5 -74t-44 -66.5t-58.5 -48t-78 -18.5t-85 16.5t-75 34.5q-23 10 -49 26.5t-55 16.5q-16 0 -28.5 -10 t-21.5 -24.5t-15.5 -32t-8.5 -29.5l-137 29q8 23 24.5 58.5t43 69.5t63.5 57.5t88 23.5q37 0 71 -12.5t66 -30.5q29 -16 57.5 -31.5t57.5 -15.5q35 0 54.5 31.5t29.5 64.5z" />
<glyph unicode="&#xd6;" horiz-adv-x="1441" d="M276 696q0 -127 31 -230.5t88.5 -177t139 -113.5t186.5 -40q102 0 184 40t139.5 113.5t88 177t30.5 230.5t-30.5 230.5t-87 177.5t-138.5 113.5t-186 39.5t-186 -39.5t-139.5 -112.5t-88.5 -176.5t-31 -232.5zM88 696q0 160 44 292t126 227.5t199.5 148.5t263.5 53 q145 0 262 -53t199 -148.5t126 -227.5t44 -292t-44 -292t-125 -227t-198 -148.5t-264 -53.5q-145 0 -263 53.5t-200 148.5t-126 227t-44 292zM823 1759h174v-221h-174v221zM455 1759h174v-221h-174v221z" />
<glyph unicode="&#xd7;" horiz-adv-x="1298" d="M649 489l-452 -452l-113 113l453 452l-451 453l111 110l450 -452l455 454l112 -112l-454 -455l452 -450l-110 -111z" />
<glyph unicode="&#xd8;" horiz-adv-x="1447" d="M281 696q0 -174 55 -299l672 754q-53 51 -125 78.5t-158 27.5q-104 0 -186 -39.5t-139.5 -112.5t-88 -176.5t-30.5 -232.5zM1167 696q0 188 -65 324l-680 -760q55 -59 132 -92t171 -33q102 0 184 40t139.5 113.5t88 177t30.5 230.5zM92 696q0 160 44 292t126 227.5 t200 148.5t263 53q119 0 219 -37t178 -102l164 184l119 -102l-178 -199q129 -188 129 -465q0 -160 -44 -292t-125 -227t-198 -148.5t-264 -53.5q-129 0 -234.5 40t-185.5 116l-145 -164l-117 103l164 182q-55 90 -85 201.5t-30 242.5z" />
<glyph unicode="&#xd9;" horiz-adv-x="1351" d="M676 -27q-156 0 -271.5 52.5t-183.5 167.5q-18 33 -32.5 67.5t-22.5 78.5t-12 100.5t-4 133.5v820h180v-818q0 -86 7 -166.5t44 -140.5q39 -66 115.5 -100.5t179.5 -34.5q102 0 179 35t116 100q37 59 44 140t7 167v818h180v-820q0 -78 -4 -134t-12 -100t-22.5 -79 t-33.5 -67q-68 -115 -183 -167.5t-271 -52.5zM653 1524l-291 297h250l215 -297h-174z" />
<glyph unicode="&#xda;" horiz-adv-x="1351" d="M676 -27q-156 0 -271.5 52.5t-183.5 167.5q-18 33 -32.5 67.5t-22.5 78.5t-12 100.5t-4 133.5v820h180v-818q0 -86 7 -166.5t44 -140.5q39 -66 115.5 -100.5t179.5 -34.5q102 0 179 35t116 100q37 59 44 140t7 167v818h180v-820q0 -78 -4 -134t-12 -100t-22.5 -79 t-33.5 -67q-68 -115 -183 -167.5t-271 -52.5zM532 1524l216 297h249l-290 -297h-175z" />
<glyph unicode="&#xdb;" horiz-adv-x="1351" d="M676 -27q-156 0 -271.5 52.5t-183.5 167.5q-18 33 -32.5 67.5t-22.5 78.5t-12 100.5t-4 133.5v820h180v-818q0 -86 7 -166.5t44 -140.5q39 -66 115.5 -100.5t179.5 -34.5q102 0 179 35t116 100q37 59 44 140t7 167v818h180v-820q0 -78 -4 -134t-12 -100t-22.5 -79 t-33.5 -67q-68 -115 -183 -167.5t-271 -52.5zM557 1524h-174l219 299h158l217 -299h-170l-127 170z" />
<glyph unicode="&#xdc;" horiz-adv-x="1351" d="M676 -27q-156 0 -271.5 52.5t-183.5 167.5q-18 33 -32.5 67.5t-22.5 78.5t-12 100.5t-4 133.5v820h180v-818q0 -86 7 -166.5t44 -140.5q39 -66 115.5 -100.5t179.5 -34.5q102 0 179 35t116 100q37 59 44 140t7 167v818h180v-820q0 -78 -4 -134t-12 -100t-22.5 -79 t-33.5 -67q-68 -115 -183 -167.5t-271 -52.5zM778 1759h174v-221h-174v221zM410 1759h174v-221h-174v221z" />
<glyph unicode="&#xdd;" horiz-adv-x="1210" d="M692 0h-180v569l-504 824h207l397 -652l408 652h203l-531 -824v-569zM487 1524l215 297h250l-290 -297h-175z" />
<glyph unicode="&#xde;" horiz-adv-x="1226" d="M342 547h326q74 0 114.5 6t75.5 18q72 27 103.5 78t31.5 129t-31.5 129t-103.5 78q-35 12 -76 18.5t-114 6.5h-326v-463zM342 0h-180v1393h180v-226h332q102 0 164.5 -10t109.5 -31q104 -47 166 -133t62 -215q0 -111 -47.5 -192.5t-129.5 -130.5q-72 -43 -152.5 -54.5 t-195.5 -11.5h-309v-389z" />
<glyph unicode="&#xdf;" horiz-adv-x="991" d="M305 0h-170v932q0 70 3 120t8.5 86t13.5 62.5t20 48.5q45 86 127 127t193 41q92 0 158.5 -24.5t110.5 -67.5t64.5 -101.5t20.5 -125.5q0 -104 -40 -169t-97 -93q35 -16 68.5 -42t59 -72t42 -115.5t16.5 -174.5q0 -123 -20.5 -207t-59.5 -137t-96 -76.5t-129 -23.5 q-68 0 -112 18.5t-70 52.5q-35 43 -46.5 104.5t-11.5 143.5v68h125v-39q0 -49 3 -85t14 -65q10 -27 29.5 -46t62.5 -19q84 0 112.5 77.5t28.5 235.5q0 96 -14 164t-62 104q-27 20 -70.5 31.5t-133.5 11.5h-47v136h32q72 0 104.5 5t55.5 15q43 18 62.5 67.5t19.5 114.5 q0 88 -46 141.5t-132 53.5q-66 0 -110 -28.5t-62 -75.5q-6 -14 -10.5 -32t-7.5 -45.5t-5 -69.5t-2 -103v-924z" />
<glyph unicode="&#xe0;" horiz-adv-x="1019" d="M705 496q-10 -4 -35 -11.5t-78 -17.5l-94 -21q-57 -12 -106.5 -25t-84.5 -38q-51 -35 -51 -107q0 -84 57.5 -127t149.5 -43q45 0 89 11.5t78 37t54.5 65.5t20.5 97v179zM975 -14q-16 -4 -40 -6.5t-56 -2.5q-90 0 -125 36t-39 96h-2q-12 -18 -35 -42t-58.5 -44.5t-87 -35 t-120.5 -14.5q-150 0 -241 77t-91 218q0 84 33.5 138.5t91.5 89.5q57 35 132 52t152 32l134 22q47 8 64.5 18.5t17.5 41.5v20q0 39 -8.5 70.5t-31 55t-62.5 37t-105 13.5q-66 0 -110 -16.5t-70.5 -44t-38 -65.5t-11.5 -81l-164 19q-2 82 30 143t87 101t129 60.5t156 20.5 t148.5 -13t113.5 -48t73.5 -94.5t26.5 -151.5v-495q0 -51 19.5 -70t64.5 -19h23v-118zM508 1393l141 -263h-149l-209 263h217z" />
<glyph unicode="&#xe1;" horiz-adv-x="1019" d="M705 496q-10 -4 -35 -11.5t-78 -17.5l-94 -21q-57 -12 -106.5 -25t-84.5 -38q-51 -35 -51 -107q0 -84 57.5 -127t149.5 -43q45 0 89 11.5t78 37t54.5 65.5t20.5 97v179zM975 -14q-16 -4 -40 -6.5t-56 -2.5q-90 0 -125 36t-39 96h-2q-12 -18 -35 -42t-58.5 -44.5t-87 -35 t-120.5 -14.5q-150 0 -241 77t-91 218q0 84 33.5 138.5t91.5 89.5q57 35 132 52t152 32l134 22q47 8 64.5 18.5t17.5 41.5v20q0 39 -8.5 70.5t-31 55t-62.5 37t-105 13.5q-66 0 -110 -16.5t-70.5 -44t-38 -65.5t-11.5 -81l-164 19q-2 82 30 143t87 101t129 60.5t156 20.5 t148.5 -13t113.5 -48t73.5 -94.5t26.5 -151.5v-495q0 -51 19.5 -70t64.5 -19h23v-118zM754 1393l-209 -263h-150l142 263h217z" />
<glyph unicode="&#xe2;" horiz-adv-x="1019" d="M705 496q-10 -4 -35 -11.5t-78 -17.5l-94 -21q-57 -12 -106.5 -25t-84.5 -38q-51 -35 -51 -107q0 -84 57.5 -127t149.5 -43q45 0 89 11.5t78 37t54.5 65.5t20.5 97v179zM975 -14q-16 -4 -40 -6.5t-56 -2.5q-90 0 -125 36t-39 96h-2q-12 -18 -35 -42t-58.5 -44.5t-87 -35 t-120.5 -14.5q-150 0 -241 77t-91 218q0 84 33.5 138.5t91.5 89.5q57 35 132 52t152 32l134 22q47 8 64.5 18.5t17.5 41.5v20q0 39 -8.5 70.5t-31 55t-62.5 37t-105 13.5q-66 0 -110 -16.5t-70.5 -44t-38 -65.5t-11.5 -81l-164 19q-2 82 30 143t87 101t129 60.5t156 20.5 t148.5 -13t113.5 -48t73.5 -94.5t26.5 -151.5v-495q0 -51 19.5 -70t64.5 -19h23v-118zM381 1130h-158l201 263h162l202 -263h-153l-131 136z" />
<glyph unicode="&#xe3;" horiz-adv-x="1019" d="M705 496q-10 -4 -35 -11.5t-78 -17.5l-94 -21q-57 -12 -106.5 -25t-84.5 -38q-51 -35 -51 -107q0 -84 57.5 -127t149.5 -43q45 0 89 11.5t78 37t54.5 65.5t20.5 97v179zM975 -14q-16 -4 -40 -6.5t-56 -2.5q-90 0 -125 36t-39 96h-2q-12 -18 -35 -42t-58.5 -44.5t-87 -35 t-120.5 -14.5q-150 0 -241 77t-91 218q0 84 33.5 138.5t91.5 89.5q57 35 132 52t152 32l134 22q47 8 64.5 18.5t17.5 41.5v20q0 39 -8.5 70.5t-31 55t-62.5 37t-105 13.5q-66 0 -110 -16.5t-70.5 -44t-38 -65.5t-11.5 -81l-164 19q-2 82 30 143t87 101t129 60.5t156 20.5 t148.5 -13t113.5 -48t73.5 -94.5t26.5 -151.5v-495q0 -51 19.5 -70t64.5 -19h23v-118zM864 1360q-16 -37 -34.5 -74t-44 -66.5t-58.5 -48t-78 -18.5t-85 16.5t-75 34.5q-23 10 -49 26.5t-55 16.5q-16 0 -28.5 -10t-21.5 -24.5t-15.5 -32t-8.5 -29.5l-137 29q8 23 24.5 58.5 t43 69t63.5 57.5t88 24q37 0 71 -12.5t66 -30.5q29 -16 57.5 -32t57.5 -16q35 0 54.5 32t29.5 65z" />
<glyph unicode="&#xe4;" horiz-adv-x="1019" d="M705 496q-10 -4 -35 -11.5t-78 -17.5l-94 -21q-57 -12 -106.5 -25t-84.5 -38q-51 -35 -51 -107q0 -84 57.5 -127t149.5 -43q45 0 89 11.5t78 37t54.5 65.5t20.5 97v179zM975 -14q-16 -4 -40 -6.5t-56 -2.5q-90 0 -125 36t-39 96h-2q-12 -18 -35 -42t-58.5 -44.5t-87 -35 t-120.5 -14.5q-150 0 -241 77t-91 218q0 84 33.5 138.5t91.5 89.5q57 35 132 52t152 32l134 22q47 8 64.5 18.5t17.5 41.5v20q0 39 -8.5 70.5t-31 55t-62.5 37t-105 13.5q-66 0 -110 -16.5t-70.5 -44t-38 -65.5t-11.5 -81l-164 19q-2 82 30 143t87 101t129 60.5t156 20.5 t148.5 -13t113.5 -48t73.5 -94.5t26.5 -151.5v-495q0 -51 19.5 -70t64.5 -19h23v-118zM621 1372h174v-221h-174v221zM252 1372h174v-221h-174v221z" />
<glyph unicode="&#xe5;" horiz-adv-x="1019" d="M705 496q-10 -4 -35 -11.5t-78 -17.5l-94 -21q-57 -12 -106.5 -25t-84.5 -38q-51 -35 -51 -107q0 -84 57.5 -127t149.5 -43q45 0 89 11.5t78 37t54.5 65.5t20.5 97v179zM975 -14q-16 -4 -40 -6.5t-56 -2.5q-90 0 -125 36t-39 96h-2q-12 -18 -35 -42t-58.5 -44.5t-87 -35 t-120.5 -14.5q-150 0 -241 77t-91 218q0 84 33.5 138.5t91.5 89.5q57 35 132 52t152 32l134 22q47 8 64.5 18.5t17.5 41.5v20q0 39 -8.5 70.5t-31 55t-62.5 37t-105 13.5q-66 0 -110 -16.5t-70.5 -44t-38 -65.5t-11.5 -81l-164 19q-2 82 30 143t87 101t129 60.5t156 20.5 t148.5 -13t113.5 -48t73.5 -94.5t26.5 -151.5v-495q0 -51 19.5 -70t64.5 -19h23v-118zM422 1249q0 -35 23.5 -57.5t56.5 -22.5t56.5 22.5t23.5 57.5t-23.5 57.5t-56.5 22.5t-56.5 -22.5t-23.5 -57.5zM301 1249q0 86 58.5 143.5t144.5 57.5t144.5 -57.5t58.5 -143.5 t-58.5 -143t-144.5 -57t-144.5 57t-58.5 143z" />
<glyph unicode="&#xe6;" horiz-adv-x="1658" d="M1145 860q-113 0 -192 -73.5t-93 -202.5h547q-10 129 -77.5 202.5t-184.5 73.5zM705 496q-10 -4 -35 -11.5t-78 -17.5l-94 -21q-57 -12 -106.5 -25t-84.5 -38q-51 -35 -51 -107q0 -84 57.5 -127t149.5 -43q45 0 89 11.5t78 37t54.5 65.5t20.5 97v179zM1147 -25 q-117 0 -208 42t-153 120q-12 -20 -42.5 -48t-76.5 -53.5t-107.5 -44t-137.5 -18.5q-154 0 -248 77t-94 218q0 84 33.5 138.5t91.5 89.5q57 35 132 52t152 32l134 22q47 8 64.5 18.5t17.5 41.5v20q0 39 -8.5 70.5t-31 55t-62.5 37t-105 13.5q-66 0 -110 -16.5t-70.5 -44 t-38 -65.5t-11.5 -81l-164 19q-2 82 30 143t87 101t129 60.5t156 20.5q111 0 192.5 -25.5t126.5 -97.5q61 59 141.5 92t178.5 33q111 0 192.5 -39.5t136 -108.5t82 -163t27.5 -203v-34h-729q2 -57 19.5 -116t53.5 -105t93 -75.5t139 -29.5q68 0 117 18.5t85 46t59.5 56 t35.5 51.5l123 -92q-14 -23 -46 -61t-84 -74.5t-127 -64.5t-175 -28z" />
<glyph unicode="&#xe7;" horiz-adv-x="1015" d="M958 225q-55 -115 -151 -177t-225 -71l-29 -47h6q72 0 121 -36.5t49 -112.5q0 -47 -17.5 -80t-46 -54.5t-64.5 -31.5t-75 -10q-29 0 -57.5 5t-52.5 15l24 78q31 -12 72 -12q39 0 67.5 16.5t28.5 56.5q0 39 -26.5 55.5t-61.5 16.5q-45 0 -76 -18l-41 65l74 97 q-188 20 -292.5 153t-104.5 350q0 117 33.5 212.5t95 163t146.5 103t188 35.5q154 0 256 -69.5t151 -194.5l-141 -74q-31 86 -94.5 141.5t-171.5 55.5q-131 0 -210 -97t-79 -274q0 -176 82 -272t207 -96q111 0 178 47t104 129z" />
<glyph unicode="&#xe8;" horiz-adv-x="1056" d="M543 860q-113 0 -192 -73.5t-93 -202.5h547q-10 129 -77.5 202.5t-184.5 73.5zM975 201q-14 -23 -46 -61t-84 -74.5t-126 -63.5t-174 -27q-104 0 -190.5 35t-147 101.5t-94 162t-33.5 218.5q0 113 35 206t96 159.5t146 103t186 36.5q111 0 192.5 -38.5t136 -107.5 t82 -163t27.5 -203v-36h-729q2 -59 20.5 -118t55.5 -105t95 -74.5t138 -28.5q63 0 111.5 17.5t84.5 44t59.5 54t35.5 50.5zM518 1393l141 -263h-149l-209 263h217z" />
<glyph unicode="&#xe9;" horiz-adv-x="1056" d="M543 860q-113 0 -192 -73.5t-93 -202.5h547q-10 129 -77.5 202.5t-184.5 73.5zM975 201q-14 -23 -46 -61t-84 -74.5t-126 -63.5t-174 -27q-104 0 -190.5 35t-147 101.5t-94 162t-33.5 218.5q0 113 35 206t96 159.5t146 103t186 36.5q111 0 192.5 -38.5t136 -107.5 t82 -163t27.5 -203v-36h-729q2 -59 20.5 -118t55.5 -105t95 -74.5t138 -28.5q63 0 111.5 17.5t84.5 44t59.5 54t35.5 50.5zM799 1393l-209 -263h-150l142 263h217z" />
<glyph unicode="&#xea;" horiz-adv-x="1056" d="M543 860q-113 0 -192 -73.5t-93 -202.5h547q-10 129 -77.5 202.5t-184.5 73.5zM975 201q-14 -23 -46 -61t-84 -74.5t-126 -63.5t-174 -27q-104 0 -190.5 35t-147 101.5t-94 162t-33.5 218.5q0 113 35 206t96 159.5t146 103t186 36.5q111 0 192.5 -38.5t136 -107.5 t82 -163t27.5 -203v-36h-729q2 -59 20.5 -118t55.5 -105t95 -74.5t138 -28.5q63 0 111.5 17.5t84.5 44t59.5 54t35.5 50.5zM426 1130h-158l201 263h162l203 -263h-154l-131 136z" />
<glyph unicode="&#xeb;" horiz-adv-x="1056" d="M543 860q-113 0 -192 -73.5t-93 -202.5h547q-10 129 -77.5 202.5t-184.5 73.5zM975 201q-14 -23 -46 -61t-84 -74.5t-126 -63.5t-174 -27q-104 0 -190.5 35t-147 101.5t-94 162t-33.5 218.5q0 113 35 206t96 159.5t146 103t186 36.5q111 0 192.5 -38.5t136 -107.5 t82 -163t27.5 -203v-36h-729q2 -59 20.5 -118t55.5 -105t95 -74.5t138 -28.5q63 0 111.5 17.5t84.5 44t59.5 54t35.5 50.5zM649 1372h174v-221h-174v221zM281 1372h174v-221h-174v221z" />
<glyph unicode="&#xec;" horiz-adv-x="440" d="M168 1393l141 -263h-149l-209 263h217zM305 0h-170v975h170v-975z" />
<glyph unicode="&#xed;" horiz-adv-x="440" d="M498 1393l-209 -263h-150l142 263h217zM305 0h-170v975h170v-975z" />
<glyph unicode="&#xee;" horiz-adv-x="440" d="M96 1130h-157l200 263h162l203 -263h-154l-131 136zM305 0h-170v975h170v-975z" />
<glyph unicode="&#xef;" horiz-adv-x="440" d="M315 1372h174v-221h-174v221zM-53 1372h174v-221h-174v221zM305 0h-170v975h170v-975z" />
<glyph unicode="&#xf0;" horiz-adv-x="1073" d="M569 1479q18 -18 41 -44t46.5 -52.5t44 -52t34.5 -44.5l211 70l43 -117l-182 -57q86 -143 132 -303t46 -353q0 -115 -26.5 -215t-82 -175t-141.5 -118t-205 -43q-102 0 -186 36t-142.5 103.5t-90 163t-31.5 214.5t32.5 212t92 157.5t141.5 99t182 34.5q51 0 115 -17 t115 -52q-20 55 -44 111.5t-52 97.5q-78 -25 -161 -53.5t-159 -51.5l-43 119l289 90q-14 18 -35 42t-41 46.5t-39.5 43t-34.5 32.5zM250 494q0 -174 76.5 -271.5t203.5 -97.5q129 0 206 97t77 272q0 176 -77 266t-206 90t-204.5 -91t-75.5 -265z" />
<glyph unicode="&#xf1;" horiz-adv-x="1079" d="M954 0h-170v567q0 158 -57 219.5t-164 61.5q-61 0 -109 -22.5t-81 -61.5t-50.5 -91t-17.5 -110v-563h-170v975h170v-146q39 68 115 118t198 50q193 0 275 -125q31 -47 46 -111.5t15 -150.5v-610zM913 1360q-16 -37 -34.5 -74t-44 -66.5t-58.5 -48t-78 -18.5t-85 16.5 t-74 34.5q-23 10 -49.5 26.5t-55.5 16.5q-16 0 -28.5 -10t-21.5 -24.5t-15.5 -32t-8.5 -29.5l-137 29q8 23 24.5 58.5t43 69t63.5 57.5t88 24q37 0 71 -12.5t67 -30.5q29 -16 57.5 -32t56.5 -16q35 0 54.5 32t29.5 65z" />
<glyph unicode="&#xf2;" horiz-adv-x="1089" d="M535 1393l141 -263h-150l-209 263h218zM254 485q0 -176 81 -272t210 -96t210 97t81 271q0 178 -79 275.5t-212 97.5t-212 -98.5t-79 -274.5zM80 483q0 117 33.5 212.5t95 163t147.5 103t189 35.5q102 0 188 -35.5t147.5 -103t95.5 -163t34 -212.5t-34 -211t-94.5 -159.5 t-146.5 -101.5t-190 -36t-190.5 36t-147 101.5t-94 159.5t-33.5 211z" />
<glyph unicode="&#xf3;" horiz-adv-x="1089" d="M797 1393l-209 -263h-150l142 263h217zM254 485q0 -176 81 -272t210 -96t210 97t81 271q0 178 -79 275.5t-212 97.5t-212 -98.5t-79 -274.5zM80 483q0 117 33.5 212.5t95 163t147.5 103t189 35.5q102 0 188 -35.5t147.5 -103t95.5 -163t34 -212.5t-34 -211t-94.5 -159.5 t-146.5 -101.5t-190 -36t-190.5 36t-147 101.5t-94 159.5t-33.5 211z" />
<glyph unicode="&#xf4;" horiz-adv-x="1089" d="M424 1130h-158l201 263h162l202 -263h-153l-131 136zM254 485q0 -176 81 -272t210 -96t210 97t81 271q0 178 -79 275.5t-212 97.5t-212 -98.5t-79 -274.5zM80 483q0 117 33.5 212.5t95 163t147.5 103t189 35.5q102 0 188 -35.5t147.5 -103t95.5 -163t34 -212.5t-34 -211 t-94.5 -159.5t-146.5 -101.5t-190 -36t-190.5 36t-147 101.5t-94 159.5t-33.5 211z" />
<glyph unicode="&#xf5;" horiz-adv-x="1089" d="M897 1360q-16 -37 -34.5 -74t-44 -66.5t-58.5 -48t-78 -18.5t-85 16.5t-75 34.5q-23 10 -49.5 26.5t-54.5 16.5q-16 0 -28.5 -10t-22 -24.5t-15.5 -32t-8 -29.5l-137 29q8 23 24.5 58.5t43 69t63.5 57.5t88 24q37 0 70.5 -12.5t66.5 -30.5q29 -16 57.5 -32t57.5 -16 q35 0 54.5 32t29.5 65zM254 485q0 -176 81 -272t210 -96t210 97t81 271q0 178 -79 275.5t-212 97.5t-212 -98.5t-79 -274.5zM80 483q0 117 33.5 212.5t95 163t147.5 103t189 35.5q102 0 188 -35.5t147.5 -103t95.5 -163t34 -212.5t-34 -211t-94.5 -159.5t-146.5 -101.5 t-190 -36t-190.5 36t-147 101.5t-94 159.5t-33.5 211z" />
<glyph unicode="&#xf6;" horiz-adv-x="1089" d="M645 1372h174v-221h-174v221zM276 1372h175v-221h-175v221zM254 485q0 -176 81 -272t210 -96t210 97t81 271q0 178 -79 275.5t-212 97.5t-212 -98.5t-79 -274.5zM80 483q0 117 33.5 212.5t95 163t147.5 103t189 35.5q102 0 188 -35.5t147.5 -103t95.5 -163t34 -212.5 t-34 -211t-94.5 -159.5t-146.5 -101.5t-190 -36t-190.5 36t-147 101.5t-94 159.5t-33.5 211z" />
<glyph unicode="&#xf7;" horiz-adv-x="1599" d="M897 975v-223h-195v223h195zM897 223v-223h-195v223h195zM111 410v155h1378v-155h-1378z" />
<glyph unicode="&#xf8;" horiz-adv-x="1089" d="M391 162q68 -45 154 -45q129 0 210 97t81 271q0 117 -39 205zM698 813q-68 45 -153 45q-133 0 -212 -98t-79 -275q0 -119 37 -198zM903 827q51 -66 79 -152.5t28 -191.5q0 -117 -34 -211t-94.5 -159.5t-146.5 -101.5t-190 -36q-139 0 -248 64l-94 -125l-123 98l100 131 q-47 66 -73.5 151t-26.5 189q0 117 33.5 212.5t95 163t147.5 103t189 35.5q137 0 243 -65l99 127l125 -90z" />
<glyph unicode="&#xf9;" horiz-adv-x="1069" d="M516 1393l141 -263h-149l-209 263h217zM125 975h170v-561q0 -133 33 -197q27 -51 72.5 -71.5t115.5 -20.5q61 0 107.5 23.5t78 63.5t47 92t15.5 112v559h170v-975h-170v143q-41 -72 -115 -120t-196 -48q-76 0 -138.5 22.5t-105.5 70.5q-23 27 -39 54.5t-26.5 67t-14.5 95 t-4 135.5v555z" />
<glyph unicode="&#xfa;" horiz-adv-x="1069" d="M780 1393l-209 -263h-149l141 263h217zM125 975h170v-561q0 -133 33 -197q27 -51 72.5 -71.5t115.5 -20.5q61 0 107.5 23.5t78 63.5t47 92t15.5 112v559h170v-975h-170v143q-41 -72 -115 -120t-196 -48q-76 0 -138.5 22.5t-105.5 70.5q-23 27 -39 54.5t-26.5 67t-14.5 95 t-4 135.5v555z" />
<glyph unicode="&#xfb;" horiz-adv-x="1069" d="M408 1130h-158l201 263h161l203 -263h-153l-132 136zM125 975h170v-561q0 -133 33 -197q27 -51 72.5 -71.5t115.5 -20.5q61 0 107.5 23.5t78 63.5t47 92t15.5 112v559h170v-975h-170v143q-41 -72 -115 -120t-196 -48q-76 0 -138.5 22.5t-105.5 70.5q-23 27 -39 54.5 t-26.5 67t-14.5 95t-4 135.5v555z" />
<glyph unicode="&#xfc;" horiz-adv-x="1069" d="M633 1372h174v-221h-174v221zM264 1372h174v-221h-174v221zM125 975h170v-561q0 -133 33 -197q27 -51 72.5 -71.5t115.5 -20.5q61 0 107.5 23.5t78 63.5t47 92t15.5 112v559h170v-975h-170v143q-41 -72 -115 -120t-196 -48q-76 0 -138.5 22.5t-105.5 70.5 q-23 27 -39 54.5t-26.5 67t-14.5 95t-4 135.5v555z" />
<glyph unicode="&#xfd;" horiz-adv-x="903" d="M455 -199q-23 -63 -52.5 -103t-66.5 -63.5t-81 -32t-95 -8.5q-39 0 -69 4.5t-54 8.5v137q31 -4 57.5 -7t52.5 -3q37 0 68 7t55 32q16 16 28.5 38.5t25.5 59.5l43 125l-338 979h180l190 -590q10 -31 19.5 -61.5t17.5 -55.5q8 -29 17 -53h2q10 29 18 59q8 27 18.5 59 t22.5 64l199 578h170zM719 1393l-209 -263h-150l142 263h217z" />
<glyph unicode="&#xfe;" horiz-adv-x="1136" d="M299 487q0 -90 22.5 -158.5t62.5 -115.5t95.5 -71.5t118.5 -24.5q133 0 208 97t75 273q0 180 -79 274.5t-208 94.5q-63 0 -116.5 -23.5t-93.5 -70.5t-62.5 -116t-22.5 -159zM623 -25q-113 0 -195 47.5t-123 120.5v-532h-170v1782h170v-562q39 66 121 116t199 50 q92 0 170.5 -33.5t136 -98t90.5 -161t33 -219.5q0 -121 -32 -215t-89 -159.5t-137 -100.5t-174 -35z" />
<glyph unicode="&#xff;" horiz-adv-x="903" d="M455 -199q-23 -63 -52.5 -103t-66.5 -63.5t-81 -32t-95 -8.5q-39 0 -69 4.5t-54 8.5v137q31 -4 57.5 -7t52.5 -3q37 0 68 7t55 32q16 16 28.5 38.5t25.5 59.5l43 125l-338 979h180l190 -590q10 -31 19.5 -61.5t17.5 -55.5q8 -29 17 -53h2q10 29 18 59q8 27 18.5 59 t22.5 64l199 578h170zM561 1372h174v-221h-174v221zM193 1372h174v-221h-174v221z" />
<glyph unicode="&#x132;" horiz-adv-x="1261" d="M1108 1393v-1059q0 -82 -12.5 -131t-36.5 -88q-51 -82 -142.5 -111t-191.5 -29q-66 0 -105.5 6.5t-64.5 12.5v164q29 -10 68 -17.5t84 -7.5q41 0 85 9.5t78 37.5q43 35 50.5 97.5t7.5 162.5v953h180zM342 0h-180v1393h180v-1393z" />
<glyph unicode="&#x133;" horiz-adv-x="909" d="M774 1176h-170v217h170v-217zM434 -266q10 -2 24.5 -3t35.5 -1q41 0 62.5 9t31.5 28q10 16 13 37.5t3 62.5v1108h170v-1143q0 -80 -14 -121q-23 -66 -79 -95.5t-155 -29.5q-53 0 -92 6v142zM305 1176h-170v217h170v-217zM305 0h-170v975h170v-975z" />
<glyph unicode="&#x152;" horiz-adv-x="2007" d="M1020 0q-57 -10 -115.5 -17.5t-118.5 -7.5q-160 0 -287.5 46.5t-219 136.5t-140.5 224t-49 310q0 168 48 302t138.5 227.5t219.5 143.5t292 50q57 0 115 -7t117 -17h874v-162h-743v-428h674v-162h-674v-477h782v-162h-913zM969 1235q-47 10 -93.5 13t-89.5 3 q-115 0 -209 -33.5t-160.5 -103.5t-103.5 -175t-37 -247q0 -139 40 -243.5t110 -175t163 -106.5t199 -36q70 0 112 5t69 14v1085z" />
<glyph unicode="&#x153;" horiz-adv-x="1798" d="M1284 860q-113 0 -191.5 -73.5t-93.5 -202.5h547q-10 129 -77.5 202.5t-184.5 73.5zM254 485q0 -176 81 -272t210 -96t210 97t81 271q0 178 -79 275.5t-212 97.5t-212 -98.5t-79 -274.5zM1716 201q-14 -23 -46 -61t-84 -74.5t-126 -63.5t-174 -27q-123 0 -217 46.5 t-154 132.5q-61 -86 -155 -132.5t-215 -46.5q-104 0 -190.5 36t-147 101.5t-94 160t-33.5 210.5q0 117 33.5 212.5t95 163t147.5 103t189 35.5q119 0 214 -49t156 -137q61 88 156.5 137t212.5 49q111 0 193 -38.5t136 -107.5t81.5 -163t27.5 -203v-36h-729q2 -59 20.5 -118 t55.5 -105t95.5 -74.5t138.5 -28.5q63 0 111 17.5t84 44t59.5 54t35.5 50.5z" />
<glyph unicode="&#x178;" horiz-adv-x="1210" d="M692 0h-180v569l-504 824h207l397 -652l408 652h203l-531 -824v-569zM727 1759h174v-221h-174v221zM358 1759h174v-221h-174v221z" />
<glyph unicode="&#x2c6;" horiz-adv-x="1038" d="M393 1130h-157l200 263h162l203 -263h-154l-131 136z" />
<glyph unicode="&#x2dc;" horiz-adv-x="1099" d="M895 1360q-16 -37 -34.5 -74t-44 -66.5t-58.5 -48t-78 -18.5t-85 16.5t-75 34.5q-23 10 -49.5 26.5t-54.5 16.5q-16 0 -28.5 -10t-22 -24.5t-15.5 -32t-8 -29.5l-137 29q8 23 24.5 58.5t43 69t63.5 57.5t88 24q37 0 70.5 -12.5t66.5 -30.5q29 -16 57.5 -32t57.5 -16 q35 0 54.5 32t29.5 65z" />
<glyph unicode="&#x2000;" horiz-adv-x="925" />
<glyph unicode="&#x2001;" horiz-adv-x="1851" />
<glyph unicode="&#x2002;" horiz-adv-x="925" />
<glyph unicode="&#x2003;" horiz-adv-x="1851" />
<glyph unicode="&#x2004;" horiz-adv-x="617" />
<glyph unicode="&#x2005;" horiz-adv-x="462" />
<glyph unicode="&#x2006;" horiz-adv-x="308" />
<glyph unicode="&#x2007;" horiz-adv-x="308" />
<glyph unicode="&#x2008;" horiz-adv-x="231" />
<glyph unicode="&#x2009;" horiz-adv-x="370" />
<glyph unicode="&#x200a;" horiz-adv-x="102" />
<glyph unicode="&#x2010;" horiz-adv-x="786" d="M657 645v-178h-528v178h528z" />
<glyph unicode="&#x2011;" horiz-adv-x="786" d="M657 645v-178h-528v178h528z" />
<glyph unicode="&#x2012;" horiz-adv-x="786" d="M657 645v-178h-528v178h528z" />
<glyph unicode="&#x2013;" horiz-adv-x="1292" d="M127 479v156h1038v-156h-1038z" />
<glyph unicode="&#x2014;" horiz-adv-x="1685" d="M127 479v156h1432v-156h-1432z" />
<glyph unicode="&#x2018;" horiz-adv-x="421" d="M113 885v153q0 66 2 126.5t16 109.5q16 59 57 98t119 45v-94q-47 -6 -67 -41q-23 -39 -23 -133v-29h90v-235h-194z" />
<glyph unicode="&#x2019;" horiz-adv-x="411" d="M311 1393v-154q0 -66 -2 -126t-16 -109q-16 -59 -57 -98.5t-119 -45.5v94q47 6 67 41q23 39 23 133v29h-90v236h194z" />
<glyph unicode="&#x201a;" horiz-adv-x="432" d="M313 236v-154q0 -66 -2 -126t-16 -110q-16 -59 -57 -98t-119 -45v94q47 6 67 41q23 39 23 133v29h-90v236h194z" />
<glyph unicode="&#x201c;" horiz-adv-x="714" d="M113 885v153q0 66 2 126.5t16 109.5q16 59 57 98t119 45v-94q-47 -6 -67 -41q-23 -39 -23 -133v-29h90v-235h-194zM406 885v153q0 66 2 126.5t16 109.5q16 59 57 98t119 45v-94q-47 -6 -68 -41q-23 -39 -22 -133v-29h90v-235h-194z" />
<glyph unicode="&#x201d;" horiz-adv-x="704" d="M604 1393v-154q0 -66 -2 -126t-16 -109q-16 -59 -57.5 -98.5t-118.5 -45.5v94q47 6 67 41q23 39 23 133v29h-90v236h194zM311 1393v-154q0 -66 -2 -126t-16 -109q-16 -59 -57 -98.5t-119 -45.5v94q47 6 67 41q23 39 23 133v29h-90v236h194z" />
<glyph unicode="&#x201e;" horiz-adv-x="724" d="M606 236v-154q0 -66 -2 -126t-16 -110q-16 -59 -57.5 -98t-118.5 -45v94q47 6 67 41q23 39 23 133v29h-90v236h194zM313 236v-154q0 -66 -2 -126t-16 -110q-16 -59 -57 -98t-119 -45v94q47 6 67 41q23 39 23 133v29h-90v236h194z" />
<glyph unicode="&#x2022;" horiz-adv-x="839" d="M133 702q0 59 22.5 111.5t61.5 91.5t91 61.5t112 22.5q59 0 111.5 -22.5t91.5 -61.5t61.5 -91t22.5 -112q0 -59 -22.5 -111t-61.5 -91t-91.5 -61.5t-111.5 -22.5t-111.5 22.5t-91.5 61.5t-61.5 91t-22.5 111z" />
<glyph unicode="&#x2026;" horiz-adv-x="1804" d="M1686 233v-233h-195v233h195zM999 233v-233h-194v233h194zM313 233v-233h-194v233h194z" />
<glyph unicode="&#x202f;" horiz-adv-x="370" />
<glyph unicode="&#x2030;" horiz-adv-x="2617" d="M2404 408q0 147 -42 242t-132 95q-45 0 -76.5 -25.5t-52 -69.5t-31 -102.5t-10.5 -123.5q0 -61 9.5 -118.5t29 -101.5t52 -71t79.5 -27q49 0 83 25t53.5 66t28.5 96.5t9 114.5zM2554 410q0 -84 -19.5 -161t-59.5 -137.5t-101.5 -96t-145.5 -35.5q-88 0 -149.5 36.5 t-99 97t-55 138.5t-17.5 158q0 82 15 163.5t53 148t100.5 107.5t156.5 41q98 0 161 -43t98.5 -109.5t49 -148t13.5 -159.5zM1614 408q0 147 -42 242t-132 95q-45 0 -77 -25.5t-52.5 -69.5t-30.5 -102.5t-10 -123.5q0 -61 9 -118.5t28.5 -101.5t52.5 -71t80 -27q49 0 82.5 25 t53 66t29 96.5t9.5 114.5zM1763 410q0 -84 -19.5 -161t-59 -137.5t-101 -96t-145.5 -35.5q-88 0 -149.5 36.5t-99.5 97t-55.5 138.5t-17.5 158q0 82 15.5 163.5t53.5 148t100.5 107.5t156.5 41q98 0 160.5 -43t98.5 -109.5t49 -148t13 -159.5zM625 0h-154l725 1393h152z M561 946q0 147 -42 242.5t-132 95.5q-45 0 -76.5 -25.5t-52 -69.5t-31 -102.5t-10.5 -123.5q0 -61 9.5 -119t28.5 -102t52 -70.5t80 -26.5q49 0 83 24.5t53.5 65.5t28.5 96.5t9 114.5zM711 948q0 -84 -19.5 -160.5t-59.5 -137t-101.5 -96.5t-145.5 -36q-88 0 -149.5 37 t-99.5 97.5t-55.5 138t-17.5 157.5q0 82 15.5 164t53.5 148.5t100.5 107.5t156.5 41q98 0 160.5 -43t98.5 -109.5t49.5 -148.5t13.5 -160z" />
<glyph unicode="&#x2039;" horiz-adv-x="528" d="M100 518v213l310 258v-196l-193 -158l193 -174v-191z" />
<glyph unicode="&#x203a;" horiz-adv-x="528" d="M119 270v191l192 174l-192 158v196l309 -258v-213z" />
<glyph unicode="&#x205f;" horiz-adv-x="462" />
<glyph unicode="&#x20ac;" horiz-adv-x="1222" d="M1143 307q-23 -74 -59.5 -134t-90 -104t-124 -69t-162.5 -25q-117 0 -202 40t-143.5 106.5t-93.5 152.5t-49 179h-158l52 145h90q0 6 -1 18.5t-1 26.5v27.5v21.5v36t2 30h-142l52 145h104q16 113 54 207t98.5 162.5t144.5 106.5t193 38q174 0 278.5 -90t155.5 -242 l-142 -84q-35 123 -105.5 196t-186.5 73q-68 0 -121.5 -28t-91 -76t-62 -115.5t-37.5 -147.5h502l-49 -145h-467q-2 -12 -2 -36v-40v-43t2 -41h430l-49 -145h-365q10 -68 33 -127.5t59.5 -103.5t90 -70.5t127.5 -26.5q123 0 191.5 69.5t100.5 182.5z" />
<glyph unicode="&#x2122;" horiz-adv-x="1888" d="M1571 477v455v80t2 64.5t3 57t5 56.5h-4q-4 -20 -12.5 -52t-16.5 -68t-17 -69.5t-18 -58.5l-149 -465h-121l-160 463q-27 74 -40 126t-23 108h-4q2 -35 6 -74q2 -35 4 -78t2 -88v-457h-145v916h190l150 -441q35 -106 52 -169.5t28 -104.5h4q6 18 14 51t18.5 71t21.5 78 t23 74l138 441h194v-916h-145zM102 1393h695v-142h-273v-772h-149v772h-273v142z" />
<glyph unicode="&#x2190;" horiz-adv-x="1662" d="M1581 416h-1202l426 -416h-217l-486 487l486 488h217l-428 -418h1204v-141z" />
<glyph unicode="&#x2192;" horiz-adv-x="1662" d="M1096 975l485 -488l-485 -487h-217l424 416h-1201v141h1203l-426 418h217z" />
<glyph unicode="&#x25fc;" horiz-adv-x="972" d="M0 973h973v-973h-973v973z" />
<glyph horiz-adv-x="1908" d="M1806 614h-1446l625 -614h-227l-697 696l697 697h227l-627 -617h1448v-162z" />
<glyph horiz-adv-x="1908" d="M1151 1393l696 -697l-696 -696h-227l622 614h-1444v162h1446l-624 617h227z" />
<glyph horiz-adv-x="1966" d="M1806 614h-1446l625 -614h-227l-697 696l697 697h227l-627 -617h1268v617h180v-779z" />
<glyph horiz-adv-x="1253" d="M627 -25q-150 0 -251.5 60.5t-163.5 161t-89 230.5t-27 267q0 147 31 278.5t96.5 231t164.5 156.5t239 57q137 0 237.5 -57t166 -155.5t96 -230.5t30.5 -280q0 -137 -26.5 -266t-89 -229.5t-163.5 -162t-251 -61.5zM627 1268q-90 0 -154.5 -44t-106.5 -121t-62.5 -180.5 t-20.5 -224.5q0 -115 16 -218t55 -181t105.5 -125t167.5 -47q100 0 166.5 47t106.5 125t55.5 181.5t15.5 217.5q0 121 -20.5 224.5t-62.5 180.5t-106.5 121t-154.5 44z" />
<glyph horiz-adv-x="741" d="M580 0h-174v958h-367v138h45q84 0 140.5 15t97.5 44q100 74 106 238h152v-1393z" />
<glyph horiz-adv-x="1116" d="M125 805q-8 16 -19.5 70.5t-11.5 113.5q0 86 31 164t90 136.5t145 93t195 34.5q121 0 207 -35.5t141 -98t81 -144.5t26 -174q0 -117 -42 -219.5t-112 -189.5t-157 -160.5t-175 -135.5q-41 -29 -85 -56.5t-83 -49.5h664v-154h-916v145q45 27 102.5 68t120 89t127 100.5 t124.5 103.5q51 45 96 93t79.5 103.5t55 118t20.5 135.5q0 147 -79.5 227.5t-204.5 80.5q-68 0 -119 -21.5t-85 -58.5t-50.5 -86t-16.5 -107q0 -106 45 -203z" />
<glyph horiz-adv-x="1134" d="M106 1053q2 51 30 114.5t82 118.5t139 93t204 38q111 0 194 -27.5t137 -75.5t81.5 -114.5t27.5 -144.5q0 -123 -59 -201t-145 -113q45 -16 89 -45.5t78.5 -72.5t55 -99.5t20.5 -128.5q0 -92 -33.5 -168.5t-98 -133t-155.5 -87.5t-208 -31q-217 0 -339 113t-132 303 l166 53q4 -84 29.5 -144t67.5 -98t95 -56.5t115 -18.5q145 0 227 73.5t82 200.5q0 92 -41 145.5t-106 80.5q-47 18 -104.5 25t-121.5 7h-127v144h115q59 0 119.5 8t111.5 31q53 23 85 72t32 126q0 102 -68.5 165t-197.5 63q-70 0 -122 -21.5t-87 -58.5t-55.5 -85t-26.5 -99z " />
<glyph horiz-adv-x="1128" d="M672 500v444q0 41 1 69.5t2 51t2 42t3 40.5q-25 -41 -56.5 -95.5t-72.5 -109.5l-318 -442h439zM846 0h-174v344h-633v131l647 918h160v-893h233v-156h-233v-344z" />
<glyph horiz-adv-x="1126" d="M250 379q29 -123 109.5 -187.5t195.5 -64.5q61 0 117.5 21.5t99.5 65.5t68.5 110.5t25.5 156.5q0 80 -25.5 140.5t-66.5 99.5t-95 58.5t-110 19.5q-111 0 -190.5 -60.5t-112.5 -179.5l-151 49l71 785h787l-10 -160h-623l-41 -387q45 39 119 72.5t176 33.5q98 0 182 -31.5 t144.5 -93t94.5 -149.5t34 -201q0 -109 -34 -201t-98.5 -158.5t-156.5 -104.5t-209 -38q-186 0 -308 90.5t-165 249.5z" />
<glyph horiz-adv-x="1165" d="M897 467q0 150 -83 228.5t-210 78.5q-94 0 -183 -48t-138 -132q2 -104 24.5 -190.5t63.5 -147.5t100 -95t133 -34q131 0 212 92t81 248zM881 1022q-6 29 -22.5 71t-47.5 80.5t-79 66.5t-120 28q-156 0 -237.5 -128t-91.5 -362q49 61 138 105.5t210 44.5q102 0 185 -35 t140.5 -95.5t88 -143.5t30.5 -177q0 -98 -30.5 -189t-90 -161t-147.5 -111t-203 -41q-238 0 -372 171t-134 540q0 172 34 307t100.5 229.5t163 144.5t222.5 50q111 0 188 -34.5t127 -88t75.5 -115t33.5 -116.5z" />
<glyph horiz-adv-x="1048" d="M1026 1260q-94 -143 -173 -289t-139.5 -300.5t-100.5 -320.5t-54 -350h-192q33 342 152.5 643t309.5 592h-600v-268h-166v426h963v-133z" />
<glyph horiz-adv-x="1177" d="M588 811q135 0 207.5 67.5t72.5 161.5q0 102 -77.5 165t-202.5 63q-127 0 -204 -62.5t-77 -165.5q0 -94 72 -161.5t209 -67.5zM588 127q78 0 136 22.5t97 59.5t58.5 85t19.5 101q0 121 -82 196t-229 75q-145 0 -227 -75t-82 -196q0 -53 19 -101t57 -85t96.5 -59.5 t136.5 -22.5zM588 1417q111 0 195.5 -28.5t142 -78.5t87 -118t29.5 -145q0 -109 -59 -189t-139 -117q41 -20 84 -48.5t77.5 -70.5t56 -98.5t21.5 -130.5q0 -82 -28.5 -157.5t-90 -133t-154.5 -92.5t-222 -35t-223.5 35t-153.5 92.5t-88 133t-29 157.5q0 74 21.5 131.5 t56.5 99.5t77 71.5t85 47.5q-86 35 -143.5 113t-57.5 191q0 78 30 145.5t87 117.5t142 78.5t196 28.5z" />
<glyph horiz-adv-x="1165" d="M268 928q0 -150 83 -228.5t210 -78.5q94 0 183.5 48t138.5 132q-2 104 -24.5 190t-63.5 147.5t-100.5 95.5t-133.5 34q-131 0 -212 -92t-81 -248zM285 373q6 -29 22.5 -71t47 -81t78.5 -66.5t120 -27.5q156 0 237.5 127t92.5 360q-49 -61 -138.5 -105t-209.5 -44 q-102 0 -185.5 35t-140.5 95t-88 142t-31 178q0 98 31 189.5t90 161t147 110.5t203 41q119 0 212 -42t158.5 -129t100.5 -221t35 -318q0 -172 -34 -307.5t-100.5 -229.5t-163.5 -144.5t-222 -50.5q-111 0 -187.5 35t-127 88.5t-76 114.5t-33.5 117z" />
<glyph horiz-adv-x="1665" d="M1038 647q-10 -4 -31.5 -9t-68.5 -15l-82 -19q-51 -10 -95 -21.5t-73 -33.5q-45 -33 -45 -94q0 -72 51 -111t131 -39q41 0 79 10.5t67.5 32t48 56t18.5 83.5v160zM1182 381q0 -45 17.5 -61.5t51.5 -16.5q39 0 73 32t57.5 89t37 133t13.5 166q0 111 -37 214t-109 182 t-176 126t-242 47q-135 0 -249.5 -48t-199.5 -136t-133 -212t-48 -278q0 -150 46 -274.5t131 -213.5t204.5 -138t265.5 -49q178 0 322.5 72.5t252.5 207.5l82 -104q-117 -141 -284.5 -222t-376.5 -81q-190 0 -339 59t-250.5 164.5t-153.5 253t-52 325.5t60.5 325t166 252 t247.5 163.5t308 58.5q168 0 299 -55t221.5 -148.5t138.5 -218.5t48 -266q0 -152 -34 -259.5t-91 -172.5q-92 -104 -233 -104q-80 0 -123 30.5t-47 83.5h-3q-10 -16 -29.5 -36.5t-51 -39t-75.5 -31t-106 -12.5q-135 0 -215 68t-80 193q0 72 30 118.5t81 77.5 q49 29 114.5 45.5t135.5 28.5l117 18q41 8 57 16.5t16 37.5v24q0 33 -7 61.5t-26.5 48t-55.5 31t-93 11.5q-117 0 -160 -52.5t-43 -130.5l-143 17q-2 72 25.5 126t77 90t114 53t135.5 17q72 0 131.5 -12t101.5 -43t64.5 -83t22.5 -132v-436v0z" />
<glyph horiz-adv-x="452" d="M307 -160h-162v1716h162v-1716z" />
<glyph horiz-adv-x="1323" d="M741 82h-157v530h-523v156h523v528h157v-528h521v-156h-521v-530z" />
<glyph horiz-adv-x="1429" d="M115 82v156h1200v-156h-1200zM795 293h-158v428h-522v156h522v426h158v-426h520v-156h-520v-428z" />
<glyph horiz-adv-x="1302" d="M651 612l-452 -452l-113 112l453 453l-451 453l111 110l450 -452l455 454l113 -112l-455 -455l452 -451l-110 -110z" />
<glyph horiz-adv-x="1595" d="M895 1180v-224h-195v224h195zM895 428v-223h-195v223h195zM109 614v156h1378v-156h-1378z" />
<glyph horiz-adv-x="1671" d="M139 797v155h1377v-155h-1377zM139 440v156h1377v-156h-1377z" />
<glyph horiz-adv-x="1144" d="M1012 406h-154v430h-780v135h934v-565z" />
<glyph horiz-adv-x="524" d="M346 -193q-131 205 -195.5 414t-64.5 449q0 236 66.5 461t195.5 421l141 -20q-121 -199 -181 -418t-60 -438q0 -109 17.5 -221.5t50 -221t75.5 -210t96 -189.5z" />
<glyph horiz-adv-x="524" d="M37 -166q51 88 95 189.5t77 210t50 221t17 221.5q0 219 -60 438t-181 418l141 20q129 -197 195.5 -422t66.5 -460q0 -240 -64.5 -449t-195.5 -414z" />
<glyph horiz-adv-x="778" d="M653 768v-178h-528v178h528z" />
<glyph horiz-adv-x="591" d="M532 -182h-387v1718h387v-133h-223v-1452h223v-133z" />
<glyph horiz-adv-x="591" d="M59 -47h224v1450h-224v133h387v-1716h-387v133z" />
<glyph horiz-adv-x="555" d="M68 745q45 12 69.5 33t35.5 50.5t13 69.5t2 95v250q0 164 58.5 228.5t204.5 64.5h34v-127q-80 0 -106.5 -34t-26.5 -136v-240q0 -68 -4 -120t-18.5 -90.5t-42 -63.5t-72.5 -39v-2q45 -14 72.5 -38.5t42 -63.5t18.5 -91.5t4 -119.5v-254q0 -102 27 -136t106 -34v-127h-34 q-145 0 -204 64.5t-59 228.5v264q0 55 -2 95t-13 69.5t-35.5 50t-69.5 33.5v120z" />
<glyph horiz-adv-x="555" d="M487 625q-45 -12 -69.5 -33t-35.5 -50.5t-13 -69.5t-2 -95v-264q0 -164 -58.5 -228.5t-204.5 -64.5h-34v127q80 0 106.5 33.5t26.5 136.5v254q0 68 4 120t18.5 91t41 63.5t73.5 38.5v2q-47 14 -73.5 39t-41 63.5t-18.5 91t-4 119.5v240q0 102 -26.5 136t-106.5 34v127h34 q145 0 204 -64.5t59 -228.5v-250q0 -55 2 -95t13 -69.5t35.5 -50t69.5 -33.5v-120z" />
<glyph horiz-adv-x="917" d="M80 580v213l309 258v-197l-201 -158l201 -174v-190zM494 580v213l309 258v-197l-201 -158l201 -174v-190z" />
<glyph horiz-adv-x="778" d="M653 768v-178h-528v178h528z" />
<glyph horiz-adv-x="917" d="M528 332v190l201 174l-201 158v197l310 -258v-213zM115 332v190l200 174l-200 158v197l309 -258v-213z" />
<glyph horiz-adv-x="1300" d="M131 602v156h1038v-156h-1038z" />
<glyph horiz-adv-x="1693" d="M131 602v156h1432v-156h-1432z" />
<glyph horiz-adv-x="503" d="M80 580v213l309 258v-197l-192 -158l192 -174v-190z" />
<glyph horiz-adv-x="503" d="M115 332v190l192 174l-192 158v197l309 -258v-213z" />
<glyph horiz-adv-x="462" d="M315 -223h-168v661h168v-661zM315 893h-168v661h168v-661z" />
<glyph horiz-adv-x="440" d="M305 1176h-170v217h170v-217zM305 0h-170v975h170v-975z" />
<glyph d="M604 -25q-150 0 -251 60.5t-163.5 161t-89 230.5t-26.5 267q0 147 30.5 278.5t96 231t165 156.5t238.5 57q137 0 237.5 -57t166 -155.5t96.5 -230.5t31 -280q0 -137 -27 -266t-89.5 -229.5t-163.5 -162t-251 -61.5zM604 1268q-90 0 -154.5 -44t-106.5 -121t-62.5 -180.5 t-20.5 -224.5q0 -115 16.5 -218t55.5 -181t105.5 -125t166.5 -47t167 47t107 125t55 181.5t15 217.5q0 121 -20.5 224.5t-62.5 180.5t-106.5 121t-154.5 44z" />
<glyph d="M604 127q100 0 167 46t107 125t55 181.5t15 216.5q0 180 -43 314l-475 -832q70 -51 174 -51zM604 1268q-90 0 -154.5 -44t-106.5 -121t-62.5 -181.5t-20.5 -225.5q0 -106 13.5 -202.5t48.5 -174.5l487 863q-82 86 -205 86zM604 -25q-150 0 -251 60.5t-163.5 161 t-89 229.5t-26.5 266q0 147 30.5 279.5t96 230.5t165 156.5t238.5 58.5q137 0 237.5 -57t166 -156.5t96.5 -231.5t31 -280q0 -137 -27 -266t-89.5 -229.5t-163.5 -161t-251 -60.5z" />
<glyph d="M813 0h-174v958h-367v138h45q84 0 140.5 15t97.5 44q100 74 107 238h151v-1393z" />
<glyph d="M170 805q-8 16 -19.5 70.5t-11.5 113.5q0 86 31 164t90 136.5t145.5 93t194.5 34.5q121 0 207 -35.5t141.5 -98t81 -144.5t25.5 -174q0 -117 -42 -219.5t-112 -189.5t-157 -160.5t-175 -135.5q-41 -29 -85 -56.5t-83 -49.5h664v-154h-915v145q45 27 102 68t119.5 89 t127 100.5t124.5 103.5q51 45 96 93t80 103.5t55 118t20 135.5q0 147 -79.5 227.5t-204.5 80.5q-68 0 -119 -21.5t-85 -58.5t-50.5 -86t-16.5 -107q0 -106 46 -203z" />
<glyph d="M143 1053q2 51 30 114.5t82 118.5t139 93t204 38q111 0 193.5 -27.5t137 -75.5t82 -114.5t27.5 -144.5q0 -123 -59 -201t-145 -113q45 -16 89 -45.5t78.5 -72.5t55 -99.5t20.5 -128.5q0 -92 -33.5 -168.5t-98 -133t-156 -87.5t-207.5 -31q-217 0 -339 113t-132 303 l165 53q4 -84 30 -144t68 -98t95 -56.5t115 -18.5q145 0 227 73.5t82 200.5q0 92 -41 145.5t-107 80.5q-47 18 -104 25t-121 7h-127v144h115q59 0 119.5 8t111.5 31q53 23 85 72t32 126q0 102 -68.5 165t-197.5 63q-70 0 -122 -21.5t-87 -58.5t-55.5 -85t-26.5 -99z" />
<glyph d="M711 500v444q0 41 1 69.5t2 51t2 42t3 40.5q-25 -41 -56.5 -95.5t-72.5 -109.5l-318 -442h439zM885 0h-174v344h-633v131l647 918h160v-893h233v-156h-233v-344z" />
<glyph d="M291 379q29 -123 109.5 -187.5t195.5 -64.5q61 0 117.5 21.5t99.5 65.5t68.5 110.5t25.5 156.5q0 80 -25.5 140.5t-66.5 99.5t-95 58.5t-110 19.5q-111 0 -190.5 -60.5t-112.5 -179.5l-151 49l71 785h787l-10 -160h-623l-41 -387q45 39 118.5 72.5t176.5 33.5 q98 0 182 -31.5t144.5 -93t94.5 -149.5t34 -201q0 -109 -34 -201t-98.5 -158.5t-156.5 -104.5t-209 -38q-186 0 -308 90.5t-165 249.5z" />
<glyph d="M920 467q0 150 -83 228.5t-210 78.5q-94 0 -183.5 -48t-138.5 -132q2 -104 24.5 -190.5t63.5 -147.5t100.5 -95t133.5 -34q131 0 212 92t81 248zM903 1022q-6 29 -22.5 71t-47 80.5t-78.5 66.5t-120 28q-156 0 -238 -128t-92 -362q49 61 138 105.5t210 44.5 q102 0 185.5 -35t140.5 -95.5t88 -143.5t31 -177q0 -98 -31 -189t-90 -161t-147.5 -111t-202.5 -41q-238 0 -372 171t-134 540q0 172 33.5 307t100.5 229.5t163 144.5t223 50q111 0 187.5 -34.5t127 -88t76 -115t33.5 -116.5z" />
<glyph d="M1106 1260q-94 -143 -173 -289t-139.5 -300.5t-100.5 -320.5t-54 -350h-193q33 342 153 643t310 592h-600v-268h-166v426h963v-133z" />
<glyph d="M602 811q135 0 208 67.5t73 161.5q0 102 -78 165t-203 63q-127 0 -203.5 -62.5t-76.5 -165.5q0 -94 71.5 -161.5t208.5 -67.5zM602 127q78 0 136.5 22.5t97 59.5t58 85t19.5 101q0 121 -81.5 196t-229.5 75q-145 0 -227 -75t-82 -196q0 -53 19.5 -101t57.5 -85t96 -59.5 t136 -22.5zM602 1417q111 0 196 -28.5t142 -78.5t87 -118t30 -145q0 -109 -59.5 -189t-139.5 -117q41 -20 84 -48.5t78 -70.5t56.5 -98.5t21.5 -130.5q0 -82 -29 -157.5t-90 -133t-154.5 -92.5t-222.5 -35t-223 35t-153.5 92.5t-88 133t-28.5 157.5q0 74 21.5 131.5t56 99.5 t76.5 71.5t85 47.5q-86 35 -143.5 113t-57.5 191q0 78 30 145.5t87.5 117.5t142 78.5t195.5 28.5z" />
<glyph d="M289 928q0 -150 83 -228.5t210 -78.5q94 0 183 48t138 132q-2 104 -24.5 190t-63.5 147.5t-100.5 95.5t-132.5 34q-131 0 -212 -92t-81 -248zM305 373q6 -29 22.5 -71t47.5 -81t79 -66.5t119 -27.5q156 0 238 127t92 360q-49 -61 -138 -105t-210 -44q-102 0 -185 35 t-140.5 95t-88 142t-30.5 178q0 98 30.5 189.5t90 161t147.5 110.5t203 41q119 0 212 -42t158.5 -129t100 -221t34.5 -318q0 -172 -33.5 -307.5t-100 -229.5t-164 -144.5t-222.5 -50.5q-111 0 -187.5 35t-126.5 88.5t-75.5 114.5t-34.5 117z" />
</font>
</defs>
</svg>
