<?xml version="1.0" encoding="UTF-8"?>
<svg width="118px" height="50px" viewBox="0 0 118 50" version="1.1" xmlns="http://www.w3.org/2000/svg" xmlns:xlink="http://www.w3.org/1999/xlink">
    <!-- Generator: Sketch 47.1 (45422) - http://www.bohemiancoding.com/sketch -->
    <title>Well Logo@2x</title>
    <desc>Created with Sketch.</desc>
    <defs>
        <polygon id="path-1" points="0.0916466667 45.8661417 7.86666667 45.8661417 7.86666667 23.0078937 7.86666667 0.149645669 0.0916466667 0.149645669"></polygon>
        <polygon id="path-3" points="0.0328826667 45.8661417 7.80790267 45.8661417 7.80790267 0.149645669 0.0328826667 0.149645669 0.0328826667 45.8661417"></polygon>
        <polygon id="path-5" points="0 49.9232283 118 49.9232283 118 0 0 0"></polygon>
    </defs>
    <g id="Symbols" stroke="none" stroke-width="1" fill="none" fill-rule="evenodd">
        <g id="Header" transform="translate(-150.000000, -25.000000)">
            <g id="Well-Logo" transform="translate(150.000000, 25.000000)">
                <g id="Group-3" transform="translate(110.133333, 4.057087)">
                    <mask id="mask-2" fill="white">
                        <use xlink:href="#path-1"></use>
                    </mask>
                    <g id="Clip-2"></g>
                    <path d="M7.86666667,4.04 L7.86627333,4.04 C7.86627333,1.89098425 6.12557667,0.149645669 3.97955,0.149645669 C1.83254,0.149645669 0.09204,1.89098425 0.09204,4.04 L0.0916466667,4.04 L0.0916466667,41.9695276 L0.0924333333,41.9695276 C0.0924333333,41.9711024 0.09204,41.9732677 0.09204,41.9758268 C0.09204,44.1240551 1.83254,45.8661811 3.97955,45.8661811 C6.12557667,45.8661811 7.86627333,44.1240551 7.86627333,41.9758268 C7.86627333,41.9732677 7.86588,41.9711024 7.86588,41.9695276 L7.86666667,41.9695276 L7.86666667,4.04 Z" id="Fill-1" fill="#15AA99" mask="url(#mask-2)"></path>
                </g>
                <g id="Group-6" transform="translate(98.530000, 4.057087)">
                    <mask id="mask-4" fill="white">
                        <use xlink:href="#path-3"></use>
                    </mask>
                    <g id="Clip-5"></g>
                    <path d="M7.80790267,4.04 L7.80750933,4.04 C7.80750933,1.89098425 6.06740267,0.149645669 3.920786,0.149645669 C1.773776,0.149645669 0.0334726667,1.89098425 0.0334726667,4.04 L0.0328826667,4.04 L0.0328826667,41.9695276 L0.033866,41.9695276 C0.033866,41.9711024 0.0334726667,41.9732677 0.0334726667,41.9758268 C0.0334726667,44.1240551 1.773776,45.8661811 3.920786,45.8661811 C6.06740267,45.8661811 7.80750933,44.1240551 7.80750933,41.9758268 C7.80750933,41.9732677 7.807116,41.9711024 7.807116,41.9695276 L7.80790267,41.9695276 L7.80790267,4.04 Z" id="Fill-4" fill="#15AA99" mask="url(#mask-4)"></path>
                </g>
                <path d="M87.8477747,38.9191732 C87.0443913,38.9191732 86.1352013,39.3307874 85.4472613,40.0658268 C83.7531747,41.9048031 81.1290513,43.1030315 78.4331447,43.1030315 C73.9930013,43.1030315 70.046098,39.7925984 69.077908,35.5703543 L65.712548,35.5703543 C63.763778,35.5703543 62.1833647,34.1213386 62.1833647,32.1701575 C62.1833647,32.0632677 62.1888713,31.9575591 62.198508,31.8530315 L62.197328,31.8530315 C62.1373447,32.4205512 62.1054847,32.997126 62.1054847,33.5807874 C62.1054847,42.606378 69.4157813,49.9231102 78.4331447,49.9231102 C83.183038,49.9231102 87.4589647,47.8925984 90.4422013,44.651063 C91.0239413,44.0217323 91.3777447,43.1784252 91.3777447,42.2532283 C91.3777447,40.3018504 89.7973313,38.9191732 87.8477747,38.9191732" id="Fill-7" fill="#7FBA2A"></path>
                <path d="M78.4333217,17.238622 C70.0513883,17.238622 63.1466183,23.5600787 62.2142217,31.6996457 L62.2155983,31.6996457 C62.4462883,29.9777953 63.9236483,28.6823228 65.7125283,28.6823228 L70.2647717,28.6823228 C71.979705,25.8697244 75.064225,23.8923622 78.4333217,23.8923622 C81.790815,23.8923622 84.9103417,25.8844882 86.6410083,28.6823228 L91.1468383,28.6823228 C93.0956083,28.6823228 94.676415,30.2193307 94.676415,32.1705118 C94.676415,32.0342913 94.6697283,31.8545669 94.6547817,31.7230709 C93.732415,23.5726772 86.821745,17.238622 78.4333217,17.238622" id="Fill-9" fill="#7FBA2A"></path>
                <path d="M86.641087,28.6819882 L70.2648503,28.6819882 C69.3731637,30.142815 68.8518003,31.8290354 68.8518003,33.5806102 C68.8518003,34.2595472 68.9302703,34.925689 69.0777703,35.5701772 L91.146327,35.5701772 C89.3348303,35.5701772 88.202817,34.2924213 88.000447,32.5333661 C87.847047,31.166437 87.366197,29.8540354 86.641087,28.6819882" id="Fill-13" fill="#7FBA2A"></path>
                <path d="M91.1463663,28.6819882 L86.6411263,28.6819882 C87.3656463,29.8540354 87.8474797,31.166437 88.0004863,32.5333661 C88.202463,34.2924213 89.3348697,35.5701772 91.1463663,35.5701772 C91.2323097,35.5701772 91.3166797,35.5676181 91.400853,35.5617126 L91.4024263,35.5617126 C91.4983997,35.5558071 91.5933897,35.5455709 91.687593,35.5325787 C91.695263,35.5312008 91.7033263,35.5304134 91.7113897,35.5290354 C92.0933163,35.4725394 92.4553797,35.3587598 92.7859763,35.1959646 L92.7863697,35.1959646 C92.7922697,35.1934055 92.7981697,35.1904528 92.8040697,35.1875 C92.8060363,35.186122 92.8078063,35.1853346 92.8099697,35.1849409 C92.812133,35.183563 92.8140997,35.182185 92.8158697,35.1812008 C93.9234963,34.6241142 94.6763363,33.5170276 94.6763363,32.1705709 C94.6763363,30.2197835 93.0955297,28.6819882 91.1463663,28.6819882 M70.2648897,28.6819882 L65.7126463,28.6819882 C63.7638763,28.6819882 62.1830697,30.2197835 62.1830697,32.1705709 C62.1830697,34.1215551 63.7638763,35.5701772 65.7126463,35.5701772 L69.0780063,35.5701772 C68.9299163,34.925689 68.8518397,34.2595472 68.8518397,33.5806102 C68.8518397,31.8290354 69.373203,30.142815 70.2648897,28.6819882" id="Fill-15" fill="#009A3A"></path>
                <path d="M16.3259293,6.44856299 L13.3244027,6.44856299 L13.3244027,13.3371457 L16.3259293,13.3371457 C18.226516,13.3371457 19.7668093,11.794626 19.7668093,9.89265748 C19.7668093,7.99068898 18.226516,6.44856299 16.3259293,6.44856299 M6.44283933,6.44856299 L3.44091933,6.44856299 C1.540726,6.44856299 3.93333333e-05,7.99068898 3.93333333e-05,9.89265748 C3.93333333e-05,11.794626 1.540726,13.3371457 3.44091933,13.3371457 L6.44283933,13.3371457 L6.44283933,6.44856299" id="Fill-17" fill="#15AA99"></path>
                <path d="M9.883562,7.87400004e-05 C7.98336867,7.87400004e-05 6.442682,1.54200787 6.442682,3.44417323 L6.442682,6.44830709 L13.324442,6.44830709 L13.324442,3.44417323 C13.324442,1.54200787 11.7837553,7.87400004e-05 9.883562,7.87400004e-05 M13.324442,13.3372835 L6.442682,13.3372835 L6.442682,16.3412205 C6.442682,18.243189 7.98336867,19.785315 9.883562,19.785315 C11.7837553,19.785315 13.324442,18.243189 13.324442,16.3412205 L13.324442,13.3372835" id="Fill-19" fill="#7FBA2A"></path>
                <mask id="mask-6" fill="white">
                    <use xlink:href="#path-5"></use>
                </mask>
                <g id="Clip-22"></g>
                <polygon id="Fill-21" fill="#009A3A" mask="url(#mask-6)" points="6.4428 13.3372047 13.32456 13.3372047 13.32456 6.44862205 6.4428 6.44862205"></polygon>
                <path d="M26.4893087,44.6991535 L26.4918653,44.6936417 L26.4910787,44.693248 L30.1431787,34.6509252 L24.7440887,19.8007283 C24.1690353,18.2206102 22.678302,17.2389173 21.0902187,17.2389173 C20.6483087,17.2389173 20.199712,17.3147047 19.7605553,17.4749409 C17.742362,18.2101772 16.7019953,20.443248 17.4365453,22.4629331 L17.4365453,22.4633268 L26.4863587,47.3560433 L26.486752,47.3556496 L26.4881287,47.3615551 C26.4934387,47.3747441 26.500322,47.3855709 26.505042,47.3987598 C26.189392,46.5591929 26.1585153,45.6080118 26.4893087,44.6991535" id="Fill-23" fill="#0080A4" mask="url(#mask-6)"></path>
                <path d="M35.5455727,22.4631299 L35.545966,22.4631299 C35.197276,21.5046654 35.2489993,20.498563 35.614406,19.6267126 C35.5900193,19.6843898 35.5662227,19.7422638 35.544196,19.8019094 L35.544196,19.8015157 L30.1431393,34.6513189 L33.7940593,44.6940354 L33.793666,44.6940354 L33.7958293,44.6989567 C34.137636,45.6387205 34.0941727,46.6237598 33.747646,47.4839961 C33.7639693,47.4426575 33.781276,47.4028937 33.7962227,47.3613583 L33.7987793,47.3554528 L33.7991727,47.3554528 L39.198656,32.5099803 L35.5455727,22.4631299 Z" id="Fill-24" fill="#0080A4" mask="url(#mask-6)"></path>
                <path d="M30.1432967,34.6513189 L26.4911967,44.6934449 L26.49159,44.6938386 L26.4894267,44.6993504 C25.88566,46.3586024 26.4801833,48.1629331 27.83148,49.1609646 C27.9510533,49.2493504 28.0761333,49.3306496 28.2047533,49.4050591 C28.2053433,49.4054528 28.2059333,49.4058465 28.20672,49.4062402 C28.2075067,49.4068307 28.20849,49.4072244 28.20967,49.4076181 C28.39906,49.5162795 28.6006433,49.6091929 28.81265,49.6875394 C29.2522,49.8469882 29.70119,49.9231693 30.14251,49.9231693 C30.49533,49.9231693 30.84402,49.8745472 31.17855,49.7818307 C31.1795333,49.781437 31.18032,49.7810433 31.1811067,49.7810433 C31.1824833,49.7806496 31.1836633,49.7800591 31.18445,49.7798622 C31.2808167,49.7532874 31.37679,49.7223819 31.47178,49.6881299 C31.4993133,49.6775 31.5268467,49.6672638 31.5545767,49.6568307 L31.5551667,49.6568307 C31.5571333,49.6554528 31.5592967,49.6546654 31.5618533,49.6536811 C32.00042,49.4816339 32.4061433,49.2306496 32.7575867,48.9109646 C33.8905833,47.8802559 34.3523567,46.2286811 33.79638,44.6993504 L33.7938233,44.6938386 L33.7942167,44.6938386 L30.1432967,34.6513189" id="Fill-25" fill="#005571" mask="url(#mask-6)"></path>
                <path d="M44.5987687,44.6991535 L44.6013253,44.6936417 L44.600342,44.693248 L48.253032,34.6509252 L42.8535487,19.8007283 L42.8531553,19.8007283 C42.8425353,19.7712008 42.8293587,19.743248 42.8181487,19.7141142 C43.151892,20.5654921 43.1886687,21.5369488 42.8513853,22.4641142 L42.8519753,22.4641142 L39.1981053,32.5099803 L44.5952287,47.3560433 L44.5958187,47.3556496 L44.597982,47.3615551 C44.6072253,47.3859646 44.6178453,47.4093898 44.627482,47.4336024 C44.2992453,46.5859646 44.2636487,45.6204134 44.5987687,44.6991535" id="Fill-26" fill="#00A9D5" mask="url(#mask-6)"></path>
                <path d="M39.198597,17.2399606 C38.2376837,17.2399606 37.312367,17.5990157 36.6041703,18.2330709 C35.4564237,19.2629921 34.986587,20.9251969 35.5461037,22.4629921 L35.5455137,22.4633858 L39.198597,32.5106299 L42.8520737,22.4643701 L42.8516803,22.4643701 C43.5868203,20.4442913 42.5460603,18.2106299 40.5280637,17.4755906 C40.088907,17.315748 39.6403103,17.2399606 39.198597,17.2399606" id="Fill-27" fill="#005571" mask="url(#mask-6)"></path>
                <path d="M58.637209,17.475748 C58.1990357,17.3155118 57.749849,17.2401181 57.307349,17.2401181 C55.7198557,17.2401181 54.2285323,18.2214173 53.654069,19.8015354 L53.6536757,19.8015354 L48.2528157,34.6513386 L51.9037357,44.6936614 L51.902949,44.6936614 L51.9051123,44.6995669 C52.2473123,45.6405118 52.2028657,46.6269291 51.855159,47.4875591 C51.8724657,47.4456299 51.8901657,47.4042913 51.9055057,47.3609843 L51.9074723,47.3550787 L51.9080623,47.3556693 L60.961219,22.4641339 C61.695769,20.4440551 60.6554023,18.2107874 58.637209,17.475748" id="Fill-28" fill="#00A9D5" mask="url(#mask-6)"></path>
                <path d="M48.2527567,34.6513189 L44.6002633,44.6934449 L44.60105,44.6938386 L44.5984933,44.6993504 C43.9937433,46.3627362 44.59338,48.1717913 45.9511667,49.168248 C46.06307,49.2507283 46.1796933,49.3265157 46.29966,49.3965945 C46.4945567,49.5093898 46.7024333,49.6072244 46.9225033,49.6875394 C47.36107,49.8473819 47.81065,49.9227756 48.25197,49.9227756 C48.60479,49.9227756 48.95348,49.8745472 49.28801,49.7818307 C49.2889933,49.781437 49.28978,49.7810433 49.2905667,49.7810433 C49.2919433,49.7806496 49.2931233,49.7800591 49.29391,49.7800591 C49.3898833,49.7532874 49.4858567,49.7223819 49.58124,49.6881299 C49.6091667,49.6775 49.6367,49.6672638 49.6640367,49.6568307 L49.6646267,49.6568307 C49.6665933,49.6558465 49.6683633,49.6546654 49.6713133,49.6536811 C50.1090933,49.4820276 50.51462,49.2310433 50.86626,48.9127362 C51.99965,47.8816339 52.4618167,46.2290748 51.9054467,44.6993504 L51.9032833,44.6938386 L51.9036767,44.6938386 L48.2527567,34.6513189" id="Fill-29" fill="#0085B0" mask="url(#mask-6)"></path>
            </g>
        </g>
    </g>
</svg>