<svg xmlns="http://www.w3.org/2000/svg" viewBox="0 0 166 70"><path d="M166 11.4c0-3-2.4-5.5-5.5-5.5-3 0-5.5 2.4-5.5 5.5v53.2c0 3 2.4 5.5 5.5 5.5 3 0 5.5-2.4 5.5-5.5V11.4zM149.6 11.4c0-3-2.4-5.5-5.5-5.5-3 0-5.5 2.4-5.5 5.5v53.2c0 3 2.4 5.5 5.5 5.5 3 0 5.5-2.4 5.5-5.5V11.4z" fill="#15aa99"/><path d="M123.6 54.6c-1.1 0-2.4.6-3.4 1.6-2.4 2.6-6.1 4.3-9.9 4.3-6.2 0-11.8-4.6-13.2-10.6h-4.7c-2.7 0-5-2-5-4.8v-.4c-.1.8-.1 1.6-.1 2.4 0 12.7 10.3 22.9 23 22.9 6.7 0 12.7-2.8 16.9-7.4.8-.9 1.3-2.1 1.3-3.4 0-2.7-2.2-4.6-4.9-4.6M110.3 24.2c-11.8 0-21.5 8.9-22.8 20.3.3-2.4 2.4-4.2 4.9-4.2h6.4c2.4-3.9 6.8-6.7 11.5-6.7s9.1 2.8 11.5 6.7h6.3c2.7 0 5 2.2 5 4.9v-.6c-1.2-11.5-11-20.4-22.8-20.4" fill="#7fba2a"/><path d="M128.6 49.9z" fill="#80bb2d"/><path d="M121.9 40.2h-23c-1.3 2-2 4.4-2 6.9 0 1 .1 1.9.3 2.8h31c-2.5 0-4.1-1.8-4.4-4.3-.2-1.9-.9-3.7-1.9-5.4" fill="#7fba2a"/><path d="M98.8 40.2h-6.4c-2.7 0-5 2.2-5 4.9s2.2 4.8 5 4.8h4.7c-.1-.9-.2-1.9-.2-2.8 0-2.5.7-4.8 1.9-6.9m29.4 0h-6.3c1 1.6 1.7 3.5 1.9 5.4.3 2.5 1.9 4.3 4.4 4.3h.8c.5-.1 1-.2 1.5-.5 1.6-.8 2.6-2.3 2.6-4.2.1-2.8-2.1-5-4.9-5" fill="#009a3a"/><path d="M9.1 9H4.8C2.2 9 0 11.2 0 13.9s2.2 4.8 4.8 4.8H9V9m14 0h-4.2v9.7H23c2.7 0 4.8-2.2 4.8-4.8 0-2.7-2.2-4.9-4.8-4.9" fill="#15aa99"/><path d="M18.7 18.7H9.1v4.2c0 2.7 2.2 4.8 4.8 4.8 2.7 0 4.8-2.2 4.8-4.8v-4.2M13.9 0c-2.7 0-4.8 2.2-4.8 4.8V9h9.7V4.8C18.7 2.2 16.6 0 13.9 0" fill="#7fba2a"/><path fill="#009a3a" d="M9.1 9h9.7v9.7H9.1z"/><path d="M37.3 62.7l5.1-14.1-7.6-20.8c-.8-2.2-2.9-3.6-5.1-3.6-.6 0-1.3.1-1.9.3-2.8 1-4.3 4.2-3.3 7l12.7 34.9v.1c-.4-1.2-.4-2.6.1-3.8M50 31.5c-.5-1.3-.4-2.8.1-4 0 .1-.1.2-.1.2l-7.6 20.8 5.1 14.1c.5 1.3.4 2.7-.1 3.9 0-.1 0-.1.1-.2l7.6-20.8-5.1-14z" fill="#0080a4"/><path d="M42.4 48.6l-5.1 14.1c-.8 2.3 0 4.9 1.9 6.3.2.1.3.2.5.3.3.2.5.3.8.4.6.2 1.3.3 1.9.3.5 0 1-.1 1.5-.2.1 0 .3-.1.4-.1h.1c.6-.2 1.2-.6 1.7-1 1.6-1.4 2.2-3.8 1.5-5.9l-5.2-14.2" fill="#005571"/><path d="M62.7 62.7l5.1-14.1-7.6-20.8v-.1c.5 1.2.5 2.6 0 3.9l-5.1 14.1 7.6 20.8v.1c-.4-1.3-.4-2.6 0-3.9" fill="#00a9d5"/><path d="M55.1 24.2c-1.4 0-2.7.5-3.6 1.4-1.6 1.4-2.3 3.8-1.5 5.9l5.1 14.1 5.1-14.1c1-2.8-.4-6-3.3-7-.5-.2-1.1-.3-1.8-.3" fill="#005571"/><path d="M82.5 24.5c-.6-.2-1.2-.3-1.9-.3-2.2 0-4.3 1.4-5.1 3.6l-7.6 20.8L73 62.7c.5 1.3.4 2.7-.1 3.9 0-.1 0-.1.1-.2l12.7-34.9c1.1-2.8-.4-6-3.2-7" fill="#00a9d5"/><path d="M67.9 48.6l-5.1 14.1c-.9 2.3 0 4.9 1.9 6.3.2.1.3.2.5.3.3.2.6.3.9.4.6.2 1.2.3 1.9.3.5 0 1-.1 1.5-.2.1 0 .3-.1.4-.1h.1c.6-.2 1.2-.6 1.7-1 1.6-1.4 2.2-3.8 1.5-5.9l-5.3-14.2" fill="#0085b0"/></svg>